NotoSansThaana-ExtraBold.ufo
<glyph name="exclam" format="2">
  <advance width="424.7692307692308"/>
  <unicode hex="0021"/>
  <outline>
    <contour>
      <point x="194.30769230769232" y="216.53846153846155" type="curve" smooth="yes"/>
      <point x="246.3846153846154" y="216.53846153846155"/>
      <point x="255.0" y="251.23076923076923"/>
      <point x="266.0" y="296.0769230769231" type="curve" smooth="yes"/>
      <point x="282.84615384615387" y="363.46153846153845"/>
      <point x="304.8461538461538" y="431.61538461538464"/>
      <point x="324.0769230769231" y="493.84615384615387" type="curve" smooth="yes"/>
      <point x="346.2307692307692" y="564.9230769230769"/>
      <point x="363.46153846153845" y="612.1538461538462"/>
      <point x="375.9230769230769" y="648.4615384615385" type="curve" smooth="yes"/>
      <point x="386.9230769230769" y="680.8461538461538"/>
      <point x="392.84615384615387" y="699.2307692307693"/>
      <point x="392.84615384615387" y="717.2307692307693" type="curve" smooth="yes"/>
      <point x="392.84615384615387" y="737.9230769230769"/>
      <point x="379.46153846153845" y="753.3076923076923"/>
      <point x="354.61538461538464" y="753.3076923076923" type="curve" smooth="yes"/>
      <point x="329.7692307692308" y="753.3076923076923"/>
      <point x="308.38461538461536" y="733.9230769230769"/>
      <point x="284.0" y="690.5384615384615" type="curve" smooth="yes"/>
      <point x="256.15384615384613" y="641.2307692307693"/>
      <point x="227.53846153846155" y="565.0769230769231"/>
      <point x="183.6153846153846" y="446.6923076923077" type="curve" smooth="yes"/>
      <point x="147.0" y="349.3076923076923"/>
      <point x="127.84615384615384" y="292.3076923076923"/>
      <point x="127.84615384615384" y="267.6923076923077" type="curve" smooth="yes"/>
      <point x="127.84615384615384" y="242.76923076923077"/>
      <point x="143.15384615384616" y="216.53846153846155"/>
    </contour>
    <contour>
      <point x="150.6153846153846" y="-10.923076923076923" type="curve" smooth="yes"/>
      <point x="204.84615384615384" y="-10.923076923076923"/>
      <point x="258.0" y="41.23076923076923"/>
      <point x="258.0" y="95.38461538461539" type="curve" smooth="yes"/>
      <point x="258.0" y="141.0769230769231"/>
      <point x="224.23076923076923" y="173.3846153846154"/>
      <point x="181.3846153846154" y="173.3846153846154" type="curve" smooth="yes"/>
      <point x="125.6923076923077" y="173.3846153846154"/>
      <point x="74.0" y="121.23076923076923"/>
      <point x="74.0" y="66.07692307692308" type="curve" smooth="yes"/>
      <point x="74.0" y="20.384615384615387"/>
      <point x="103.84615384615384" y="-10.923076923076923"/>
    </contour>
  </outline>
</glyph>
<glyph name="parenleft" format="2">
  <advance width="516.2307692307693"/>
  <unicode hex="0028"/>
  <outline>
    <contour>
      <point x="257.9230769230769" y="-225.69230769230768" type="curve" smooth="yes"/>
      <point x="294.15384615384613" y="-225.69230769230768"/>
      <point x="322.9230769230769" y="-197.3846153846154"/>
      <point x="322.9230769230769" y="-167.6153846153846" type="curve" smooth="yes"/>
      <point x="322.9230769230769" y="-147.23076923076923"/>
      <point x="310.0" y="-124.38461538461539"/>
      <point x="285.53846153846155" y="-99.92307692307692" type="curve" smooth="yes"/>
      <point x="246.46153846153845" y="-61.30769230769232"/>
      <point x="214.15384615384616" y="20.769230769230774"/>
      <point x="214.15384615384616" y="100.92307692307692" type="curve" smooth="yes"/>
      <point x="214.15384615384616" y="320.0769230769231"/>
      <point x="301.9230769230769" y="527.6923076923077"/>
      <point x="481.9230769230769" y="603.7692307692307" type="curve" smooth="yes"/>
      <point x="512.2307692307693" y="616.3846153846154"/>
      <point x="559.6153846153846" y="632.4615384615385"/>
      <point x="559.6153846153846" y="671.8461538461538" type="curve" smooth="yes"/>
      <point x="559.6153846153846" y="695.6923076923077"/>
      <point x="540.7692307692307" y="714.5384615384615"/>
      <point x="512.9230769230769" y="714.5384615384615" type="curve" smooth="yes"/>
      <point x="452.38461538461536" y="714.5384615384615"/>
      <point x="384.2307692307692" y="681.7692307692307"/>
      <point x="299.38461538461536" y="614.8461538461538" type="curve" smooth="yes"/>
      <point x="158.46153846153845" y="495.53846153846155"/>
      <point x="82.6923076923077" y="310.6923076923077"/>
      <point x="82.6923076923077" y="100.92307692307692" type="curve" smooth="yes"/>
      <point x="82.6923076923077" y="4.769230769230774"/>
      <point x="113.07692307692308" y="-108.61538461538461"/>
      <point x="185.23076923076923" y="-183.30769230769232" type="curve" smooth="yes"/>
      <point x="210.15384615384616" y="-209.30769230769232"/>
      <point x="236.53846153846155" y="-225.69230769230768"/>
    </contour>
  </outline>
</glyph>
<glyph name="parenright" format="2">
  <advance width="516.2307692307693"/>
  <unicode hex="0029"/>
  <outline>
    <contour>
      <point x="-15.692307692307693" y="-225.69230769230768" type="curve" smooth="yes"/>
      <point x="18.153846153846153" y="-225.69230769230768"/>
      <point x="49.15384615384615" y="-220.15384615384616"/>
      <point x="81.0" y="-207.69230769230768" type="curve" smooth="yes"/>
      <point x="265.0" y="-135.3846153846154"/>
      <point x="414.0769230769231" y="158.84615384615384"/>
      <point x="414.0769230769231" y="387.46153846153845" type="curve" smooth="yes"/>
      <point x="414.0769230769231" y="482.61538461538464"/>
      <point x="387.15384615384613" y="584.6153846153846"/>
      <point x="318.46153846153845" y="666.2307692307693" type="curve" smooth="yes"/>
      <point x="293.0" y="696.6923076923077"/>
      <point x="262.6923076923077" y="714.5384615384615"/>
      <point x="238.84615384615384" y="714.5384615384615" type="curve" smooth="yes"/>
      <point x="203.0769230769231" y="714.5384615384615"/>
      <point x="173.84615384615384" y="685.7692307692307"/>
      <point x="173.84615384615384" y="656.0" type="curve" smooth="yes"/>
      <point x="173.84615384615384" y="635.6153846153846"/>
      <point x="186.76923076923077" y="612.7692307692307"/>
      <point x="211.23076923076923" y="588.3076923076923" type="curve" smooth="yes"/>
      <point x="250.30769230769232" y="549.2307692307693"/>
      <point x="282.61538461538464" y="468.0769230769231"/>
      <point x="282.61538461538464" y="387.46153846153845" type="curve" smooth="yes"/>
      <point x="282.61538461538464" y="168.30769230769232"/>
      <point x="192.15384615384616" y="-41.92307692307692"/>
      <point x="14.846153846153847" y="-114.92307692307692" type="curve" smooth="yes"/>
      <point x="-17.615384615384613" y="-128.0769230769231"/>
      <point x="-62.84615384615385" y="-144.0769230769231"/>
      <point x="-62.84615384615385" y="-183.0" type="curve" smooth="yes"/>
      <point x="-62.84615384615385" y="-207.30769230769232"/>
      <point x="-44.0" y="-225.69230769230768"/>
    </contour>
  </outline>
</glyph>
<glyph name="comma" format="2">
  <advance width="384.3076923076923"/>
  <unicode hex="002C"/>
  <outline>
    <contour>
      <point x="99.84615384615384" y="-132.30769230769232" type="curve" smooth="yes"/>
      <point x="116.76923076923077" y="-132.30769230769232"/>
      <point x="138.6153846153846" y="-119.3076923076923"/>
      <point x="164.53846153846155" y="-93.38461538461539" type="curve" smooth="yes"/>
      <point x="202.30769230769232" y="-55.61538461538461"/>
      <point x="264.53846153846155" y="26.153846153846153"/>
      <point x="264.53846153846155" y="84.38461538461539" type="curve" smooth="yes"/>
      <point x="264.53846153846155" y="135.6153846153846"/>
      <point x="232.69230769230768" y="161.46153846153845"/>
      <point x="184.46153846153845" y="161.46153846153845" type="curve" smooth="yes"/>
      <point x="133.23076923076923" y="161.46153846153845"/>
      <point x="79.61538461538461" y="125.15384615384616"/>
      <point x="79.61538461538461" y="68.53846153846155" type="curve" smooth="yes"/>
      <point x="79.61538461538461" y="34.23076923076923"/>
      <point x="100.07692307692308" y="5.384615384615383"/>
      <point x="133.46153846153845" y="-3.0769230769230766" type="curve"/>
      <point x="119.0" y="-20.769230769230774"/>
      <point x="104.46153846153845" y="-36.38461538461539"/>
      <point x="71.15384615384616" y="-70.6923076923077" type="curve" smooth="yes"/>
      <point x="64.15384615384616" y="-78.6923076923077"/>
      <point x="61.15384615384616" y="-86.6923076923077"/>
      <point x="61.15384615384616" y="-97.61538461538461" type="curve" smooth="yes"/>
      <point x="61.15384615384616" y="-114.46153846153847"/>
      <point x="75.07692307692308" y="-132.30769230769232"/>
    </contour>
  </outline>
</glyph>
<glyph name="period" format="2">
  <advance width="384.3076923076923"/>
  <unicode hex="002E"/>
  <outline>
    <contour>
      <point x="142.69230769230768" y="-10.923076923076923" type="curve" smooth="yes"/>
      <point x="197.92307692307693" y="-10.923076923076923"/>
      <point x="252.0769230769231" y="33.30769230769231"/>
      <point x="252.0769230769231" y="88.92307692307692" type="curve" smooth="yes"/>
      <point x="252.0769230769231" y="133.15384615384616"/>
      <point x="216.30769230769232" y="160.53846153846155"/>
      <point x="173.46153846153845" y="160.53846153846155" type="curve" smooth="yes"/>
      <point x="120.23076923076923" y="160.53846153846155"/>
      <point x="67.53846153846153" y="117.76923076923077"/>
      <point x="67.53846153846153" y="62.61538461538461" type="curve" smooth="yes"/>
      <point x="67.53846153846153" y="18.384615384615383"/>
      <point x="97.38461538461539" y="-10.923076923076923"/>
    </contour>
  </outline>
</glyph>
<glyph name="colon" format="2">
  <advance width="384.3076923076923"/>
  <unicode hex="003A"/>
  <outline>
    <contour>
      <point x="173.69230769230768" y="245.6153846153846" type="curve" smooth="yes"/>
      <point x="230.3846153846154" y="245.6153846153846"/>
      <point x="283.0769230769231" y="289.84615384615387"/>
      <point x="283.0769230769231" y="344.0" type="curve" smooth="yes"/>
      <point x="283.0769230769231" y="388.2307692307692"/>
      <point x="247.30769230769232" y="416.0769230769231"/>
      <point x="204.46153846153845" y="416.0769230769231" type="curve" smooth="yes"/>
      <point x="151.23076923076923" y="416.0769230769231"/>
      <point x="98.07692307692308" y="374.3076923076923"/>
      <point x="98.07692307692308" y="317.6923076923077" type="curve" smooth="yes"/>
      <point x="98.07692307692308" y="273.46153846153845"/>
      <point x="128.3846153846154" y="245.6153846153846"/>
    </contour>
    <contour>
      <point x="142.69230769230768" y="-10.923076923076923" type="curve" smooth="yes"/>
      <point x="197.92307692307693" y="-10.923076923076923"/>
      <point x="252.0769230769231" y="33.30769230769231"/>
      <point x="252.0769230769231" y="88.92307692307692" type="curve" smooth="yes"/>
      <point x="252.0769230769231" y="133.15384615384616"/>
      <point x="216.30769230769232" y="160.53846153846155"/>
      <point x="173.46153846153845" y="160.53846153846155" type="curve" smooth="yes"/>
      <point x="120.23076923076923" y="160.53846153846155"/>
      <point x="67.53846153846153" y="117.76923076923077"/>
      <point x="67.53846153846153" y="62.61538461538461" type="curve" smooth="yes"/>
      <point x="67.53846153846153" y="18.384615384615383"/>
      <point x="97.38461538461539" y="-10.923076923076923"/>
    </contour>
  </outline>
</glyph>
<glyph name="semicolon" format="2">
  <advance width="384.3076923076923"/>
  <unicode hex="003B"/>
  <outline>
    <contour>
      <point x="101.6923076923077" y="-132.30769230769232" type="curve" smooth="yes"/>
      <point x="119.07692307692308" y="-132.30769230769232"/>
      <point x="140.92307692307693" y="-118.84615384615384"/>
      <point x="166.3846153846154" y="-93.38461538461539" type="curve" smooth="yes"/>
      <point x="204.6153846153846" y="-55.61538461538461"/>
      <point x="266.38461538461536" y="26.153846153846153"/>
      <point x="266.38461538461536" y="84.38461538461539" type="curve" smooth="yes"/>
      <point x="266.38461538461536" y="135.6153846153846"/>
      <point x="234.53846153846155" y="161.46153846153845"/>
      <point x="186.30769230769232" y="161.46153846153845" type="curve" smooth="yes"/>
      <point x="135.07692307692307" y="161.46153846153845"/>
      <point x="81.92307692307692" y="125.15384615384616"/>
      <point x="81.92307692307692" y="68.53846153846155" type="curve" smooth="yes"/>
      <point x="81.92307692307692" y="34.23076923076923"/>
      <point x="102.38461538461539" y="5.384615384615383"/>
      <point x="135.30769230769232" y="-3.0769230769230766" type="curve"/>
      <point x="120.84615384615384" y="-20.769230769230774"/>
      <point x="106.3076923076923" y="-36.38461538461539"/>
      <point x="75.3076923076923" y="-68.38461538461539" type="curve" smooth="yes"/>
      <point x="65.53846153846153" y="-78.6923076923077"/>
      <point x="63.0" y="-86.6923076923077"/>
      <point x="63.0" y="-97.61538461538461" type="curve" smooth="yes"/>
      <point x="63.0" y="-114.46153846153847"/>
      <point x="77.38461538461539" y="-132.30769230769232"/>
    </contour>
    <contour>
      <point x="185.07692307692307" y="245.6153846153846" type="curve" smooth="yes"/>
      <point x="240.30769230769232" y="245.6153846153846"/>
      <point x="294.46153846153845" y="289.84615384615387"/>
      <point x="294.46153846153845" y="344.0" type="curve" smooth="yes"/>
      <point x="294.46153846153845" y="388.2307692307692"/>
      <point x="258.6923076923077" y="416.0769230769231"/>
      <point x="215.3846153846154" y="416.0769230769231" type="curve" smooth="yes"/>
      <point x="162.6153846153846" y="416.0769230769231"/>
      <point x="109.46153846153845" y="374.3076923076923"/>
      <point x="109.46153846153845" y="317.6923076923077" type="curve" smooth="yes"/>
      <point x="109.46153846153845" y="273.46153846153845"/>
      <point x="139.76923076923077" y="245.6153846153846"/>
    </contour>
  </outline>
</glyph>
<glyph name="uni060C" format="2">
  <advance width="399.38461538461536"/>
  <unicode hex="060C"/>
  <outline>
    <contour>
      <point x="171.0769230769231" y="-8.0" type="curve" smooth="yes"/>
      <point x="222.30769230769232" y="-8.0"/>
      <point x="275.9230769230769" y="28.769230769230766"/>
      <point x="275.9230769230769" y="84.92307692307692" type="curve" smooth="yes"/>
      <point x="275.9230769230769" y="119.23076923076923"/>
      <point x="255.46153846153845" y="149.53846153846155"/>
      <point x="222.07692307692307" y="158.0" type="curve"/>
      <point x="231.0" y="169.23076923076923"/>
      <point x="243.84615384615384" y="180.0769230769231"/>
      <point x="284.38461538461536" y="225.6153846153846" type="curve" smooth="yes"/>
      <point x="291.38461538461536" y="233.6153846153846"/>
      <point x="294.38461538461536" y="241.6153846153846"/>
      <point x="294.38461538461536" y="252.53846153846155" type="curve" smooth="yes"/>
      <point x="294.38461538461536" y="269.8461538461538"/>
      <point x="280.46153846153845" y="287.2307692307692"/>
      <point x="255.69230769230768" y="287.2307692307692" type="curve" smooth="yes"/>
      <point x="238.76923076923077" y="287.2307692307692"/>
      <point x="216.3846153846154" y="273.7692307692308"/>
      <point x="191.46153846153845" y="247.30769230769232" type="curve" smooth="yes"/>
      <point x="154.23076923076923" y="208.53846153846155"/>
      <point x="91.0" y="127.76923076923077"/>
      <point x="91.0" y="69.07692307692308" type="curve" smooth="yes"/>
      <point x="91.0" y="18.307692307692307"/>
      <point x="122.84615384615384" y="-8.0"/>
    </contour>
  </outline>
</glyph>
<glyph name="uni061B" format="2">
  <advance width="384.3076923076923"/>
  <unicode hex="061B"/>
  <outline>
    <contour>
      <point x="202.46153846153845" y="281.3076923076923" type="curve" smooth="yes"/>
      <point x="253.69230769230768" y="281.3076923076923"/>
      <point x="307.3076923076923" y="317.61538461538464"/>
      <point x="307.3076923076923" y="374.2307692307692" type="curve" smooth="yes"/>
      <point x="307.3076923076923" y="408.53846153846155"/>
      <point x="286.84615384615387" y="438.38461538461536"/>
      <point x="253.46153846153845" y="446.8461538461538" type="curve"/>
      <point x="261.9230769230769" y="457.61538461538464"/>
      <point x="273.38461538461536" y="467.53846153846155"/>
      <point x="315.7692307692308" y="514.4615384615385" type="curve" smooth="yes"/>
      <point x="322.7692307692308" y="522.4615384615385"/>
      <point x="325.7692307692308" y="530.9230769230769"/>
      <point x="325.7692307692308" y="541.8461538461538" type="curve" smooth="yes"/>
      <point x="325.7692307692308" y="558.2307692307693"/>
      <point x="311.84615384615387" y="576.0769230769231"/>
      <point x="287.0769230769231" y="576.0769230769231" type="curve" smooth="yes"/>
      <point x="270.15384615384613" y="576.0769230769231"/>
      <point x="247.30769230769232" y="563.0769230769231"/>
      <point x="222.3846153846154" y="536.1538461538462" type="curve" smooth="yes"/>
      <point x="185.6153846153846" y="497.38461538461536"/>
      <point x="122.38461538461539" y="416.61538461538464"/>
      <point x="122.38461538461539" y="358.38461538461536" type="curve" smooth="yes"/>
      <point x="122.38461538461539" y="307.15384615384613"/>
      <point x="154.23076923076923" y="281.3076923076923"/>
    </contour>
    <contour>
      <point x="142.69230769230768" y="-10.923076923076923" type="curve" smooth="yes"/>
      <point x="197.92307692307693" y="-10.923076923076923"/>
      <point x="252.0769230769231" y="33.30769230769231"/>
      <point x="252.0769230769231" y="88.92307692307692" type="curve" smooth="yes"/>
      <point x="252.0769230769231" y="133.15384615384616"/>
      <point x="216.30769230769232" y="160.53846153846155"/>
      <point x="173.46153846153845" y="160.53846153846155" type="curve" smooth="yes"/>
      <point x="120.23076923076923" y="160.53846153846155"/>
      <point x="67.53846153846153" y="117.76923076923077"/>
      <point x="67.53846153846153" y="62.61538461538461" type="curve" smooth="yes"/>
      <point x="67.53846153846153" y="18.384615384615383"/>
      <point x="97.38461538461539" y="-10.923076923076923"/>
    </contour>
  </outline>
</glyph>
<glyph name="uni061F" format="2">
  <advance width="479.0"/>
  <unicode hex="061F"/>
  <outline>
    <contour>
      <point x="219.0" y="211.0" type="curve" smooth="yes"/>
      <point x="237.3846153846154" y="211.0"/>
      <point x="258.6923076923077" y="219.92307692307693"/>
      <point x="273.61538461538464" y="238.30769230769232" type="curve" smooth="yes"/>
      <point x="298.15384615384613" y="268.3076923076923"/>
      <point x="309.2307692307692" y="297.9230769230769"/>
      <point x="309.2307692307692" y="334.0" type="curve" smooth="yes"/>
      <point x="309.2307692307692" y="371.0"/>
      <point x="294.6923076923077" y="399.0"/>
      <point x="273.0769230769231" y="434.0" type="curve" smooth="yes"/>
      <point x="255.53846153846155" y="462.46153846153845"/>
      <point x="245.0769230769231" y="484.0"/>
      <point x="245.0769230769231" y="519.0" type="curve" smooth="yes"/>
      <point x="245.0769230769231" y="567.8461538461538"/>
      <point x="287.7692307692308" y="604.6153846153846"/>
      <point x="335.0" y="604.6153846153846" type="curve" smooth="yes"/>
      <point x="362.0" y="604.6153846153846"/>
      <point x="385.0" y="591.6153846153846"/>
      <point x="405.0" y="578.6153846153846" type="curve" smooth="yes"/>
      <point x="426.0" y="564.6153846153846"/>
      <point x="444.0" y="551.6153846153846"/>
      <point x="461.0" y="551.6153846153846" type="curve" smooth="yes"/>
      <point x="479.0" y="551.6153846153846"/>
      <point x="512.0" y="595.6153846153846"/>
      <point x="512.0" y="633.6153846153846" type="curve" smooth="yes"/>
      <point x="512.0" y="644.4615384615385"/>
      <point x="509.53846153846155" y="657.3846153846154"/>
      <point x="495.0" y="669.0" type="curve" smooth="yes"/>
      <point x="455.61538461538464" y="700.1538461538462"/>
      <point x="411.0" y="714.0"/>
      <point x="349.0" y="714.0" type="curve" smooth="yes"/>
      <point x="202.69230769230768" y="714.0"/>
      <point x="116.46153846153845" y="618.9230769230769"/>
      <point x="116.46153846153845" y="531.6923076923077" type="curve" smooth="yes"/>
      <point x="116.46153846153845" y="471.53846153846155"/>
      <point x="135.23076923076923" y="442.9230769230769"/>
      <point x="158.0" y="404.53846153846155" type="curve" smooth="yes"/>
      <point x="172.3846153846154" y="380.53846153846155"/>
      <point x="192.0" y="353.2307692307692"/>
      <point x="192.0" y="325.0" type="curve" smooth="yes"/>
      <point x="192.0" y="301.0"/>
      <point x="188.0" y="284.0"/>
      <point x="182.0" y="266.0" type="curve" smooth="yes"/>
      <point x="179.0" y="256.0"/>
      <point x="174.0" y="243.0"/>
      <point x="174.0" y="230.0" type="curve" smooth="yes"/>
      <point x="174.0" y="212.0"/>
      <point x="203.0" y="211.0"/>
    </contour>
    <contour>
      <point x="151.6153846153846" y="-19.846153846153847" type="curve" smooth="yes"/>
      <point x="213.76923076923077" y="-19.846153846153847"/>
      <point x="273.84615384615387" y="28.846153846153847"/>
      <point x="273.84615384615387" y="89.92307692307692" type="curve" smooth="yes"/>
      <point x="273.84615384615387" y="138.6153846153846"/>
      <point x="233.15384615384616" y="169.9230769230769"/>
      <point x="185.84615384615384" y="169.9230769230769" type="curve" smooth="yes"/>
      <point x="127.15384615384616" y="169.9230769230769"/>
      <point x="68.53846153846153" y="122.23076923076923"/>
      <point x="68.53846153846153" y="61.61538461538461" type="curve" smooth="yes"/>
      <point x="68.53846153846153" y="12.461538461538462"/>
      <point x="101.84615384615384" y="-19.846153846153847"/>
    </contour>
  </outline>
</glyph>
<glyph name="uni0660" format="2">
  <advance width="290.2307692307692"/>
  <unicode hex="0660"/>
  <outline>
    <contour>
      <point x="71.53846153846155" y="397.7692307692308" type="curve" smooth="yes"/>
      <point x="71.53846153846155" y="350.61538461538464"/>
      <point x="111.76923076923077" y="278.15384615384613"/>
      <point x="143.53846153846155" y="278.15384615384613" type="curve" smooth="yes"/>
      <point x="171.30769230769232" y="278.15384615384613"/>
      <point x="222.46153846153845" y="296.53846153846155"/>
      <point x="222.46153846153845" y="327.3076923076923" type="curve" smooth="yes"/>
      <point x="222.46153846153845" y="385.38461538461536"/>
      <point x="189.69230769230768" y="457.84615384615387"/>
      <point x="151.46153846153845" y="457.84615384615387" type="curve" smooth="yes"/>
      <point x="117.23076923076923" y="457.84615384615387"/>
      <point x="71.53846153846155" y="436.0"/>
    </contour>
  </outline>
</glyph>
<glyph name="uni0661" format="2">
  <advance width="367.9230769230769"/>
  <unicode hex="0661"/>
  <outline>
    <contour>
      <point x="177.46153846153845" y="124.76923076923077" type="curve" smooth="yes"/>
      <point x="207.69230769230768" y="124.76923076923077"/>
      <point x="229.46153846153845" y="139.15384615384616"/>
      <point x="241.84615384615384" y="163.0" type="curve" smooth="yes"/>
      <point x="257.6923076923077" y="192.76923076923077"/>
      <point x="264.6923076923077" y="248.23076923076923"/>
      <point x="264.6923076923077" y="295.84615384615387" type="curve" smooth="yes"/>
      <point x="264.6923076923077" y="384.15384615384613"/>
      <point x="258.1538461538462" y="459.2307692307692"/>
      <point x="241.6153846153846" y="539.8461538461538" type="curve" smooth="yes"/>
      <point x="228.07692307692307" y="606.4615384615385"/>
      <point x="210.0" y="660.0769230769231"/>
      <point x="184.6153846153846" y="697.9230769230769" type="curve" smooth="yes"/>
      <point x="169.23076923076923" y="720.7692307692307"/>
      <point x="149.3846153846154" y="724.2307692307693"/>
      <point x="128.53846153846155" y="724.2307692307693" type="curve" smooth="yes"/>
      <point x="92.84615384615384" y="724.2307692307693"/>
      <point x="48.769230769230774" y="696.0"/>
      <point x="48.769230769230774" y="656.8461538461538" type="curve" smooth="yes"/>
      <point x="48.769230769230774" y="638.0"/>
      <point x="54.230769230769226" y="620.6153846153846"/>
      <point x="65.15384615384616" y="601.2307692307693" type="curve" smooth="yes"/>
      <point x="91.15384615384616" y="553.7692307692307"/>
      <point x="108.07692307692308" y="495.53846153846155"/>
      <point x="119.6923076923077" y="441.2307692307692" type="curve" smooth="yes"/>
      <point x="130.30769230769232" y="392.38461538461536"/>
      <point x="140.84615384615384" y="329.61538461538464"/>
      <point x="140.84615384615384" y="284.84615384615387" type="curve" smooth="yes"/>
      <point x="140.84615384615384" y="257.3076923076923"/>
      <point x="139.84615384615384" y="226.3846153846154"/>
      <point x="137.84615384615384" y="207.92307692307693" type="curve" smooth="yes"/>
      <point x="136.30769230769232" y="193.84615384615384"/>
      <point x="133.84615384615384" y="178.84615384615384"/>
      <point x="133.84615384615384" y="163.0" type="curve" smooth="yes"/>
      <point x="133.84615384615384" y="140.6153846153846"/>
      <point x="150.69230769230768" y="124.76923076923077"/>
    </contour>
  </outline>
</glyph>
<glyph name="uni0662" format="2">
  <advance width="496.3076923076923"/>
  <unicode hex="0662"/>
  <outline>
    <contour>
      <point x="441.1538461538462" y="709.6923076923077" type="curve" smooth="yes"/>
      <point x="423.3076923076923" y="709.6923076923077"/>
      <point x="407.9230769230769" y="701.7692307692307"/>
      <point x="392.53846153846155" y="683.3076923076923" type="curve" smooth="yes"/>
      <point x="362.0769230769231" y="646.1538461538462"/>
      <point x="335.46153846153845" y="626.0"/>
      <point x="289.84615384615387" y="626.0" type="curve" smooth="yes"/>
      <point x="255.30769230769232" y="626.0"/>
      <point x="212.30769230769232" y="638.0"/>
      <point x="186.23076923076923" y="660.2307692307693" type="curve"/>
      <point x="178.15384615384616" y="674.8461538461538"/>
      <point x="170.6153846153846" y="687.9230769230769"/>
      <point x="162.53846153846155" y="698.4615384615385" type="curve" smooth="yes"/>
      <point x="147.69230769230768" y="717.7692307692307"/>
      <point x="127.84615384615384" y="724.2307692307693"/>
      <point x="111.0" y="724.2307692307693" type="curve" smooth="yes"/>
      <point x="71.84615384615384" y="724.2307692307693"/>
      <point x="32.69230769230769" y="696.0"/>
      <point x="32.69230769230769" y="661.3076923076923" type="curve" smooth="yes"/>
      <point x="32.69230769230769" y="638.0"/>
      <point x="37.15384615384615" y="620.6923076923077"/>
      <point x="49.07692307692308" y="602.3076923076923" type="curve" smooth="yes"/>
      <point x="114.07692307692308" y="501.9230769230769"/>
      <point x="140.46153846153845" y="410.3076923076923"/>
      <point x="142.46153846153845" y="284.84615384615387" type="curve" smooth="yes"/>
      <point x="142.46153846153845" y="256.7692307692308"/>
      <point x="141.46153846153845" y="226.3846153846154"/>
      <point x="139.46153846153845" y="207.92307692307693" type="curve" smooth="yes"/>
      <point x="137.9230769230769" y="193.84615384615384"/>
      <point x="136.46153846153845" y="178.84615384615384"/>
      <point x="136.46153846153845" y="163.0" type="curve" smooth="yes"/>
      <point x="136.46153846153845" y="140.6153846153846"/>
      <point x="157.76923076923077" y="124.76923076923077"/>
      <point x="184.53846153846155" y="124.76923076923077" type="curve" smooth="yes"/>
      <point x="212.76923076923077" y="124.76923076923077"/>
      <point x="230.53846153846155" y="139.15384615384616"/>
      <point x="243.46153846153845" y="163.0" type="curve" smooth="yes"/>
      <point x="259.3076923076923" y="192.23076923076923"/>
      <point x="266.3076923076923" y="248.23076923076923"/>
      <point x="266.3076923076923" y="295.3076923076923" type="curve" smooth="yes"/>
      <point x="266.3076923076923" y="373.9230769230769"/>
      <point x="250.69230769230768" y="472.6923076923077"/>
      <point x="226.0769230769231" y="556.3076923076923" type="curve"/>
      <point x="259.0" y="529.9230769230769"/>
      <point x="294.9230769230769" y="518.4615384615385"/>
      <point x="333.38461538461536" y="518.4615384615385" type="curve" smooth="yes"/>
      <point x="384.8461538461538" y="518.4615384615385"/>
      <point x="429.38461538461536" y="541.4615384615385"/>
      <point x="462.9230769230769" y="583.2307692307693" type="curve" smooth="yes"/>
      <point x="476.8461538461538" y="600.6923076923077"/>
      <point x="486.3076923076923" y="616.0769230769231"/>
      <point x="486.3076923076923" y="650.7692307692307" type="curve" smooth="yes"/>
      <point x="486.3076923076923" y="686.9230769230769"/>
      <point x="466.46153846153845" y="709.6923076923077"/>
    </contour>
  </outline>
</glyph>
<glyph name="uni0663" format="2">
  <advance width="563.5384615384615"/>
  <unicode hex="0663"/>
  <outline>
    <contour>
      <point x="210.76923076923077" y="124.76923076923077" type="curve" smooth="yes"/>
      <point x="239.0" y="124.76923076923077"/>
      <point x="256.7692307692308" y="139.15384615384616"/>
      <point x="269.6923076923077" y="163.0" type="curve" smooth="yes"/>
      <point x="285.53846153846155" y="192.23076923076923"/>
      <point x="292.53846153846155" y="248.23076923076923"/>
      <point x="292.53846153846155" y="296.38461538461536" type="curve" smooth="yes"/>
      <point x="292.53846153846155" y="359.61538461538464"/>
      <point x="280.9230769230769" y="432.9230769230769"/>
      <point x="261.3076923076923" y="501.61538461538464" type="curve"/>
      <point x="262.8461538461538" y="501.61538461538464"/>
      <point x="265.7692307692308" y="502.0769230769231"/>
      <point x="268.6923076923077" y="502.53846153846155" type="curve" smooth="yes"/>
      <point x="294.8461538461538" y="507.46153846153845"/>
      <point x="317.0" y="520.0"/>
      <point x="337.1538461538462" y="539.1538461538462" type="curve"/>
      <point x="360.0769230769231" y="525.1538461538462"/>
      <point x="385.0" y="520.1538461538462"/>
      <point x="417.9230769230769" y="520.1538461538462" type="curve" smooth="yes"/>
      <point x="475.15384615384613" y="520.1538461538462"/>
      <point x="514.5384615384615" y="563.4615384615385"/>
      <point x="536.6153846153846" y="615.1538461538462" type="curve" smooth="yes"/>
      <point x="546.0769230769231" y="636.5384615384615"/>
      <point x="553.5384615384615" y="660.8461538461538"/>
      <point x="553.5384615384615" y="673.3076923076923" type="curve" smooth="yes"/>
      <point x="553.5384615384615" y="709.4615384615385"/>
      <point x="520.8461538461538" y="730.7692307692307"/>
      <point x="496.53846153846155" y="730.7692307692307" type="curve" smooth="yes"/>
      <point x="474.2307692307692" y="730.7692307692307"/>
      <point x="458.38461538461536" y="716.3846153846154"/>
      <point x="447.9230769230769" y="678.6923076923077" type="curve" smooth="yes"/>
      <point x="436.3076923076923" y="637.9230769230769"/>
      <point x="416.0769230769231" y="602.4615384615385"/>
      <point x="388.8461538461538" y="602.4615384615385" type="curve" smooth="yes"/>
      <point x="386.3076923076923" y="602.4615384615385"/>
      <point x="382.8461538461538" y="602.4615384615385"/>
      <point x="379.7692307692308" y="603.4615384615385" type="curve"/>
      <point x="382.2307692307692" y="607.8461538461538"/>
      <point x="384.1538461538462" y="612.6153846153846"/>
      <point x="385.61538461538464" y="616.9230769230769" type="curve" smooth="yes"/>
      <point x="394.0" y="635.5384615384615"/>
      <point x="398.0" y="650.6153846153846"/>
      <point x="398.0" y="672.2307692307693" type="curve" smooth="yes"/>
      <point x="398.0" y="700.0"/>
      <point x="366.7692307692308" y="721.3076923076923"/>
      <point x="337.53846153846155" y="721.3076923076923" type="curve" smooth="yes"/>
      <point x="316.6923076923077" y="721.3076923076923"/>
      <point x="296.9230769230769" y="711.8461538461538"/>
      <point x="287.9230769230769" y="687.0" type="curve" smooth="yes"/>
      <point x="272.15384615384613" y="644.4615384615385"/>
      <point x="254.23076923076923" y="606.1538461538462"/>
      <point x="233.23076923076923" y="601.0769230769231" type="curve" smooth="yes"/>
      <point x="230.69230769230768" y="600.6153846153846"/>
      <point x="228.15384615384616" y="600.1538461538462"/>
      <point x="226.0769230769231" y="600.6923076923077" type="curve"/>
      <point x="209.53846153846155" y="638.8461538461538"/>
      <point x="189.46153846153845" y="673.0"/>
      <point x="169.46153846153845" y="698.4615384615385" type="curve" smooth="yes"/>
      <point x="152.0769230769231" y="720.7692307692307"/>
      <point x="133.30769230769232" y="726.2307692307693"/>
      <point x="110.0" y="726.2307692307693" type="curve" smooth="yes"/>
      <point x="76.3076923076923" y="726.2307692307693"/>
      <point x="32.69230769230769" y="696.0"/>
      <point x="32.69230769230769" y="661.3076923076923" type="curve" smooth="yes"/>
      <point x="32.69230769230769" y="638.0"/>
      <point x="37.69230769230769" y="620.6923076923077"/>
      <point x="57.0" y="597.3846153846154" type="curve" smooth="yes"/>
      <point x="134.30769230769232" y="502.46153846153845"/>
      <point x="168.69230769230768" y="396.15384615384613"/>
      <point x="168.69230769230768" y="283.46153846153845" type="curve" smooth="yes"/>
      <point x="168.69230769230768" y="255.3846153846154"/>
      <point x="167.69230769230768" y="226.3846153846154"/>
      <point x="165.69230769230768" y="207.92307692307693" type="curve" smooth="yes"/>
      <point x="164.15384615384616" y="193.84615384615384"/>
      <point x="162.69230769230768" y="178.84615384615384"/>
      <point x="162.69230769230768" y="163.0" type="curve" smooth="yes"/>
      <point x="162.69230769230768" y="140.6153846153846"/>
      <point x="184.0" y="124.76923076923077"/>
    </contour>
  </outline>
</glyph>
<glyph name="uni0664" format="2">
  <advance width="420.6923076923077"/>
  <unicode hex="0664"/>
  <outline>
    <contour>
      <point x="308.15384615384613" y="127.15384615384616" type="curve" smooth="yes"/>
      <point x="368.53846153846155" y="127.15384615384616"/>
      <point x="405.3076923076923" y="149.46153846153845"/>
      <point x="405.3076923076923" y="197.0769230769231" type="curve" smooth="yes"/>
      <point x="405.3076923076923" y="235.30769230769232"/>
      <point x="388.46153846153845" y="253.6153846153846"/>
      <point x="363.61538461538464" y="253.6153846153846" type="curve" smooth="yes"/>
      <point x="334.3076923076923" y="253.6153846153846"/>
      <point x="320.7692307692308" y="250.6153846153846"/>
      <point x="291.3076923076923" y="250.6153846153846" type="curve" smooth="yes"/>
      <point x="231.6153846153846" y="250.6153846153846"/>
      <point x="191.9230769230769" y="274.61538461538464"/>
      <point x="191.9230769230769" y="304.46153846153845" type="curve" smooth="yes"/>
      <point x="191.9230769230769" y="329.2307692307692"/>
      <point x="211.30769230769232" y="360.3076923076923"/>
      <point x="248.92307692307693" y="393.0769230769231" type="curve" smooth="yes"/>
      <point x="277.3076923076923" y="418.3076923076923"/>
      <point x="310.38461538461536" y="433.3076923076923"/>
      <point x="310.38461538461536" y="458.46153846153845" type="curve" smooth="yes"/>
      <point x="310.38461538461536" y="479.84615384615387"/>
      <point x="303.84615384615387" y="491.3076923076923"/>
      <point x="273.9230769230769" y="502.3076923076923" type="curve" smooth="yes"/>
      <point x="234.53846153846155" y="516.7692307692307"/>
      <point x="198.46153846153845" y="532.0769230769231"/>
      <point x="179.23076923076923" y="546.3076923076923" type="curve"/>
      <point x="211.15384615384616" y="569.8461538461538"/>
      <point x="259.0769230769231" y="593.2307692307693"/>
      <point x="313.3076923076923" y="618.6153846153846" type="curve" smooth="yes"/>
      <point x="338.6923076923077" y="630.5384615384615"/>
      <point x="349.61538461538464" y="646.4615384615385"/>
      <point x="349.61538461538464" y="665.7692307692307" type="curve" smooth="yes"/>
      <point x="349.61538461538464" y="689.5384615384615"/>
      <point x="326.3076923076923" y="728.6923076923077"/>
      <point x="294.0769230769231" y="728.6923076923077" type="curve" smooth="yes"/>
      <point x="275.6923076923077" y="728.6923076923077"/>
      <point x="246.3846153846154" y="718.7692307692307"/>
      <point x="212.07692307692307" y="697.8461538461538" type="curve" smooth="yes"/>
      <point x="168.76923076923077" y="671.3846153846154"/>
      <point x="125.07692307692308" y="638.3076923076923"/>
      <point x="76.38461538461539" y="599.0" type="curve" smooth="yes"/>
      <point x="56.92307692307692" y="583.0"/>
      <point x="45.92307692307692" y="568.0769230769231"/>
      <point x="45.92307692307692" y="545.2307692307693" type="curve" smooth="yes"/>
      <point x="45.92307692307692" y="527.8461538461538"/>
      <point x="59.38461538461539" y="509.0"/>
      <point x="75.3076923076923" y="498.53846153846155" type="curve" smooth="yes"/>
      <point x="108.38461538461539" y="476.46153846153845"/>
      <point x="158.69230769230768" y="456.3076923076923"/>
      <point x="171.6153846153846" y="452.53846153846155" type="curve"/>
      <point x="106.76923076923077" y="409.7692307692308"/>
      <point x="51.69230769230769" y="355.0769230769231"/>
      <point x="51.69230769230769" y="279.7692307692308" type="curve" smooth="yes"/>
      <point x="51.69230769230769" y="185.46153846153845"/>
      <point x="179.53846153846155" y="127.15384615384616"/>
    </contour>
  </outline>
</glyph>
<glyph name="uni0665" format="2">
  <advance width="501.0769230769231"/>
  <unicode hex="0665"/>
  <outline>
    <contour>
      <point x="243.84615384615384" y="143.0769230769231" type="curve" smooth="yes"/>
      <point x="403.3076923076923" y="143.0769230769231"/>
      <point x="471.0769230769231" y="229.84615384615384"/>
      <point x="471.0769230769231" y="337.61538461538464" type="curve" smooth="yes"/>
      <point x="471.0769230769231" y="496.9230769230769"/>
      <point x="367.38461538461536" y="683.6923076923077"/>
      <point x="250.76923076923077" y="683.6923076923077" type="curve" smooth="yes"/>
      <point x="150.6153846153846" y="683.6923076923077"/>
      <point x="30.0" y="486.38461538461536"/>
      <point x="30.0" y="331.53846153846155" type="curve" smooth="yes"/>
      <point x="30.0" y="202.3846153846154"/>
      <point x="111.76923076923077" y="143.0769230769231"/>
    </contour>
    <contour>
      <point x="244.84615384615384" y="265.53846153846155" type="curve" smooth="yes"/>
      <point x="178.69230769230768" y="265.53846153846155"/>
      <point x="139.0769230769231" y="292.6923076923077"/>
      <point x="139.0769230769231" y="342.46153846153845" type="curve" smooth="yes"/>
      <point x="139.0769230769231" y="433.3076923076923"/>
      <point x="200.69230769230768" y="557.7692307692307"/>
      <point x="246.76923076923077" y="557.7692307692307" type="curve" smooth="yes"/>
      <point x="310.9230769230769" y="557.7692307692307"/>
      <point x="359.0769230769231" y="433.84615384615387"/>
      <point x="359.0769230769231" y="344.53846153846155" type="curve" smooth="yes"/>
      <point x="359.0769230769231" y="298.2307692307692"/>
      <point x="322.0" y="265.53846153846155"/>
    </contour>
  </outline>
</glyph>
<glyph name="uni0666" format="2">
  <advance width="508.0769230769231"/>
  <unicode hex="0666"/>
  <outline>
    <contour>
      <point x="407.0769230769231" y="124.76923076923077" type="curve" smooth="yes"/>
      <point x="446.2307692307692" y="124.76923076923077"/>
      <point x="485.38461538461536" y="153.0"/>
      <point x="485.38461538461536" y="188.23076923076923" type="curve" smooth="yes"/>
      <point x="485.38461538461536" y="209.9230769230769"/>
      <point x="480.46153846153845" y="228.3846153846154"/>
      <point x="468.46153846153845" y="248.84615384615384" type="curve" smooth="yes"/>
      <point x="448.46153846153845" y="282.7692307692308"/>
      <point x="433.53846153846155" y="314.7692307692308"/>
      <point x="420.0" y="350.0769230769231" type="curve" smooth="yes"/>
      <point x="395.0" y="414.38461538461536"/>
      <point x="380.9230769230769" y="501.38461538461536"/>
      <point x="380.46153846153845" y="569.4615384615385" type="curve" smooth="yes"/>
      <point x="380.46153846153845" y="598.0769230769231"/>
      <point x="381.9230769230769" y="622.6153846153846"/>
      <point x="383.46153846153845" y="641.0769230769231" type="curve" smooth="yes"/>
      <point x="385.0" y="655.1538461538462"/>
      <point x="386.46153846153845" y="670.1538461538462"/>
      <point x="386.46153846153845" y="686.5384615384615" type="curve" smooth="yes"/>
      <point x="386.46153846153845" y="708.3846153846154"/>
      <point x="365.15384615384613" y="724.2307692307693"/>
      <point x="338.38461538461536" y="724.2307692307693" type="curve" smooth="yes"/>
      <point x="300.53846153846155" y="724.2307692307693"/>
      <point x="283.9230769230769" y="703.6153846153846"/>
      <point x="274.38461538461536" y="683.0769230769231" type="curve"/>
      <point x="252.84615384615384" y="669.9230769230769"/>
      <point x="227.92307692307693" y="662.6923076923077"/>
      <point x="200.23076923076923" y="662.6923076923077" type="curve" smooth="yes"/>
      <point x="169.84615384615384" y="662.6923076923077"/>
      <point x="145.9230769230769" y="668.6153846153846"/>
      <point x="117.76923076923077" y="687.0" type="curve" smooth="yes"/>
      <point x="94.76923076923077" y="702.3076923076923"/>
      <point x="80.46153846153847" y="711.3076923076923"/>
      <point x="61.53846153846154" y="711.3076923076923" type="curve" smooth="yes"/>
      <point x="32.84615384615385" y="711.3076923076923"/>
      <point x="10.0" y="684.0"/>
      <point x="10.0" y="651.0769230769231" type="curve" smooth="yes"/>
      <point x="10.0" y="620.6923076923077"/>
      <point x="19.76923076923077" y="601.0"/>
      <point x="41.92307692307692" y="583.4615384615385" type="curve" smooth="yes"/>
      <point x="66.6923076923077" y="563.8461538461538"/>
      <point x="114.23076923076923" y="548.1538461538462"/>
      <point x="168.23076923076923" y="548.1538461538462" type="curve" smooth="yes"/>
      <point x="198.84615384615384" y="548.1538461538462"/>
      <point x="226.84615384615384" y="550.6153846153846"/>
      <point x="256.0769230769231" y="559.7692307692307" type="curve"/>
      <point x="256.0769230769231" y="553.9230769230769"/>
      <point x="256.0769230769231" y="542.0769230769231"/>
      <point x="256.0769230769231" y="536.7692307692307" type="curve" smooth="yes"/>
      <point x="256.0769230769231" y="462.3076923076923"/>
      <point x="273.2307692307692" y="360.84615384615387"/>
      <point x="298.61538461538464" y="276.53846153846155" type="curve" smooth="yes"/>
      <point x="313.6923076923077" y="225.9230769230769"/>
      <point x="332.7692307692308" y="180.84615384615384"/>
      <point x="354.46153846153845" y="151.07692307692307" type="curve" smooth="yes"/>
      <point x="368.84615384615387" y="131.23076923076923"/>
      <point x="389.6923076923077" y="124.76923076923077"/>
    </contour>
  </outline>
</glyph>
<glyph name="uni0667" format="2">
  <advance width="507.53846153846155"/>
  <unicode hex="0667"/>
  <outline>
    <contour>
      <point x="333.38461538461536" y="212.69230769230768" type="curve" smooth="yes"/>
      <point x="372.3076923076923" y="347.0769230769231"/>
      <point x="434.9230769230769" y="509.84615384615387"/>
      <point x="479.46153846153845" y="600.0" type="curve" smooth="yes"/>
      <point x="485.46153846153845" y="612.5384615384615"/>
      <point x="495.38461538461536" y="630.8461538461538"/>
      <point x="495.38461538461536" y="644.2307692307693" type="curve" smooth="yes"/>
      <point x="495.38461538461536" y="665.5384615384615"/>
      <point x="465.1538461538462" y="694.7692307692307"/>
      <point x="410.15384615384613" y="694.7692307692307" type="curve" smooth="yes"/>
      <point x="385.3076923076923" y="694.7692307692307"/>
      <point x="369.9230769230769" y="676.8461538461538"/>
      <point x="359.0" y="655.0" type="curve" smooth="yes"/>
      <point x="322.3076923076923" y="580.0"/>
      <point x="284.15384615384613" y="455.3076923076923"/>
      <point x="257.0769230769231" y="312.7692307692308" type="curve"/>
      <point x="215.0" y="500.84615384615387"/>
      <point x="170.15384615384616" y="645.6153846153846"/>
      <point x="145.0" y="671.8461538461538" type="curve" smooth="yes"/>
      <point x="131.6153846153846" y="685.2307692307693"/>
      <point x="120.23076923076923" y="691.6923076923077"/>
      <point x="90.46153846153845" y="691.6923076923077" type="curve" smooth="yes"/>
      <point x="50.30769230769231" y="691.6923076923077"/>
      <point x="12.153846153846153" y="668.3846153846154"/>
      <point x="12.153846153846153" y="645.0769230769231" type="curve" smooth="yes"/>
      <point x="12.153846153846153" y="632.6923076923077"/>
      <point x="17.076923076923077" y="624.6923076923077"/>
      <point x="26.53846153846154" y="607.8461538461538" type="curve" smooth="yes"/>
      <point x="53.61538461538461" y="559.4615384615385"/>
      <point x="119.76923076923077" y="395.0769230769231"/>
      <point x="178.76923076923077" y="200.30769230769232" type="curve" smooth="yes"/>
      <point x="192.6153846153846" y="154.6153846153846"/>
      <point x="215.0" y="141.15384615384616"/>
      <point x="248.15384615384616" y="141.15384615384616" type="curve" smooth="yes"/>
      <point x="290.7692307692308" y="141.15384615384616"/>
      <point x="315.0769230769231" y="151.07692307692307"/>
    </contour>
  </outline>
</glyph>
<glyph name="uni0668" format="2">
  <advance width="507.53846153846155"/>
  <unicode hex="0668"/>
  <outline>
    <contour>
      <point x="97.38461538461539" y="141.15384615384616" type="curve" smooth="yes"/>
      <point x="122.23076923076923" y="141.15384615384616"/>
      <point x="138.15384615384616" y="159.07692307692307"/>
      <point x="148.53846153846155" y="180.92307692307693" type="curve" smooth="yes"/>
      <point x="184.69230769230768" y="256.46153846153845"/>
      <point x="222.84615384615384" y="380.61538461538464"/>
      <point x="250.46153846153845" y="523.6923076923076" type="curve"/>
      <point x="292.53846153846155" y="335.0769230769231"/>
      <point x="338.38461538461536" y="190.76923076923077"/>
      <point x="362.0" y="164.6153846153846" type="curve" smooth="yes"/>
      <point x="374.9230769230769" y="149.69230769230768"/>
      <point x="387.3076923076923" y="144.23076923076923"/>
      <point x="417.0769230769231" y="144.23076923076923" type="curve" smooth="yes"/>
      <point x="457.2307692307692" y="144.23076923076923"/>
      <point x="495.38461538461536" y="167.53846153846155"/>
      <point x="495.38461538461536" y="190.84615384615384" type="curve" smooth="yes"/>
      <point x="495.38461538461536" y="202.69230769230768"/>
      <point x="490.46153846153845" y="211.23076923076923"/>
      <point x="481.0" y="228.0769230769231" type="curve" smooth="yes"/>
      <point x="453.9230769230769" y="275.46153846153845"/>
      <point x="387.7692307692308" y="440.3076923076923"/>
      <point x="328.7692307692308" y="635.6153846153846" type="curve" smooth="yes"/>
      <point x="314.9230769230769" y="681.3076923076923"/>
      <point x="293.0769230769231" y="694.7692307692307"/>
      <point x="259.38461538461536" y="694.7692307692307" type="curve" smooth="yes"/>
      <point x="216.76923076923077" y="694.7692307692307"/>
      <point x="191.92307692307693" y="684.3076923076923"/>
      <point x="174.15384615384616" y="624.3076923076923" type="curve" smooth="yes"/>
      <point x="134.69230769230768" y="488.84615384615387"/>
      <point x="78.46153846153847" y="321.9230769230769"/>
      <point x="27.53846153846154" y="235.9230769230769" type="curve" smooth="yes"/>
      <point x="20.53846153846154" y="224.3846153846154"/>
      <point x="12.153846153846153" y="205.6153846153846"/>
      <point x="12.153846153846153" y="191.69230769230768" type="curve" smooth="yes"/>
      <point x="12.153846153846153" y="170.3846153846154"/>
      <point x="42.38461538461539" y="141.15384615384616"/>
    </contour>
  </outline>
</glyph>
<glyph name="uni0669" format="2">
  <advance width="504.3076923076923"/>
  <unicode hex="0669"/>
  <outline>
    <contour>
      <point x="422.7692307692308" y="118.84615384615384" type="curve" smooth="yes"/>
      <point x="464.38461538461536" y="118.84615384615384"/>
      <point x="494.3076923076923" y="138.69230769230768"/>
      <point x="494.3076923076923" y="179.30769230769232" type="curve" smooth="yes"/>
      <point x="494.3076923076923" y="193.84615384615384"/>
      <point x="487.0769230769231" y="208.84615384615384"/>
      <point x="472.3076923076923" y="235.3846153846154" type="curve" smooth="yes"/>
      <point x="457.8461538461538" y="259.6923076923077"/>
      <point x="452.0769230769231" y="272.61538461538464"/>
      <point x="439.2307692307692" y="304.0" type="curve" smooth="yes"/>
      <point x="420.1538461538462" y="349.7692307692308"/>
      <point x="409.46153846153845" y="397.61538461538464"/>
      <point x="397.7692307692308" y="495.2307692307692" type="curve" smooth="yes"/>
      <point x="376.3076923076923" y="670.1538461538462"/>
      <point x="264.2307692307692" y="714.2307692307693"/>
      <point x="184.0" y="714.2307692307693" type="curve" smooth="yes"/>
      <point x="98.84615384615384" y="714.2307692307693"/>
      <point x="20.0" y="654.2307692307693"/>
      <point x="20.0" y="554.8461538461538" type="curve" smooth="yes"/>
      <point x="20.0" y="444.15384615384613"/>
      <point x="97.38461538461539" y="380.7692307692308"/>
      <point x="188.23076923076923" y="380.7692307692308" type="curve" smooth="yes"/>
      <point x="233.23076923076923" y="380.7692307692308"/>
      <point x="263.2307692307692" y="393.7692307692308"/>
      <point x="288.2307692307692" y="409.2307692307692" type="curve"/>
      <point x="294.2307692307692" y="353.15384615384613"/>
      <point x="302.2307692307692" y="292.0"/>
      <point x="313.7692307692308" y="249.92307692307693" type="curve" smooth="yes"/>
      <point x="325.3076923076923" y="207.46153846153845"/>
      <point x="344.38461538461536" y="163.07692307692307"/>
      <point x="362.3076923076923" y="145.6153846153846" type="curve" smooth="yes"/>
      <point x="379.15384615384613" y="129.23076923076923"/>
      <point x="397.0769230769231" y="118.84615384615384"/>
    </contour>
    <contour>
      <point x="209.0" y="486.84615384615387" type="curve" smooth="yes"/>
      <point x="156.30769230769232" y="486.84615384615387"/>
      <point x="128.0769230769231" y="513.5384615384615"/>
      <point x="128.0769230769231" y="554.8461538461538" type="curve" smooth="yes"/>
      <point x="128.0769230769231" y="586.2307692307693"/>
      <point x="146.30769230769232" y="613.0769230769231"/>
      <point x="180.07692307692307" y="613.0769230769231" type="curve" smooth="yes"/>
      <point x="207.23076923076923" y="613.0769230769231"/>
      <point x="264.84615384615387" y="598.9230769230769"/>
      <point x="273.38461538461536" y="504.38461538461536" type="curve"/>
      <point x="260.84615384615387" y="495.38461538461536"/>
      <point x="230.23076923076923" y="486.84615384615387"/>
    </contour>
  </outline>
</glyph>
<glyph name="uni066A" format="2">
  <advance width="581.6153846153846"/>
  <unicode hex="066A"/>
  <outline>
    <contour>
      <point x="206.3846153846154" y="147.3846153846154" type="curve" smooth="yes"/>
      <point x="222.23076923076923" y="147.3846153846154"/>
      <point x="236.15384615384616" y="156.30769230769232"/>
      <point x="241.6153846153846" y="171.69230769230768" type="curve" smooth="yes"/>
      <point x="253.0" y="203.3846153846154"/>
      <point x="255.6153846153846" y="240.07692307692307"/>
      <point x="277.0769230769231" y="289.0769230769231" type="curve" smooth="yes"/>
      <point x="294.61538461538464" y="329.3076923076923"/>
      <point x="322.7692307692308" y="386.0769230769231"/>
      <point x="350.0" y="428.8461538461538" type="curve" smooth="yes"/>
      <point x="383.1538461538462" y="480.53846153846155"/>
      <point x="431.8461538461538" y="541.1538461538462"/>
      <point x="472.8461538461538" y="577.6153846153846" type="curve" smooth="yes"/>
      <point x="489.7692307692308" y="592.5384615384615"/>
      <point x="505.38461538461536" y="609.6923076923077"/>
      <point x="508.1538461538462" y="626.4615384615385" type="curve" smooth="yes"/>
      <point x="509.0769230769231" y="636.6923076923077"/>
      <point x="509.0" y="648.6153846153846"/>
      <point x="502.53846153846155" y="660.4615384615385" type="curve" smooth="yes"/>
      <point x="494.46153846153845" y="691.4615384615385"/>
      <point x="460.0769230769231" y="720.3846153846154"/>
      <point x="425.6923076923077" y="720.3846153846154" type="curve" smooth="yes"/>
      <point x="414.2307692307692" y="720.3846153846154"/>
      <point x="396.3076923076923" y="706.6923076923077"/>
      <point x="379.0" y="691.2307692307693" type="curve" smooth="yes"/>
      <point x="338.9230769230769" y="656.6923076923076"/>
      <point x="292.61538461538464" y="602.1538461538462"/>
      <point x="254.15384615384616" y="533.5384615384615" type="curve" smooth="yes"/>
      <point x="202.0" y="440.9230769230769"/>
      <point x="138.53846153846155" y="302.8461538461538"/>
      <point x="138.53846153846155" y="224.6153846153846" type="curve" smooth="yes"/>
      <point x="138.53846153846155" y="180.53846153846155"/>
      <point x="167.76923076923077" y="147.3846153846154"/>
    </contour>
    <contour>
      <point x="123.38461538461539" y="521.9230769230769" type="curve" smooth="yes"/>
      <point x="151.69230769230768" y="521.9230769230769"/>
      <point x="202.30769230769232" y="540.8461538461538"/>
      <point x="202.30769230769232" y="572.1538461538462" type="curve" smooth="yes"/>
      <point x="202.30769230769232" y="631.3076923076923"/>
      <point x="169.53846153846155" y="704.8461538461538"/>
      <point x="130.76923076923077" y="704.8461538461538" type="curve" smooth="yes"/>
      <point x="95.46153846153847" y="704.8461538461538"/>
      <point x="49.23076923076923" y="682.4615384615385"/>
      <point x="49.23076923076923" y="643.6923076923077" type="curve" smooth="yes"/>
      <point x="49.23076923076923" y="596.0"/>
      <point x="90.53846153846153" y="521.9230769230769"/>
    </contour>
    <contour>
      <point x="449.1538461538462" y="206.30769230769232" type="curve" smooth="yes"/>
      <point x="476.9230769230769" y="206.30769230769232"/>
      <point x="528.0769230769231" y="224.69230769230768"/>
      <point x="528.0769230769231" y="256.0" type="curve" smooth="yes"/>
      <point x="528.0769230769231" y="315.15384615384613"/>
      <point x="494.7692307692308" y="388.6923076923077"/>
      <point x="456.0" y="388.6923076923077" type="curve" smooth="yes"/>
      <point x="420.6923076923077" y="388.6923076923077"/>
      <point x="375.0" y="366.8461538461538"/>
      <point x="375.0" y="328.0769230769231" type="curve" smooth="yes"/>
      <point x="375.0" y="279.84615384615387"/>
      <point x="416.3076923076923" y="206.30769230769232"/>
    </contour>
  </outline>
</glyph>
<glyph name="uni066B" format="2">
  <advance width="337.38461538461536"/>
  <unicode hex="066B"/>
  <outline>
    <contour>
      <point x="111.6923076923077" y="20.769230769230774" type="curve" smooth="yes"/>
      <point x="128.6153846153846" y="20.769230769230774"/>
      <point x="151.0" y="34.230769230769226"/>
      <point x="176.3846153846154" y="59.69230769230769" type="curve" smooth="yes"/>
      <point x="214.07692307692307" y="97.53846153846155"/>
      <point x="276.38461538461536" y="179.23076923076923"/>
      <point x="276.38461538461536" y="237.46153846153845" type="curve" smooth="yes"/>
      <point x="276.38461538461536" y="288.6923076923077"/>
      <point x="244.53846153846155" y="314.53846153846155"/>
      <point x="196.30769230769232" y="314.53846153846155" type="curve" smooth="yes"/>
      <point x="145.0769230769231" y="314.53846153846155"/>
      <point x="91.46153846153847" y="278.2307692307692"/>
      <point x="91.46153846153847" y="221.6153846153846" type="curve" smooth="yes"/>
      <point x="91.46153846153847" y="187.30769230769232"/>
      <point x="111.92307692307692" y="158.46153846153845"/>
      <point x="145.30769230769232" y="150.0" type="curve"/>
      <point x="130.84615384615384" y="132.30769230769232"/>
      <point x="115.23076923076923" y="117.76923076923077"/>
      <point x="83.0" y="82.38461538461539" type="curve" smooth="yes"/>
      <point x="75.53846153846153" y="74.38461538461539"/>
      <point x="73.0" y="66.38461538461539"/>
      <point x="73.0" y="55.46153846153846" type="curve" smooth="yes"/>
      <point x="73.0" y="38.61538461538461"/>
      <point x="86.92307692307692" y="20.769230769230774"/>
    </contour>
  </outline>
</glyph>
<glyph name="uni066C" format="2">
  <advance width="337.38461538461536"/>
  <unicode hex="066C"/>
  <outline>
    <contour>
      <point x="225.69230769230768" y="412.2307692307692" type="curve" smooth="yes"/>
      <point x="208.76923076923077" y="412.2307692307692"/>
      <point x="186.3846153846154" y="398.7692307692308"/>
      <point x="161.0" y="373.3076923076923" type="curve" smooth="yes"/>
      <point x="123.3076923076923" y="335.46153846153845"/>
      <point x="61.0" y="253.76923076923077"/>
      <point x="61.0" y="195.53846153846155" type="curve" smooth="yes"/>
      <point x="61.0" y="144.30769230769232"/>
      <point x="92.84615384615384" y="118.46153846153845"/>
      <point x="141.0769230769231" y="118.46153846153845" type="curve" smooth="yes"/>
      <point x="192.30769230769232" y="118.46153846153845"/>
      <point x="245.9230769230769" y="154.76923076923077"/>
      <point x="245.9230769230769" y="211.3846153846154" type="curve" smooth="yes"/>
      <point x="245.9230769230769" y="245.69230769230768"/>
      <point x="225.46153846153845" y="274.53846153846155"/>
      <point x="192.07692307692307" y="283.0" type="curve"/>
      <point x="206.53846153846155" y="300.6923076923077"/>
      <point x="222.15384615384616" y="315.2307692307692"/>
      <point x="254.3846153846154" y="350.61538461538464" type="curve" smooth="yes"/>
      <point x="261.38461538461536" y="358.61538461538464"/>
      <point x="264.38461538461536" y="366.61538461538464"/>
      <point x="264.38461538461536" y="377.53846153846155" type="curve" smooth="yes"/>
      <point x="264.38461538461536" y="394.38461538461536"/>
      <point x="250.46153846153845" y="412.2307692307692"/>
    </contour>
  </outline>
</glyph>
<glyph name="uni0780" format="2">
  <advance width="544.8461538461538"/>
  <unicode hex="0780"/>
  <outline>
    <contour>
      <point x="91.38461538461539" y="-10.461538461538462" type="curve" smooth="yes"/>
      <point x="180.3846153846154" y="-10.461538461538462"/>
      <point x="267.3076923076923" y="61.07692307692308"/>
      <point x="385.46153846153845" y="164.53846153846155" type="curve" smooth="yes"/>
      <point x="457.0" y="227.46153846153845"/>
      <point x="484.7692307692308" y="258.2307692307692"/>
      <point x="501.46153846153845" y="283.84615384615387" type="curve" smooth="yes"/>
      <point x="517.2307692307693" y="307.61538461538464"/>
      <point x="519.0769230769231" y="323.0"/>
      <point x="519.0769230769231" y="334.38461538461536" type="curve" smooth="yes"/>
      <point x="519.0769230769231" y="363.1538461538462"/>
      <point x="502.2307692307692" y="382.46153846153845"/>
      <point x="467.53846153846155" y="382.46153846153845" type="curve" smooth="yes"/>
      <point x="443.6923076923077" y="382.46153846153845"/>
      <point x="418.38461538461536" y="370.46153846153845"/>
      <point x="388.7692307692308" y="340.46153846153845" type="curve" smooth="yes"/>
      <point x="361.0" y="312.7692307692308"/>
      <point x="305.9230769230769" y="265.7692307692308"/>
      <point x="267.84615384615387" y="237.69230769230768" type="curve" smooth="yes"/>
      <point x="207.30769230769232" y="194.0769230769231"/>
      <point x="144.53846153846155" y="149.3846153846154"/>
      <point x="81.61538461538461" y="132.9230769230769" type="curve" smooth="yes"/>
      <point x="36.46153846153846" y="121.0"/>
      <point x="13.615384615384617" y="95.23076923076923"/>
      <point x="13.615384615384617" y="55.53846153846153" type="curve" smooth="yes"/>
      <point x="13.615384615384617" y="13.846153846153847"/>
      <point x="42.92307692307692" y="-10.461538461538462"/>
    </contour>
  </outline>
</glyph>
<glyph name="uni0781" format="2">
  <advance width="691.8461538461538"/>
  <unicode hex="0781"/>
  <outline>
    <contour>
      <point x="14.461538461538467" y="-77.53846153846153" type="curve" smooth="yes"/>
      <point x="42.30769230769231" y="-77.53846153846153"/>
      <point x="71.92307692307692" y="-68.61538461538461"/>
      <point x="118.3076923076923" y="-37.53846153846153" type="curve" smooth="yes"/>
      <point x="208.3846153846154" y="22.153846153846153"/>
      <point x="265.53846153846155" y="83.07692307692308"/>
      <point x="361.0" y="195.69230769230768" type="curve"/>
      <point x="367.38461538461536" y="195.69230769230768"/>
      <point x="372.46153846153845" y="195.69230769230768"/>
      <point x="386.2307692307692" y="195.69230769230768" type="curve" smooth="yes"/>
      <point x="442.0" y="196.76923076923077"/>
      <point x="511.15384615384613" y="208.0"/>
      <point x="589.5384615384615" y="255.84615384615384" type="curve" smooth="yes"/>
      <point x="650.4615384615385" y="292.61538461538464"/>
      <point x="676.8461538461538" y="324.84615384615387"/>
      <point x="676.8461538461538" y="368.53846153846155" type="curve" smooth="yes"/>
      <point x="676.8461538461538" y="392.8461538461538"/>
      <point x="657.0" y="415.1538461538462"/>
      <point x="622.7692307692307" y="415.1538461538462" type="curve" smooth="yes"/>
      <point x="604.3846153846154" y="415.1538461538462"/>
      <point x="584.0" y="404.2307692307692"/>
      <point x="560.6153846153846" y="381.8461538461538" type="curve" smooth="yes"/>
      <point x="527.7692307692307" y="351.0769230769231"/>
      <point x="490.1538461538462" y="336.0"/>
      <point x="453.61538461538464" y="332.53846153846155" type="curve"/>
      <point x="429.3076923076923" y="367.3076923076923"/>
      <point x="392.3076923076923" y="391.2307692307692"/>
      <point x="335.53846153846155" y="391.2307692307692" type="curve" smooth="yes"/>
      <point x="272.38461538461536" y="391.2307692307692"/>
      <point x="224.76923076923077" y="350.53846153846155"/>
      <point x="224.76923076923077" y="293.0" type="curve" smooth="yes"/>
      <point x="224.76923076923077" y="276.0"/>
      <point x="230.84615384615384" y="250.07692307692307"/>
      <point x="241.30769230769232" y="236.84615384615384" type="curve"/>
      <point x="215.53846153846155" y="202.0"/>
      <point x="161.46153846153845" y="143.9230769230769"/>
      <point x="81.3076923076923" y="100.07692307692308" type="curve" smooth="yes"/>
      <point x="50.30769230769231" y="83.53846153846155"/>
      <point x="24.923076923076923" y="72.46153846153847"/>
      <point x="-1.6923076923076934" y="63.923076923076934" type="curve" smooth="yes"/>
      <point x="-40.46153846153846" y="51.0"/>
      <point x="-59.84615384615385" y="28.69230769230768"/>
      <point x="-59.84615384615385" y="-5.07692307692308" type="curve" smooth="yes"/>
      <point x="-59.84615384615385" y="-51.69230769230769"/>
      <point x="-32.07692307692308" y="-77.53846153846153"/>
    </contour>
  </outline>
</glyph>
<glyph name="uni0782" format="2">
  <advance width="828.7692307692307"/>
  <unicode hex="0782"/>
  <outline>
    <contour>
      <point x="22.0" y="-77.53846153846153" type="curve" smooth="yes"/>
      <point x="43.46153846153847" y="-77.53846153846153"/>
      <point x="71.92307692307692" y="-69.53846153846153"/>
      <point x="107.61538461538461" y="-47.61538461538461" type="curve" smooth="yes"/>
      <point x="177.30769230769232" y="-4.923076923076923"/>
      <point x="284.0769230769231" y="95.92307692307692"/>
      <point x="352.9230769230769" y="198.15384615384616" type="curve"/>
      <point x="358.46153846153845" y="197.15384615384616"/>
      <point x="367.61538461538464" y="195.07692307692307"/>
      <point x="390.0" y="195.07692307692307" type="curve" smooth="yes"/>
      <point x="420.61538461538464" y="195.07692307692307"/>
      <point x="456.7692307692308" y="202.76923076923077"/>
      <point x="495.53846153846155" y="220.23076923076923" type="curve"/>
      <point x="521.0" y="196.23076923076923"/>
      <point x="545.5384615384615" y="186.15384615384616"/>
      <point x="593.0" y="186.15384615384616" type="curve" smooth="yes"/>
      <point x="678.6923076923077" y="186.15384615384616"/>
      <point x="745.9230769230769" y="222.0"/>
      <point x="791.4615384615385" y="291.2307692307692" type="curve" smooth="yes"/>
      <point x="805.7692307692307" y="313.0769230769231"/>
      <point x="813.7692307692307" y="336.3076923076923"/>
      <point x="813.7692307692307" y="360.46153846153845" type="curve" smooth="yes"/>
      <point x="813.7692307692307" y="398.3076923076923"/>
      <point x="793.0" y="417.0"/>
      <point x="761.0769230769231" y="417.0" type="curve" smooth="yes"/>
      <point x="734.6153846153846" y="417.0"/>
      <point x="717.6923076923076" y="407.6923076923077"/>
      <point x="698.7692307692307" y="377.61538461538464" type="curve" smooth="yes"/>
      <point x="670.0769230769231" y="334.46153846153845"/>
      <point x="652.0769230769231" y="307.3076923076923"/>
      <point x="628.6153846153846" y="307.3076923076923" type="curve" smooth="yes"/>
      <point x="624.6153846153846" y="307.3076923076923"/>
      <point x="615.6153846153846" y="307.3076923076923"/>
      <point x="612.5384615384615" y="307.3076923076923" type="curve"/>
      <point x="614.6153846153846" y="315.46153846153845"/>
      <point x="616.6923076923077" y="325.6923076923077"/>
      <point x="616.6923076923077" y="338.53846153846155" type="curve" smooth="yes"/>
      <point x="616.6923076923077" y="384.1538461538462"/>
      <point x="591.9230769230769" y="403.0"/>
      <point x="556.6923076923077" y="403.0" type="curve" smooth="yes"/>
      <point x="531.4615384615385" y="403.0"/>
      <point x="514.1538461538462" y="386.0769230769231"/>
      <point x="500.46153846153845" y="365.2307692307692" type="curve" smooth="yes"/>
      <point x="488.61538461538464" y="348.53846153846155"/>
      <point x="475.46153846153845" y="327.0769230769231"/>
      <point x="459.0769230769231" y="320.1538461538462" type="curve"/>
      <point x="444.1538461538462" y="355.9230769230769"/>
      <point x="397.9230769230769" y="391.2307692307692"/>
      <point x="340.38461538461536" y="391.2307692307692" type="curve" smooth="yes"/>
      <point x="273.6923076923077" y="391.2307692307692"/>
      <point x="225.76923076923077" y="343.61538461538464"/>
      <point x="225.76923076923077" y="293.0" type="curve" smooth="yes"/>
      <point x="225.76923076923077" y="277.0769230769231"/>
      <point x="230.30769230769232" y="249.76923076923077"/>
      <point x="240.30769230769232" y="234.3846153846154" type="curve"/>
      <point x="162.6153846153846" y="158.84615384615384"/>
      <point x="102.46153846153845" y="107.6923076923077"/>
      <point x="10.615384615384617" y="68.23076923076923" type="curve" smooth="yes"/>
      <point x="-37.53846153846154" y="47.46153846153847"/>
      <point x="-58.84615384615385" y="28.69230769230768"/>
      <point x="-58.84615384615385" y="-5.07692307692308" type="curve" smooth="yes"/>
      <point x="-58.84615384615385" y="-51.69230769230769"/>
      <point x="-31.076923076923077" y="-77.53846153846153"/>
    </contour>
  </outline>
</glyph>
<glyph name="uni0783" format="2">
  <advance width="652.4615384615385"/>
  <unicode hex="0783"/>
  <outline>
    <contour>
      <point x="20.769230769230774" y="-78.92307692307692" type="curve" smooth="yes"/>
      <point x="56.84615384615384" y="-78.92307692307692"/>
      <point x="119.0" y="-51.46153846153846"/>
      <point x="193.0769230769231" y="2.0" type="curve" smooth="yes"/>
      <point x="260.61538461538464" y="50.92307692307692"/>
      <point x="307.38461538461536" y="95.0"/>
      <point x="385.2307692307692" y="164.53846153846155" type="curve"/>
      <point x="429.7692307692308" y="151.46153846153845"/>
      <point x="474.46153846153845" y="144.84615384615384"/>
      <point x="514.6153846153846" y="144.84615384615384" type="curve" smooth="yes"/>
      <point x="581.0769230769231" y="144.84615384615384"/>
      <point x="620.2307692307693" y="165.69230769230768"/>
      <point x="620.2307692307693" y="198.92307692307693" type="curve" smooth="yes"/>
      <point x="620.2307692307693" y="238.6153846153846"/>
      <point x="582.9230769230769" y="251.23076923076923"/>
      <point x="534.1538461538462" y="253.53846153846155" type="curve" smooth="yes"/>
      <point x="521.3076923076923" y="254.0"/>
      <point x="509.84615384615387" y="255.0"/>
      <point x="501.53846153846155" y="257.0769230769231" type="curve"/>
      <point x="530.3846153846154" y="280.38461538461536"/>
      <point x="559.9230769230769" y="300.61538461538464"/>
      <point x="586.6923076923077" y="320.8461538461538" type="curve" smooth="yes"/>
      <point x="616.4615384615385" y="343.6923076923077"/>
      <point x="638.3846153846154" y="362.53846153846155"/>
      <point x="638.3846153846154" y="380.6923076923077" type="curve" smooth="yes"/>
      <point x="638.3846153846154" y="406.6923076923077"/>
      <point x="619.5384615384615" y="426.0"/>
      <point x="578.3846153846154" y="426.0" type="curve" smooth="yes"/>
      <point x="525.1538461538462" y="426.0"/>
      <point x="464.3076923076923" y="383.0"/>
      <point x="387.6923076923077" y="322.7692307692308" type="curve"/>
      <point x="376.6923076923077" y="334.9230769230769"/>
      <point x="340.46153846153845" y="357.3076923076923"/>
      <point x="308.6923076923077" y="357.3076923076923" type="curve" smooth="yes"/>
      <point x="260.3076923076923" y="357.3076923076923"/>
      <point x="236.76923076923077" y="330.0"/>
      <point x="236.76923076923077" y="291.84615384615387" type="curve" smooth="yes"/>
      <point x="236.76923076923077" y="264.0769230769231"/>
      <point x="249.30769230769232" y="240.69230769230768"/>
      <point x="270.1538461538462" y="222.07692307692307" type="curve"/>
      <point x="186.23076923076923" y="146.6153846153846"/>
      <point x="127.07692307692308" y="109.76923076923077"/>
      <point x="84.46153846153845" y="90.84615384615384" type="curve" smooth="yes"/>
      <point x="57.53846153846154" y="79.07692307692307"/>
      <point x="31.846153846153847" y="70.53846153846155"/>
      <point x="10.53846153846154" y="65.46153846153847" type="curve" smooth="yes"/>
      <point x="-35.61538461538461" y="54.53846153846155"/>
      <point x="-59.92307692307692" y="30.230769230769226"/>
      <point x="-59.92307692307692" y="-6.0" type="curve" smooth="yes"/>
      <point x="-59.92307692307692" y="-50.15384615384615"/>
      <point x="-31.615384615384613" y="-78.92307692307692"/>
    </contour>
  </outline>
</glyph>
<glyph name="uni0784" format="2">
  <advance width="749.1538461538462"/>
  <unicode hex="0784"/>
  <outline>
    <contour>
      <point x="301.2307692307692" y="-15.461538461538462" type="curve" smooth="yes"/>
      <point x="490.84615384615387" y="-15.461538461538462"/>
      <point x="692.9230769230769" y="97.76923076923077"/>
      <point x="692.9230769230769" y="272.1538461538462" type="curve" smooth="yes"/>
      <point x="692.9230769230769" y="333.53846153846155"/>
      <point x="651.0769230769231" y="382.0"/>
      <point x="561.9230769230769" y="382.0" type="curve" smooth="yes"/>
      <point x="500.3076923076923" y="382.0"/>
      <point x="430.53846153846155" y="347.46153846153845"/>
      <point x="399.9230769230769" y="322.7692307692308" type="curve"/>
      <point x="375.53846153846155" y="338.8461538461538"/>
      <point x="328.9230769230769" y="353.38461538461536"/>
      <point x="282.61538461538464" y="353.38461538461536" type="curve" smooth="yes"/>
      <point x="136.69230769230768" y="353.38461538461536"/>
      <point x="50.84615384615385" y="271.61538461538464"/>
      <point x="50.84615384615385" y="166.07692307692307" type="curve" smooth="yes"/>
      <point x="50.84615384615385" y="54.38461538461539"/>
      <point x="154.07692307692307" y="-15.461538461538462"/>
    </contour>
    <contour>
      <point x="226.15384615384616" y="107.07692307692308" type="curve"/>
      <point x="208.15384615384616" y="117.76923076923077"/>
      <point x="190.07692307692307" y="134.76923076923077"/>
      <point x="190.07692307692307" y="159.76923076923077" type="curve" smooth="yes"/>
      <point x="190.07692307692307" y="207.0"/>
      <point x="231.46153846153845" y="236.76923076923077"/>
      <point x="276.9230769230769" y="236.76923076923077" type="curve" smooth="yes"/>
      <point x="283.46153846153845" y="236.76923076923077"/>
      <point x="299.6923076923077" y="234.15384615384616"/>
      <point x="304.7692307692308" y="232.07692307692307" type="curve"/>
      <point x="281.53846153846155" y="210.76923076923077"/>
      <point x="233.6153846153846" y="134.23076923076923"/>
    </contour>
    <contour>
      <point x="335.3076923076923" y="96.15384615384616" type="curve"/>
      <point x="362.61538461538464" y="156.23076923076923"/>
      <point x="456.38461538461536" y="266.7692307692308"/>
      <point x="527.0769230769231" y="266.7692307692308" type="curve" smooth="yes"/>
      <point x="540.2307692307693" y="266.7692307692308"/>
      <point x="549.4615384615385" y="261.15384615384613"/>
      <point x="549.4615384615385" y="247.69230769230768" type="curve" smooth="yes"/>
      <point x="549.4615384615385" y="185.53846153846155"/>
      <point x="463.84615384615387" y="114.0"/>
    </contour>
  </outline>
</glyph>
<glyph name="uni0785" format="2">
  <advance width="553.9230769230769"/>
  <unicode hex="0785"/>
  <outline>
    <contour>
      <point x="16.846153846153847" y="-79.38461538461539" type="curve" smooth="yes"/>
      <point x="84.07692307692308" y="-79.38461538461539"/>
      <point x="170.76923076923077" y="-27.46153846153846"/>
      <point x="329.53846153846155" y="85.46153846153847" type="curve" smooth="yes"/>
      <point x="431.9230769230769" y="157.84615384615384"/>
      <point x="483.38461538461536" y="205.84615384615384"/>
      <point x="515.3846153846154" y="245.15384615384616" type="curve" smooth="yes"/>
      <point x="533.3076923076923" y="266.6923076923077"/>
      <point x="542.6923076923077" y="288.46153846153845"/>
      <point x="542.6923076923077" y="307.2307692307692" type="curve" smooth="yes"/>
      <point x="542.6923076923077" y="332.53846153846155"/>
      <point x="524.8461538461538" y="351.38461538461536"/>
      <point x="493.61538461538464" y="351.38461538461536" type="curve" smooth="yes"/>
      <point x="475.6923076923077" y="351.38461538461536"/>
      <point x="449.38461538461536" y="336.46153846153845"/>
      <point x="419.0769230769231" y="306.61538461538464" type="curve" smooth="yes"/>
      <point x="393.61538461538464" y="281.15384615384613"/>
      <point x="369.61538461538464" y="259.0769230769231"/>
      <point x="354.9230769230769" y="246.3846153846154" type="curve"/>
      <point x="340.46153846153845" y="252.30769230769232"/>
      <point x="330.7692307692308" y="268.46153846153845"/>
      <point x="330.7692307692308" y="286.7692307692308" type="curve" smooth="yes"/>
      <point x="330.7692307692308" y="308.53846153846155"/>
      <point x="337.84615384615387" y="321.15384615384613"/>
      <point x="352.15384615384613" y="336.84615384615387" type="curve" smooth="yes"/>
      <point x="372.2307692307692" y="356.7692307692308"/>
      <point x="375.0" y="365.0769230769231"/>
      <point x="375.0" y="376.38461538461536" type="curve" smooth="yes"/>
      <point x="375.0" y="408.1538461538462"/>
      <point x="351.6923076923077" y="426.0"/>
      <point x="314.0" y="426.0" type="curve" smooth="yes"/>
      <point x="294.1538461538462" y="426.0"/>
      <point x="277.2307692307692" y="420.0769230769231"/>
      <point x="262.2307692307692" y="411.0769230769231" type="curve" smooth="yes"/>
      <point x="221.84615384615384" y="386.6923076923077"/>
      <point x="197.23076923076923" y="335.46153846153845"/>
      <point x="197.23076923076923" y="288.38461538461536" type="curve" smooth="yes"/>
      <point x="197.23076923076923" y="238.30769230769232"/>
      <point x="220.07692307692307" y="199.30769230769232"/>
      <point x="256.6923076923077" y="175.3846153846154" type="curve"/>
      <point x="213.6153846153846" y="149.23076923076923"/>
      <point x="181.84615384615384" y="131.46153846153845"/>
      <point x="134.84615384615384" y="109.92307692307692" type="curve" smooth="yes"/>
      <point x="86.46153846153845" y="87.6923076923077"/>
      <point x="50.76923076923077" y="72.07692307692308"/>
      <point x="9.461538461538462" y="65.15384615384616" type="curve" smooth="yes"/>
      <point x="-37.23076923076923" y="57.15384615384616"/>
      <point x="-65.0" y="34.230769230769226"/>
      <point x="-65.0" y="-4.461538461538467" type="curve" smooth="yes"/>
      <point x="-65.0" y="-50.61538461538461"/>
      <point x="-38.69230769230769" y="-79.38461538461539"/>
    </contour>
  </outline>
</glyph>
<glyph name="uni0786" format="2">
  <advance width="564.8461538461538"/>
  <unicode hex="0786"/>
  <outline>
    <contour>
      <point x="94.0" y="-13.692307692307693" type="curve" smooth="yes"/>
      <point x="171.3846153846154" y="-13.692307692307693"/>
      <point x="270.1538461538462" y="30.076923076923077"/>
      <point x="418.3076923076923" y="163.30769230769232" type="curve" smooth="yes"/>
      <point x="466.8461538461538" y="207.23076923076923"/>
      <point x="489.15384615384613" y="231.46153846153845"/>
      <point x="508.2307692307692" y="258.15384615384613" type="curve" smooth="yes"/>
      <point x="525.2307692307693" y="281.7692307692308"/>
      <point x="535.6153846153846" y="304.61538461538464"/>
      <point x="535.6153846153846" y="324.46153846153845" type="curve" smooth="yes"/>
      <point x="535.6153846153846" y="358.6923076923077"/>
      <point x="518.8461538461538" y="382.46153846153845"/>
      <point x="475.46153846153845" y="382.46153846153845" type="curve" smooth="yes"/>
      <point x="444.6923076923077" y="382.46153846153845"/>
      <point x="414.9230769230769" y="362.6923076923077"/>
      <point x="391.53846153846155" y="327.3076923076923" type="curve" smooth="yes"/>
      <point x="370.46153846153845" y="294.8461538461538"/>
      <point x="310.53846153846155" y="224.53846153846155"/>
      <point x="256.84615384615387" y="182.46153846153845" type="curve" smooth="yes"/>
      <point x="243.53846153846155" y="170.84615384615387"/>
      <point x="228.15384615384616" y="158.6923076923077"/>
      <point x="215.3846153846154" y="149.53846153846155" type="curve"/>
      <point x="243.46153846153845" y="186.69230769230768"/>
      <point x="269.7692307692308" y="244.84615384615384"/>
      <point x="269.7692307692308" y="284.2307692307692" type="curve" smooth="yes"/>
      <point x="269.7692307692308" y="326.6923076923077"/>
      <point x="254.3846153846154" y="355.15384615384613"/>
      <point x="204.30769230769232" y="355.15384615384613" type="curve" smooth="yes"/>
      <point x="159.15384615384616" y="355.15384615384613"/>
      <point x="130.76923076923077" y="336.7692307692308"/>
      <point x="117.38461538461539" y="265.15384615384613" type="curve" smooth="yes"/>
      <point x="108.61538461538461" y="220.0"/>
      <point x="100.92307692307692" y="193.46153846153845"/>
      <point x="78.0" y="148.84615384615384" type="curve" smooth="yes"/>
      <point x="38.46153846153846" y="77.38461538461539"/>
      <point x="28.153846153846153" y="68.07692307692308"/>
      <point x="28.153846153846153" y="40.69230769230769" type="curve" smooth="yes"/>
      <point x="28.153846153846153" y="12.461538461538462"/>
      <point x="57.07692307692308" y="-13.692307692307693"/>
    </contour>
  </outline>
</glyph>
<glyph name="uni0788" format="2">
  <advance width="554.7692307692307"/>
  <unicode hex="0788"/>
  <outline>
    <contour>
      <point x="15.615384615384613" y="-78.0" type="curve" smooth="yes"/>
      <point x="47.0" y="-78.0"/>
      <point x="99.23076923076923" y="-60.53846153846154"/>
      <point x="168.6153846153846" y="-19.307692307692307" type="curve" smooth="yes"/>
      <point x="257.15384615384613" y="33.230769230769226"/>
      <point x="412.38461538461536" y="151.6153846153846"/>
      <point x="463.3076923076923" y="221.46153846153845" type="curve" smooth="yes"/>
      <point x="488.84615384615387" y="257.0"/>
      <point x="504.38461538461536" y="295.9230769230769"/>
      <point x="504.38461538461536" y="335.3076923076923" type="curve" smooth="yes"/>
      <point x="504.38461538461536" y="393.6923076923077"/>
      <point x="453.0" y="425.53846153846155"/>
      <point x="374.3076923076923" y="425.53846153846155" type="curve" smooth="yes"/>
      <point x="267.2307692307692" y="425.53846153846155"/>
      <point x="129.23076923076923" y="328.6923076923077"/>
      <point x="129.23076923076923" y="222.84615384615384" type="curve" smooth="yes"/>
      <point x="129.23076923076923" y="184.76923076923077"/>
      <point x="149.15384615384616" y="151.53846153846155"/>
      <point x="190.0" y="138.3846153846154" type="curve"/>
      <point x="174.84615384615384" y="129.46153846153845"/>
      <point x="158.92307692307693" y="120.23076923076923"/>
      <point x="138.30769230769232" y="110.38461538461539" type="curve" smooth="yes"/>
      <point x="91.61538461538461" y="87.23076923076923"/>
      <point x="29.923076923076923" y="69.3076923076923"/>
      <point x="0.6923076923076934" y="59.46153846153847" type="curve" smooth="yes"/>
      <point x="-34.07692307692308" y="47.923076923076934"/>
      <point x="-60.38461538461539" y="31.538461538461533"/>
      <point x="-60.38461538461539" y="-5.692307692307693" type="curve" smooth="yes"/>
      <point x="-60.38461538461539" y="-48.84615384615384"/>
      <point x="-33.53846153846154" y="-78.0"/>
    </contour>
    <contour>
      <point x="303.46153846153845" y="216.9230769230769" type="curve"/>
      <point x="282.61538461538464" y="220.9230769230769"/>
      <point x="266.61538461538464" y="230.46153846153845"/>
      <point x="266.61538461538464" y="243.15384615384616" type="curve" smooth="yes"/>
      <point x="266.61538461538464" y="277.15384615384613"/>
      <point x="314.61538461538464" y="319.84615384615387"/>
      <point x="349.7692307692308" y="319.84615384615387" type="curve" smooth="yes"/>
      <point x="363.9230769230769" y="319.84615384615387"/>
      <point x="366.9230769230769" y="312.61538461538464"/>
      <point x="366.9230769230769" y="307.0769230769231" type="curve" smooth="yes"/>
      <point x="366.9230769230769" y="283.15384615384613"/>
      <point x="350.2307692307692" y="255.15384615384616"/>
    </contour>
  </outline>
</glyph>
<glyph name="uni0789" format="2">
  <advance width="521.4615384615385"/>
  <unicode hex="0789"/>
  <outline>
    <contour>
      <point x="40.69230769230769" y="-20.0" type="curve" smooth="yes"/>
      <point x="56.15384615384615" y="-20.0"/>
      <point x="80.07692307692308" y="-17.0"/>
      <point x="110.07692307692308" y="-6.538461538461538" type="curve" smooth="yes"/>
      <point x="141.69230769230768" y="4.461538461538462"/>
      <point x="178.0" y="20.53846153846154"/>
      <point x="220.76923076923077" y="43.23076923076923" type="curve" smooth="yes"/>
      <point x="288.38461538461536" y="78.84615384615384"/>
      <point x="392.3076923076923" y="153.84615384615384"/>
      <point x="444.61538461538464" y="217.15384615384616" type="curve" smooth="yes"/>
      <point x="475.9230769230769" y="255.0"/>
      <point x="483.38461538461536" y="286.0"/>
      <point x="483.38461538461536" y="313.9230769230769" type="curve" smooth="yes"/>
      <point x="483.38461538461536" y="378.15384615384613"/>
      <point x="405.0" y="411.0"/>
      <point x="286.84615384615387" y="411.0" type="curve" smooth="yes"/>
      <point x="229.6153846153846" y="411.0"/>
      <point x="188.46153846153845" y="406.9230769230769"/>
      <point x="158.0" y="396.46153846153845" type="curve" smooth="yes"/>
      <point x="115.15384615384616" y="382.0769230769231"/>
      <point x="99.23076923076923" y="358.2307692307692"/>
      <point x="99.23076923076923" y="328.46153846153845" type="curve" smooth="yes"/>
      <point x="99.23076923076923" y="296.15384615384613"/>
      <point x="122.07692307692308" y="269.38461538461536"/>
      <point x="163.23076923076923" y="269.38461538461536" type="curve" smooth="yes"/>
      <point x="180.15384615384616" y="269.38461538461536"/>
      <point x="201.23076923076923" y="275.9230769230769"/>
      <point x="228.23076923076923" y="285.38461538461536" type="curve" smooth="yes"/>
      <point x="251.84615384615384" y="293.38461538461536"/>
      <point x="280.46153846153845" y="300.8461538461538"/>
      <point x="306.15384615384613" y="300.8461538461538" type="curve" smooth="yes"/>
      <point x="322.61538461538464" y="300.8461538461538"/>
      <point x="339.2307692307692" y="299.3076923076923"/>
      <point x="339.2307692307692" y="292.15384615384613" type="curve" smooth="yes"/>
      <point x="339.2307692307692" y="277.53846153846155"/>
      <point x="312.1538461538462" y="252.84615384615384"/>
      <point x="273.2307692307692" y="222.9230769230769" type="curve" smooth="yes"/>
      <point x="208.3846153846154" y="174.0"/>
      <point x="141.53846153846155" y="149.92307692307693"/>
      <point x="86.92307692307692" y="135.3846153846154" type="curve" smooth="yes"/>
      <point x="66.23076923076923" y="129.84615384615384"/>
      <point x="46.69230769230769" y="124.38461538461539"/>
      <point x="29.769230769230766" y="120.38461538461539" type="curve" smooth="yes"/>
      <point x="-18.846153846153847" y="108.46153846153847"/>
      <point x="-44.15384615384615" y="85.15384615384616"/>
      <point x="-44.15384615384615" y="46.46153846153847" type="curve" smooth="yes"/>
      <point x="-44.15384615384615" y="1.8461538461538467"/>
      <point x="-16.384615384615387" y="-20.0"/>
    </contour>
  </outline>
</glyph>
<glyph name="uni078A" format="2">
  <advance width="459.38461538461536"/>
  <unicode hex="078A"/>
  <outline>
    <contour>
      <point x="21.53846153846154" y="-78.07692307692308" type="curve" smooth="yes"/>
      <point x="51.92307692307692" y="-78.07692307692308"/>
      <point x="98.84615384615384" y="-62.30769230769231"/>
      <point x="156.3846153846154" y="-27.384615384615383" type="curve" smooth="yes"/>
      <point x="242.92307692307693" y="25.53846153846154"/>
      <point x="370.46153846153845" y="113.0"/>
      <point x="370.46153846153845" y="184.76923076923077" type="curve" smooth="yes"/>
      <point x="370.46153846153845" y="209.69230769230768"/>
      <point x="356.84615384615387" y="218.76923076923077"/>
      <point x="339.7692307692308" y="228.30769230769232" type="curve"/>
      <point x="345.38461538461536" y="230.30769230769232"/>
      <point x="355.61538461538464" y="235.92307692307693"/>
      <point x="374.3076923076923" y="248.0" type="curve" smooth="yes"/>
      <point x="403.53846153846155" y="266.0769230769231"/>
      <point x="429.46153846153845" y="292.46153846153845"/>
      <point x="429.46153846153845" y="326.3076923076923" type="curve" smooth="yes"/>
      <point x="429.46153846153845" y="356.2307692307692"/>
      <point x="394.6923076923077" y="367.7692307692308"/>
      <point x="358.2307692307692" y="376.9230769230769" type="curve"/>
      <point x="365.2307692307692" y="381.38461538461536"/>
      <point x="378.3076923076923" y="388.15384615384613"/>
      <point x="396.84615384615387" y="399.2307692307692" type="curve" smooth="yes"/>
      <point x="416.0769230769231" y="410.61538461538464"/>
      <point x="431.15384615384613" y="421.2307692307692"/>
      <point x="431.15384615384613" y="437.61538461538464" type="curve" smooth="yes"/>
      <point x="431.15384615384613" y="468.84615384615387"/>
      <point x="403.9230769230769" y="492.15384615384613"/>
      <point x="371.6923076923077" y="492.15384615384613" type="curve" smooth="yes"/>
      <point x="339.46153846153845" y="492.15384615384613"/>
      <point x="306.9230769230769" y="463.0"/>
      <point x="278.46153846153845" y="445.61538461538464" type="curve" smooth="yes"/>
      <point x="250.0" y="428.2307692307692"/>
      <point x="198.0769230769231" y="407.6923076923077"/>
      <point x="198.0769230769231" y="372.9230769230769" type="curve" smooth="yes"/>
      <point x="198.0769230769231" y="349.15384615384613"/>
      <point x="223.3846153846154" y="338.15384615384613"/>
      <point x="244.9230769230769" y="330.15384615384613" type="curve" smooth="yes"/>
      <point x="265.2307692307692" y="322.53846153846155"/>
      <point x="292.0769230769231" y="317.0"/>
      <point x="292.0769230769231" y="311.9230769230769" type="curve" smooth="yes"/>
      <point x="292.0769230769231" y="303.38461538461536"/>
      <point x="268.9230769230769" y="301.2307692307692"/>
      <point x="230.84615384615384" y="284.6923076923077" type="curve" smooth="yes"/>
      <point x="183.84615384615384" y="263.6923076923077"/>
      <point x="167.15384615384613" y="249.15384615384616"/>
      <point x="167.15384615384613" y="227.30769230769232" type="curve" smooth="yes"/>
      <point x="167.15384615384613" y="213.3846153846154"/>
      <point x="176.6153846153846" y="199.6153846153846"/>
      <point x="189.0769230769231" y="190.53846153846155" type="curve" smooth="yes"/>
      <point x="201.9230769230769" y="181.53846153846155"/>
      <point x="224.0" y="173.84615384615384"/>
      <point x="239.46153846153845" y="170.3846153846154" type="curve" smooth="yes"/>
      <point x="239.46153846153845" y="146.76923076923077"/>
      <point x="183.3846153846154" y="120.76923076923077"/>
      <point x="121.92307692307692" y="98.53846153846155" type="curve" smooth="yes"/>
      <point x="89.3076923076923" y="86.46153846153845"/>
      <point x="56.15384615384615" y="79.30769230769232"/>
      <point x="28.07692307692308" y="73.30769230769229" type="curve" smooth="yes"/>
      <point x="-30.076923076923077" y="60.84615384615384"/>
      <point x="-60.38461538461539" y="30.615384615384613"/>
      <point x="-60.38461538461539" y="-5.153846153846146" type="curve" smooth="yes"/>
      <point x="-60.38461538461539" y="-49.30769230769231"/>
      <point x="-34.53846153846154" y="-78.07692307692308"/>
    </contour>
  </outline>
</glyph>
<glyph name="uni078B" format="2">
  <advance width="633.0"/>
  <unicode hex="078B"/>
  <outline>
    <contour>
      <point x="18.615384615384613" y="-77.53846153846153" type="curve" smooth="yes"/>
      <point x="47.0" y="-77.53846153846153"/>
      <point x="77.15384615384616" y="-70.3076923076923"/>
      <point x="136.15384615384616" y="-28.230769230769234" type="curve" smooth="yes"/>
      <point x="215.07692307692307" y="28.384615384615383"/>
      <point x="242.3846153846154" y="51.38461538461539"/>
      <point x="310.2307692307692" y="129.46153846153845" type="curve"/>
      <point x="326.6923076923077" y="126.92307692307692"/>
      <point x="343.15384615384613" y="126.92307692307692"/>
      <point x="352.38461538461536" y="126.92307692307692" type="curve" smooth="yes"/>
      <point x="492.46153846153845" y="126.92307692307692"/>
      <point x="589.9230769230769" y="203.3846153846154"/>
      <point x="589.9230769230769" y="306.0769230769231" type="curve" smooth="yes"/>
      <point x="589.9230769230769" y="334.61538461538464"/>
      <point x="571.4615384615385" y="370.53846153846155"/>
      <point x="550.1538461538462" y="382.61538461538464" type="curve"/>
      <point x="568.6153846153846" y="390.3076923076923"/>
      <point x="605.3846153846154" y="406.2307692307692"/>
      <point x="605.3846153846154" y="440.0" type="curve" smooth="yes"/>
      <point x="605.3846153846154" y="470.3076923076923"/>
      <point x="581.3076923076923" y="492.61538461538464"/>
      <point x="551.0" y="492.61538461538464" type="curve" smooth="yes"/>
      <point x="529.1538461538462" y="492.61538461538464"/>
      <point x="510.53846153846155" y="481.84615384615387"/>
      <point x="480.9230769230769" y="467.6923076923077" type="curve" smooth="yes"/>
      <point x="444.1538461538462" y="449.9230769230769"/>
      <point x="378.0" y="446.46153846153845"/>
      <point x="378.0" y="391.53846153846155" type="curve" smooth="yes"/>
      <point x="378.0" y="369.6923076923077"/>
      <point x="395.8461538461538" y="350.38461538461536"/>
      <point x="427.46153846153845" y="340.38461538461536" type="curve" smooth="yes"/>
      <point x="444.38461538461536" y="334.9230769230769"/>
      <point x="452.53846153846155" y="322.2307692307692"/>
      <point x="452.53846153846155" y="304.53846153846155" type="curve" smooth="yes"/>
      <point x="452.53846153846155" y="265.6923076923077"/>
      <point x="423.84615384615387" y="248.9230769230769"/>
      <point x="381.61538461538464" y="248.9230769230769" type="curve" smooth="yes"/>
      <point x="369.0769230769231" y="248.9230769230769"/>
      <point x="356.53846153846155" y="249.9230769230769"/>
      <point x="345.0769230769231" y="252.9230769230769" type="curve"/>
      <point x="333.61538461538464" y="288.6923076923077"/>
      <point x="305.2307692307692" y="312.61538461538464"/>
      <point x="268.15384615384613" y="312.61538461538464" type="curve" smooth="yes"/>
      <point x="219.30769230769232" y="312.61538461538464"/>
      <point x="179.6153846153846" y="282.3076923076923"/>
      <point x="179.6153846153846" y="225.76923076923077" type="curve" smooth="yes"/>
      <point x="179.6153846153846" y="208.84615384615384"/>
      <point x="185.6153846153846" y="193.92307692307693"/>
      <point x="197.6153846153846" y="179.53846153846155" type="curve"/>
      <point x="155.53846153846155" y="140.6153846153846"/>
      <point x="124.23076923076923" y="116.92307692307692"/>
      <point x="92.92307692307692" y="100.6923076923077" type="curve" smooth="yes"/>
      <point x="67.53846153846155" y="87.46153846153845"/>
      <point x="43.61538461538461" y="76.84615384615384"/>
      <point x="11.07692307692308" y="66.38461538461539" type="curve" smooth="yes"/>
      <point x="-34.07692307692308" y="51.53846153846155"/>
      <point x="-59.46153846153846" y="30.15384615384616"/>
      <point x="-59.46153846153846" y="-5.07692307692308" type="curve" smooth="yes"/>
      <point x="-59.46153846153846" y="-51.69230769230769"/>
      <point x="-31.692307692307693" y="-77.53846153846153"/>
    </contour>
  </outline>
</glyph>
<glyph name="uni078C" format="2">
  <advance width="657.9230769230769"/>
  <unicode hex="078C"/>
  <outline>
    <contour>
      <point x="109.3076923076923" y="-43.53846153846154" type="curve" smooth="yes"/>
      <point x="214.0769230769231" y="-43.53846153846154"/>
      <point x="310.7692307692308" y="8.846153846153847"/>
      <point x="310.7692307692308" y="83.23076923076923" type="curve" smooth="yes"/>
      <point x="310.7692307692308" y="106.6923076923077"/>
      <point x="295.6923076923077" y="122.38461538461539"/>
      <point x="276.9230769230769" y="142.3846153846154" type="curve" smooth="yes"/>
      <point x="261.3076923076923" y="159.30769230769232"/>
      <point x="249.3846153846154" y="169.84615384615384"/>
      <point x="249.3846153846154" y="173.76923076923077" type="curve" smooth="yes"/>
      <point x="249.3846153846154" y="180.23076923076923"/>
      <point x="259.3076923076923" y="191.23076923076923"/>
      <point x="267.61538461538464" y="198.0" type="curve"/>
      <point x="294.53846153846155" y="170.69230769230768"/>
      <point x="354.46153846153845" y="141.76923076923077"/>
      <point x="408.0" y="141.76923076923077" type="curve" smooth="yes"/>
      <point x="500.1538461538462" y="141.76923076923077"/>
      <point x="600.2307692307693" y="206.6153846153846"/>
      <point x="600.2307692307693" y="306.38461538461536" type="curve" smooth="yes"/>
      <point x="600.2307692307693" y="373.1538461538462"/>
      <point x="549.4615384615385" y="411.0"/>
      <point x="477.0769230769231" y="411.0" type="curve" smooth="yes"/>
      <point x="366.0769230769231" y="411.0"/>
      <point x="129.30769230769232" y="282.46153846153845"/>
      <point x="129.30769230769232" y="165.30769230769232" type="curve" smooth="yes"/>
      <point x="129.30769230769232" y="151.46153846153845"/>
      <point x="136.76923076923077" y="138.30769230769232"/>
      <point x="158.46153846153845" y="121.84615384615384" type="curve" smooth="yes"/>
      <point x="170.15384615384616" y="112.76923076923077"/>
      <point x="177.84615384615384" y="104.23076923076923"/>
      <point x="177.84615384615384" y="97.6923076923077" type="curve" smooth="yes"/>
      <point x="177.84615384615384" y="81.23076923076923"/>
      <point x="159.3846153846154" y="72.53846153846155"/>
      <point x="116.46153846153845" y="72.53846153846155" type="curve" smooth="yes"/>
      <point x="101.38461538461539" y="72.53846153846155"/>
      <point x="84.15384615384616" y="77.53846153846155"/>
      <point x="70.46153846153845" y="80.61538461538461" type="curve" smooth="yes"/>
      <point x="58.61538461538461" y="83.61538461538461"/>
      <point x="44.84615384615385" y="86.07692307692308"/>
      <point x="30.153846153846153" y="86.07692307692308" type="curve" smooth="yes"/>
      <point x="-13.538461538461538" y="86.07692307692308"/>
      <point x="-29.53846153846154" y="62.769230769230774"/>
      <point x="-29.53846153846154" y="25.53846153846154" type="curve" smooth="yes"/>
      <point x="-29.53846153846154" y="-5.2307692307692335"/>
      <point x="-3.384615384615385" y="-27.076923076923077"/>
      <point x="39.92307692307692" y="-36.07692307692308" type="curve" smooth="yes"/>
      <point x="62.61538461538461" y="-40.53846153846154"/>
      <point x="85.15384615384616" y="-43.53846153846154"/>
    </contour>
    <contour>
      <point x="384.2307692307692" y="246.46153846153845" type="curve" smooth="yes"/>
      <point x="367.8461538461538" y="246.46153846153845"/>
      <point x="347.0" y="251.6153846153846"/>
      <point x="328.2307692307692" y="263.0" type="curve"/>
      <point x="358.15384615384613" y="281.2307692307692"/>
      <point x="411.9230769230769" y="312.2307692307692"/>
      <point x="450.61538461538464" y="312.2307692307692" type="curve" smooth="yes"/>
      <point x="459.46153846153845" y="312.2307692307692"/>
      <point x="467.61538461538464" y="308.2307692307692"/>
      <point x="467.61538461538464" y="300.7692307692308" type="curve" smooth="yes"/>
      <point x="467.61538461538464" y="268.61538461538464"/>
      <point x="433.61538461538464" y="246.46153846153845"/>
    </contour>
  </outline>
</glyph>
<glyph name="uni078D" format="2">
  <advance width="568.0769230769231"/>
  <unicode hex="078D"/>
  <outline>
    <contour>
      <point x="23.0" y="-77.07692307692308" type="curve" smooth="yes"/>
      <point x="57.769230769230774" y="-77.07692307692308"/>
      <point x="92.76923076923077" y="-67.53846153846155"/>
      <point x="173.76923076923077" y="-19.384615384615387" type="curve" smooth="yes"/>
      <point x="325.84615384615387" y="70.6923076923077"/>
      <point x="497.1538461538462" y="265.6923076923077"/>
      <point x="513.0769230769231" y="291.6923076923077" type="curve" smooth="yes"/>
      <point x="522.0769230769231" y="306.2307692307692"/>
      <point x="526.5384615384615" y="320.0769230769231"/>
      <point x="526.5384615384615" y="333.46153846153845" type="curve" smooth="yes"/>
      <point x="526.5384615384615" y="362.3076923076923"/>
      <point x="509.15384615384613" y="380.15384615384613"/>
      <point x="478.3076923076923" y="380.15384615384613" type="curve" smooth="yes"/>
      <point x="463.53846153846155" y="380.15384615384613"/>
      <point x="441.7692307692308" y="373.61538461538464"/>
      <point x="417.53846153846155" y="368.6923076923077" type="curve" smooth="yes"/>
      <point x="396.7692307692308" y="364.2307692307692"/>
      <point x="364.8461538461538" y="358.7692307692308"/>
      <point x="347.1538461538462" y="358.2307692307692" type="curve"/>
      <point x="363.6923076923077" y="368.53846153846155"/>
      <point x="376.61538461538464" y="381.7692307692308"/>
      <point x="388.61538461538464" y="396.3076923076923" type="curve" smooth="yes"/>
      <point x="402.0" y="411.6923076923077"/>
      <point x="409.84615384615387" y="428.0"/>
      <point x="409.84615384615387" y="439.84615384615387" type="curve" smooth="yes"/>
      <point x="409.84615384615387" y="469.2307692307692"/>
      <point x="383.6923076923077" y="492.15384615384613"/>
      <point x="347.61538461538464" y="492.15384615384613" type="curve" smooth="yes"/>
      <point x="323.3076923076923" y="492.15384615384613"/>
      <point x="301.9230769230769" y="483.2307692307692"/>
      <point x="286.0769230769231" y="463.0" type="curve" smooth="yes"/>
      <point x="259.46153846153845" y="431.0"/>
      <point x="242.6153846153846" y="406.7692307692308"/>
      <point x="213.84615384615384" y="383.3076923076923" type="curve" smooth="yes"/>
      <point x="193.15384615384616" y="366.84615384615387"/>
      <point x="174.84615384615384" y="346.38461538461536"/>
      <point x="174.84615384615384" y="327.0" type="curve" smooth="yes"/>
      <point x="174.84615384615384" y="285.84615384615387"/>
      <point x="215.0" y="258.46153846153845"/>
      <point x="284.61538461538464" y="258.46153846153845" type="curve" smooth="yes"/>
      <point x="302.6923076923077" y="258.46153846153845"/>
      <point x="329.0769230769231" y="260.46153846153845"/>
      <point x="339.9230769230769" y="262.61538461538464" type="curve"/>
      <point x="308.38461538461536" y="235.0"/>
      <point x="284.2307692307692" y="217.07692307692307"/>
      <point x="241.0769230769231" y="185.6153846153846" type="curve" smooth="yes"/>
      <point x="127.0" y="102.84615384615384"/>
      <point x="70.84615384615384" y="84.53846153846153"/>
      <point x="5.307692307692307" y="66.38461538461539" type="curve" smooth="yes"/>
      <point x="-42.61538461538461" y="53.46153846153845"/>
      <point x="-66.46153846153845" y="33.076923076923066"/>
      <point x="-66.46153846153845" y="-4.15384615384616" type="curve" smooth="yes"/>
      <point x="-66.46153846153845" y="-47.84615384615385"/>
      <point x="-37.69230769230769" y="-77.07692307692308"/>
    </contour>
  </outline>
</glyph>
<glyph name="uni078F" format="2">
  <advance width="734.3846153846154"/>
  <unicode hex="078F"/>
  <outline>
    <contour>
      <point x="285.0769230769231" y="-154.15384615384616" type="curve" smooth="yes"/>
      <point x="371.46153846153845" y="-154.15384615384616"/>
      <point x="428.0" y="-148.07692307692307"/>
      <point x="460.6923076923077" y="-134.6153846153846" type="curve" smooth="yes"/>
      <point x="491.0" y="-122.3076923076923"/>
      <point x="504.46153846153845" y="-103.84615384615384"/>
      <point x="504.46153846153845" y="-81.0" type="curve" smooth="yes"/>
      <point x="504.46153846153845" y="-47.769230769230774"/>
      <point x="481.61538461538464" y="-28.384615384615387"/>
      <point x="449.84615384615387" y="-28.384615384615387" type="curve" smooth="yes"/>
      <point x="425.0" y="-28.384615384615387"/>
      <point x="405.46153846153845" y="-30.92307692307692"/>
      <point x="385.53846153846155" y="-32.46153846153845" type="curve" smooth="yes"/>
      <point x="356.0" y="-34.53846153846155"/>
      <point x="327.9230769230769" y="-37.076923076923066"/>
      <point x="292.46153846153845" y="-37.076923076923066" type="curve" smooth="yes"/>
      <point x="219.0" y="-37.076923076923066"/>
      <point x="185.53846153846155" y="-15.692307692307693"/>
      <point x="185.53846153846155" y="22.692307692307693" type="curve" smooth="yes"/>
      <point x="185.53846153846155" y="71.23076923076923"/>
      <point x="216.46153846153845" y="133.30769230769232"/>
      <point x="283.2307692307692" y="177.84615384615384" type="curve"/>
      <point x="294.7692307692308" y="167.30769230769232"/>
      <point x="318.15384615384613" y="154.76923076923077"/>
      <point x="337.0769230769231" y="154.76923076923077" type="curve" smooth="yes"/>
      <point x="364.46153846153845" y="154.76923076923077"/>
      <point x="386.7692307692308" y="170.0"/>
      <point x="409.1538461538462" y="199.9230769230769" type="curve"/>
      <point x="429.0" y="165.69230769230768"/>
      <point x="439.3076923076923" y="146.76923076923077"/>
      <point x="480.0769230769231" y="146.76923076923077" type="curve" smooth="yes"/>
      <point x="536.7692307692307" y="146.76923076923077"/>
      <point x="589.5384615384615" y="199.92307692307693"/>
      <point x="659.0" y="263.53846153846155" type="curve" smooth="yes"/>
      <point x="688.8461538461538" y="290.38461538461536"/>
      <point x="705.3846153846154" y="319.84615384615387"/>
      <point x="705.3846153846154" y="348.2307692307692" type="curve" smooth="yes"/>
      <point x="705.3846153846154" y="379.0"/>
      <point x="688.9230769230769" y="398.84615384615387"/>
      <point x="648.8461538461538" y="398.84615384615387" type="curve" smooth="yes"/>
      <point x="628.0" y="398.84615384615387"/>
      <point x="611.9230769230769" y="394.3076923076923"/>
      <point x="596.3846153846154" y="383.2307692307692" type="curve" smooth="yes"/>
      <point x="580.2307692307693" y="371.46153846153845"/>
      <point x="571.4615384615385" y="361.15384615384613"/>
      <point x="558.0769230769231" y="339.3076923076923" type="curve" smooth="yes"/>
      <point x="539.8461538461538" y="307.8461538461538"/>
      <point x="518.3846153846154" y="269.61538461538464"/>
      <point x="507.2307692307692" y="269.61538461538464" type="curve" smooth="yes"/>
      <point x="497.2307692307692" y="269.61538461538464"/>
      <point x="496.53846153846155" y="302.46153846153845"/>
      <point x="493.53846153846155" y="341.0769230769231" type="curve" smooth="yes"/>
      <point x="492.0769230769231" y="358.61538461538464"/>
      <point x="482.0769230769231" y="382.0"/>
      <point x="447.84615384615387" y="382.0" type="curve" smooth="yes"/>
      <point x="433.9230769230769" y="382.0"/>
      <point x="421.0" y="370.2307692307692"/>
      <point x="407.6923076923077" y="352.53846153846155" type="curve" smooth="yes"/>
      <point x="370.6923076923077" y="304.15384615384613"/>
      <point x="359.46153846153845" y="292.1538461538462"/>
      <point x="351.84615384615387" y="292.1538461538462" type="curve" smooth="yes"/>
      <point x="345.84615384615387" y="292.1538461538462"/>
      <point x="339.2307692307692" y="311.0"/>
      <point x="328.2307692307692" y="334.9230769230769" type="curve" smooth="yes"/>
      <point x="314.6923076923077" y="365.38461538461536"/>
      <point x="296.2307692307692" y="385.2307692307692"/>
      <point x="274.84615384615387" y="385.2307692307692" type="curve" smooth="yes"/>
      <point x="211.3846153846154" y="385.2307692307692"/>
      <point x="156.3846153846154" y="330.53846153846155"/>
      <point x="156.3846153846154" y="286.9230769230769" type="curve" smooth="yes"/>
      <point x="156.3846153846154" y="265.0769230769231"/>
      <point x="166.9230769230769" y="257.53846153846155"/>
      <point x="181.46153846153845" y="248.0" type="curve" smooth="yes"/>
      <point x="190.30769230769232" y="242.07692307692307"/>
      <point x="199.92307692307693" y="237.0"/>
      <point x="208.3846153846154" y="233.0" type="curve"/>
      <point x="114.38461538461539" y="173.6153846153846"/>
      <point x="47.15384615384615" y="98.3076923076923"/>
      <point x="47.15384615384615" y="6.153846153846153" type="curve" smooth="yes"/>
      <point x="47.15384615384615" y="-99.61538461538461"/>
      <point x="132.46153846153845" y="-154.15384615384616"/>
    </contour>
  </outline>
</glyph>
<glyph name="uni0791" format="2">
  <advance width="404.84615384615387"/>
  <unicode hex="0791"/>
  <outline>
    <contour>
      <point x="249.07692307692307" y="-43.53846153846154" type="curve" smooth="yes"/>
      <point x="305.53846153846155" y="-43.53846153846154"/>
      <point x="339.0769230769231" y="-23.692307692307693"/>
      <point x="339.0769230769231" y="20.0" type="curve" smooth="yes"/>
      <point x="339.0769230769231" y="57.69230769230769"/>
      <point x="322.2307692307692" y="75.46153846153845"/>
      <point x="290.9230769230769" y="75.46153846153845" type="curve" smooth="yes"/>
      <point x="265.9230769230769" y="75.46153846153845"/>
      <point x="246.76923076923077" y="73.53846153846153"/>
      <point x="226.53846153846155" y="73.53846153846153" type="curve" smooth="yes"/>
      <point x="189.84615384615384" y="73.53846153846153"/>
      <point x="155.0769230769231" y="88.07692307692307"/>
      <point x="155.0769230769231" y="101.76923076923077" type="curve" smooth="yes"/>
      <point x="155.0769230769231" y="109.23076923076923"/>
      <point x="166.0769230769231" y="119.46153846153847"/>
      <point x="194.6153846153846" y="135.46153846153845" type="curve" smooth="yes"/>
      <point x="238.0769230769231" y="160.53846153846155"/>
      <point x="287.38461538461536" y="168.84615384615384"/>
      <point x="287.38461538461536" y="218.23076923076923" type="curve" smooth="yes"/>
      <point x="287.38461538461536" y="239.6153846153846"/>
      <point x="276.38461538461536" y="252.6153846153846"/>
      <point x="250.92307692307693" y="262.0" type="curve" smooth="yes"/>
      <point x="215.84615384615384" y="274.61538461538464"/>
      <point x="193.3846153846154" y="280.2307692307692"/>
      <point x="180.84615384615384" y="284.15384615384613" type="curve"/>
      <point x="188.15384615384616" y="288.0769230769231"/>
      <point x="209.23076923076923" y="300.61538461538464"/>
      <point x="231.15384615384616" y="316.0769230769231" type="curve" smooth="yes"/>
      <point x="249.23076923076923" y="329.15384615384613"/>
      <point x="255.69230769230768" y="336.9230769230769"/>
      <point x="255.69230769230768" y="355.46153846153845" type="curve" smooth="yes"/>
      <point x="255.69230769230768" y="379.7692307692308"/>
      <point x="236.84615384615384" y="403.0769230769231"/>
      <point x="205.23076923076923" y="403.0769230769231" type="curve" smooth="yes"/>
      <point x="190.6153846153846" y="403.0769230769231"/>
      <point x="174.15384615384616" y="395.0769230769231"/>
      <point x="157.15384615384616" y="384.61538461538464" type="curve" smooth="yes"/>
      <point x="127.6923076923077" y="366.2307692307692"/>
      <point x="98.0" y="342.0"/>
      <point x="77.0" y="322.0" type="curve" smooth="yes"/>
      <point x="52.07692307692308" y="299.0769230769231"/>
      <point x="36.69230769230769" y="287.38461538461536"/>
      <point x="36.69230769230769" y="257.84615384615387" type="curve" smooth="yes"/>
      <point x="36.69230769230769" y="233.53846153846155"/>
      <point x="52.61538461538461" y="218.6153846153846"/>
      <point x="88.84615384615384" y="209.69230769230768" type="curve" smooth="yes"/>
      <point x="110.0" y="204.53846153846155"/>
      <point x="123.46153846153845" y="202.46153846153845"/>
      <point x="130.76923076923077" y="201.92307692307693" type="curve"/>
      <point x="74.3076923076923" y="176.84615384615384"/>
      <point x="21.692307692307693" y="142.53846153846155"/>
      <point x="21.692307692307693" y="88.92307692307692" type="curve" smooth="yes"/>
      <point x="21.692307692307693" y="14.0"/>
      <point x="161.0" y="-43.53846153846154"/>
    </contour>
  </outline>
</glyph>
<glyph name="uni0792" format="2">
  <advance width="576.9230769230769"/>
  <unicode hex="0792"/>
  <outline>
    <contour>
      <point x="271.3076923076923" y="-156.92307692307693" type="curve" smooth="yes"/>
      <point x="323.15384615384613" y="-156.92307692307693"/>
      <point x="368.53846153846155" y="-152.84615384615384"/>
      <point x="400.46153846153845" y="-141.3846153846154" type="curve" smooth="yes"/>
      <point x="433.38461538461536" y="-129.92307692307693"/>
      <point x="448.61538461538464" y="-112.53846153846153"/>
      <point x="448.61538461538464" y="-87.6923076923077" type="curve" smooth="yes"/>
      <point x="448.61538461538464" y="-50.46153846153846"/>
      <point x="431.2307692307692" y="-30.769230769230774"/>
      <point x="403.46153846153845" y="-30.769230769230774" type="curve" smooth="yes"/>
      <point x="379.61538461538464" y="-30.769230769230774"/>
      <point x="361.9230769230769" y="-33.84615384615384"/>
      <point x="343.0769230769231" y="-35.84615384615384" type="curve" smooth="yes"/>
      <point x="321.0" y="-38.38461538461539"/>
      <point x="300.61538461538464" y="-39.38461538461539"/>
      <point x="279.2307692307692" y="-39.38461538461539" type="curve" smooth="yes"/>
      <point x="205.53846153846155" y="-39.38461538461539"/>
      <point x="184.6153846153846" y="-23.538461538461547"/>
      <point x="184.6153846153846" y="-1.7692307692307665" type="curve" smooth="yes"/>
      <point x="184.6153846153846" y="21.53846153846154"/>
      <point x="200.0" y="58.84615384615384"/>
      <point x="275.46153846153845" y="115.3076923076923" type="curve"/>
      <point x="300.84615384615387" y="102.3076923076923"/>
      <point x="330.2307692307692" y="91.23076923076923"/>
      <point x="358.61538461538464" y="84.23076923076923" type="curve" smooth="yes"/>
      <point x="374.61538461538464" y="80.23076923076923"/>
      <point x="391.0" y="78.15384615384615"/>
      <point x="406.9230769230769" y="78.15384615384615" type="curve" smooth="yes"/>
      <point x="455.53846153846155" y="78.15384615384615"/>
      <point x="473.38461538461536" y="104.92307692307692"/>
      <point x="473.38461538461536" y="137.15384615384616" type="curve" smooth="yes"/>
      <point x="473.38461538461536" y="164.46153846153845"/>
      <point x="461.9230769230769" y="172.30769230769232"/>
      <point x="432.2307692307692" y="179.53846153846155" type="curve" smooth="yes"/>
      <point x="418.61538461538464" y="182.53846153846155"/>
      <point x="407.7692307692308" y="185.6153846153846"/>
      <point x="399.6923076923077" y="188.69230769230768" type="curve"/>
      <point x="441.2307692307692" y="215.15384615384616"/>
      <point x="483.0" y="237.69230769230768"/>
      <point x="517.0769230769231" y="254.53846153846155" type="curve" smooth="yes"/>
      <point x="541.8461538461538" y="266.53846153846155"/>
      <point x="553.3846153846154" y="284.9230769230769"/>
      <point x="553.3846153846154" y="313.46153846153845" type="curve" smooth="yes"/>
      <point x="553.3846153846154" y="349.9230769230769"/>
      <point x="524.6153846153846" y="369.7692307692308"/>
      <point x="496.3076923076923" y="369.7692307692308" type="curve" smooth="yes"/>
      <point x="481.3076923076923" y="369.7692307692308"/>
      <point x="455.38461538461536" y="360.3076923076923"/>
      <point x="422.3076923076923" y="343.84615384615387" type="curve" smooth="yes"/>
      <point x="387.3076923076923" y="326.38461538461536"/>
      <point x="343.3076923076923" y="299.15384615384613"/>
      <point x="297.0769230769231" y="265.9230769230769" type="curve"/>
      <point x="287.7692307692308" y="276.2307692307692"/>
      <point x="277.3076923076923" y="289.0769230769231"/>
      <point x="269.46153846153845" y="296.46153846153845" type="curve" smooth="yes"/>
      <point x="257.84615384615387" y="307.61538461538464"/>
      <point x="249.3846153846154" y="316.0769230769231"/>
      <point x="225.3846153846154" y="316.0769230769231" type="curve" smooth="yes"/>
      <point x="192.30769230769232" y="316.0769230769231"/>
      <point x="160.07692307692307" y="279.38461538461536"/>
      <point x="160.07692307692307" y="247.6153846153846" type="curve" smooth="yes"/>
      <point x="160.07692307692307" y="219.84615384615384"/>
      <point x="174.07692307692307" y="205.30769230769232"/>
      <point x="188.15384615384616" y="186.76923076923077" type="curve"/>
      <point x="106.6923076923077" y="126.6923076923077"/>
      <point x="48.15384615384615" y="71.38461538461539"/>
      <point x="48.15384615384615" y="-16.53846153846154" type="curve" smooth="yes"/>
      <point x="48.15384615384615" y="-101.38461538461539"/>
      <point x="120.23076923076923" y="-156.92307692307693"/>
    </contour>
  </outline>
</glyph>
<glyph name="uni0793" format="2">
  <advance width="684.3846153846154"/>
  <unicode hex="0793"/>
  <outline>
    <contour>
      <point x="298.9230769230769" y="-154.15384615384616" type="curve" smooth="yes"/>
      <point x="367.0769230769231" y="-154.15384615384616"/>
      <point x="419.61538461538464" y="-149.6153846153846"/>
      <point x="454.7692307692308" y="-139.07692307692307" type="curve" smooth="yes"/>
      <point x="504.38461538461536" y="-124.6923076923077"/>
      <point x="528.2307692307693" y="-101.84615384615384"/>
      <point x="528.2307692307693" y="-71.07692307692308" type="curve" smooth="yes"/>
      <point x="528.2307692307693" y="-36.38461538461539"/>
      <point x="506.7692307692308" y="-21.538461538461547"/>
      <point x="477.6923076923077" y="-21.538461538461547" type="curve" smooth="yes"/>
      <point x="451.46153846153845" y="-21.538461538461547"/>
      <point x="432.6923076923077" y="-26.0"/>
      <point x="412.15384615384613" y="-29.538461538461547" type="curve" smooth="yes"/>
      <point x="393.53846153846155" y="-33.07692307692308"/>
      <point x="357.53846153846155" y="-37.076923076923066"/>
      <point x="300.61538461538464" y="-37.076923076923066" type="curve" smooth="yes"/>
      <point x="219.07692307692307" y="-37.076923076923066"/>
      <point x="180.0" y="-22.07692307692308"/>
      <point x="180.0" y="20.84615384615384" type="curve" smooth="yes"/>
      <point x="180.0" y="42.61538461538461"/>
      <point x="199.0769230769231" y="68.0"/>
      <point x="256.7692307692308" y="100.15384615384616" type="curve"/>
      <point x="284.53846153846155" y="95.6923076923077"/>
      <point x="310.84615384615387" y="92.23076923076923"/>
      <point x="347.53846153846155" y="92.23076923076923" type="curve" smooth="yes"/>
      <point x="485.0" y="92.23076923076923"/>
      <point x="656.3076923076923" y="165.9230769230769"/>
      <point x="656.3076923076923" y="287.15384615384613" type="curve" smooth="yes"/>
      <point x="656.3076923076923" y="353.9230769230769"/>
      <point x="608.9230769230769" y="396.0769230769231"/>
      <point x="528.0769230769231" y="396.0769230769231" type="curve" smooth="yes"/>
      <point x="473.46153846153845" y="396.0769230769231"/>
      <point x="428.0" y="376.2307692307692"/>
      <point x="375.6923076923077" y="337.3076923076923" type="curve"/>
      <point x="344.6923076923077" y="362.2307692307692"/>
      <point x="300.7692307692308" y="379.2307692307692"/>
      <point x="257.46153846153845" y="379.2307692307692" type="curve" smooth="yes"/>
      <point x="147.9230769230769" y="379.2307692307692"/>
      <point x="77.0" y="307.84615384615387"/>
      <point x="77.0" y="238.92307692307693" type="curve" smooth="yes"/>
      <point x="77.0" y="190.3846153846154"/>
      <point x="107.15384615384616" y="156.30769230769232"/>
      <point x="134.53846153846155" y="141.30769230769232" type="curve"/>
      <point x="85.53846153846153" y="108.6923076923077"/>
      <point x="42.61538461538461" y="73.0"/>
      <point x="42.61538461538461" y="2.2307692307692335" type="curve" smooth="yes"/>
      <point x="42.61538461538461" y="-99.84615384615384"/>
      <point x="134.53846153846155" y="-154.15384615384616"/>
    </contour>
    <contour>
      <point x="227.9230769230769" y="201.84615384615387" type="curve"/>
      <point x="209.6153846153846" y="207.53846153846155"/>
      <point x="197.53846153846155" y="221.6153846153846"/>
      <point x="197.53846153846155" y="238.84615384615384" type="curve" smooth="yes"/>
      <point x="197.53846153846155" y="260.15384615384613"/>
      <point x="216.23076923076923" y="278.0"/>
      <point x="246.0769230769231" y="278.0" type="curve" smooth="yes"/>
      <point x="264.53846153846155" y="278.0"/>
      <point x="280.2307692307692" y="269.0"/>
      <point x="289.38461538461536" y="257.9230769230769" type="curve"/>
      <point x="263.9230769230769" y="236.15384615384616"/>
      <point x="241.0769230769231" y="212.6153846153846"/>
    </contour>
    <contour>
      <point x="350.6923076923077" y="188.0" type="curve"/>
      <point x="402.2307692307692" y="237.53846153846155"/>
      <point x="467.3076923076923" y="293.7692307692308"/>
      <point x="501.46153846153845" y="293.7692307692308" type="curve" smooth="yes"/>
      <point x="516.2307692307693" y="293.7692307692308"/>
      <point x="523.2307692307693" y="286.0769230769231"/>
      <point x="523.2307692307693" y="275.7692307692308" type="curve" smooth="yes"/>
      <point x="523.2307692307693" y="222.30769230769232"/>
      <point x="426.3076923076923" y="193.46153846153845"/>
    </contour>
  </outline>
</glyph>
<glyph name="uni0794" format="2">
  <advance width="742.3846153846154"/>
  <unicode hex="0794"/>
  <outline>
    <contour>
      <point x="24.0" y="-78.0" type="curve" smooth="yes"/>
      <point x="47.07692307692308" y="-78.0"/>
      <point x="78.15384615384616" y="-72.07692307692308"/>
      <point x="129.84615384615384" y="-48.15384615384616" type="curve" smooth="yes"/>
      <point x="239.23076923076923" y="3.0"/>
      <point x="348.0769230769231" y="119.3076923076923"/>
      <point x="425.84615384615387" y="213.69230769230768" type="curve"/>
      <point x="462.84615384615387" y="219.6153846153846"/>
      <point x="501.6923076923077" y="228.30769230769232"/>
      <point x="541.1538461538462" y="244.76923076923077" type="curve"/>
      <point x="519.6153846153846" y="180.6153846153846"/>
      <point x="480.8461538461538" y="146.84615384615384"/>
      <point x="458.2307692307692" y="123.0" type="curve" smooth="yes"/>
      <point x="443.9230769230769" y="108.53846153846153"/>
      <point x="436.46153846153845" y="91.07692307692308"/>
      <point x="436.46153846153845" y="68.23076923076923" type="curve" smooth="yes"/>
      <point x="436.46153846153845" y="36.46153846153846"/>
      <point x="462.7692307692308" y="15.615384615384615"/>
      <point x="503.46153846153845" y="15.615384615384615" type="curve" smooth="yes"/>
      <point x="535.2307692307693" y="15.615384615384615"/>
      <point x="566.4615384615385" y="37.0"/>
      <point x="592.9230769230769" y="74.53846153846153" type="curve" smooth="yes"/>
      <point x="647.6923076923077" y="152.3846153846154"/>
      <point x="679.8461538461538" y="232.69230769230768"/>
      <point x="679.8461538461538" y="311.2307692307692" type="curve" smooth="yes"/>
      <point x="679.8461538461538" y="392.53846153846155"/>
      <point x="659.5384615384615" y="413.7692307692308"/>
      <point x="629.3076923076923" y="413.7692307692308" type="curve" smooth="yes"/>
      <point x="614.3846153846154" y="413.7692307692308"/>
      <point x="595.4615384615385" y="408.38461538461536"/>
      <point x="575.3076923076923" y="396.53846153846155" type="curve" smooth="yes"/>
      <point x="523.9230769230769" y="366.7692307692308"/>
      <point x="495.61538461538464" y="350.53846153846155"/>
      <point x="460.1538461538462" y="344.61538461538464" type="curve"/>
      <point x="438.3076923076923" y="380.38461538461536"/>
      <point x="412.38461538461536" y="405.7692307692308"/>
      <point x="363.2307692307692" y="405.7692307692308" type="curve" smooth="yes"/>
      <point x="290.3076923076923" y="405.7692307692308"/>
      <point x="249.15384615384613" y="355.6923076923077"/>
      <point x="249.15384615384613" y="301.61538461538464" type="curve" smooth="yes"/>
      <point x="249.15384615384613" y="272.3076923076923"/>
      <point x="260.61538461538464" y="247.0"/>
      <point x="291.46153846153845" y="229.6153846153846" type="curve"/>
      <point x="224.0769230769231" y="163.0"/>
      <point x="161.0" y="119.23076923076923"/>
      <point x="101.3076923076923" y="96.15384615384616" type="curve" smooth="yes"/>
      <point x="66.15384615384616" y="83.07692307692308"/>
      <point x="38.84615384615385" y="74.92307692307692"/>
      <point x="6.2307692307692335" y="67.38461538461539" type="curve" smooth="yes"/>
      <point x="-37.0" y="57.92307692307692"/>
      <point x="-60.84615384615385" y="32.15384615384616"/>
      <point x="-60.84615384615385" y="-5.07692307692308" type="curve" smooth="yes"/>
      <point x="-60.84615384615385" y="-49.23076923076923"/>
      <point x="-32.07692307692308" y="-78.0"/>
    </contour>
  </outline>
</glyph>
<glyph name="uni0796" format="2">
  <advance width="595.3846153846154"/>
  <unicode hex="0796"/>
  <outline>
    <contour>
      <point x="283.0769230769231" y="-157.3846153846154" type="curve" smooth="yes"/>
      <point x="355.6923076923077" y="-157.3846153846154"/>
      <point x="411.2307692307692" y="-151.84615384615384"/>
      <point x="448.7692307692308" y="-139.84615384615384" type="curve" smooth="yes"/>
      <point x="493.0" y="-125.46153846153845"/>
      <point x="514.8461538461538" y="-102.61538461538461"/>
      <point x="514.8461538461538" y="-74.3076923076923" type="curve" smooth="yes"/>
      <point x="514.8461538461538" y="-39.61538461538461"/>
      <point x="484.61538461538464" y="-22.692307692307693"/>
      <point x="461.2307692307692" y="-22.692307692307693" type="curve" smooth="yes"/>
      <point x="441.84615384615387" y="-22.692307692307693"/>
      <point x="419.46153846153845" y="-28.692307692307693"/>
      <point x="404.38461538461536" y="-31.230769230769226" type="curve" smooth="yes"/>
      <point x="382.3076923076923" y="-34.769230769230774"/>
      <point x="347.3076923076923" y="-40.30769230769231"/>
      <point x="282.15384615384613" y="-40.30769230769231" type="curve" smooth="yes"/>
      <point x="203.23076923076923" y="-40.30769230769231"/>
      <point x="171.23076923076923" y="-24.15384615384616"/>
      <point x="171.23076923076923" y="24.307692307692307" type="curve" smooth="yes"/>
      <point x="171.23076923076923" y="48.15384615384615"/>
      <point x="189.3846153846154" y="67.07692307692308"/>
      <point x="203.76923076923077" y="77.76923076923077" type="curve"/>
      <point x="220.9230769230769" y="74.76923076923077"/>
      <point x="245.3846153846154" y="72.76923076923077"/>
      <point x="271.3076923076923" y="72.76923076923077" type="curve" smooth="yes"/>
      <point x="402.46153846153845" y="72.76923076923077"/>
      <point x="508.84615384615387" y="148.23076923076923"/>
      <point x="508.84615384615387" y="250.92307692307693" type="curve" smooth="yes"/>
      <point x="508.84615384615387" y="277.0"/>
      <point x="495.3076923076923" y="310.9230769230769"/>
      <point x="468.0769230769231" y="322.0" type="curve"/>
      <point x="513.3846153846154" y="332.0"/>
      <point x="534.1538461538462" y="354.53846153846155"/>
      <point x="534.1538461538462" y="378.9230769230769" type="curve" smooth="yes"/>
      <point x="534.1538461538462" y="409.6923076923077"/>
      <point x="511.6923076923077" y="433.0"/>
      <point x="479.6923076923077" y="433.0" type="curve" smooth="yes"/>
      <point x="457.2307692307692" y="433.0"/>
      <point x="446.9230769230769" y="422.9230769230769"/>
      <point x="395.53846153846155" y="398.53846153846155" type="curve" smooth="yes"/>
      <point x="357.0769230769231" y="380.61538461538464"/>
      <point x="302.8461538461538" y="379.53846153846155"/>
      <point x="302.8461538461538" y="329.46153846153845" type="curve" smooth="yes"/>
      <point x="302.8461538461538" y="301.15384615384613"/>
      <point x="313.7692307692308" y="293.2307692307692"/>
      <point x="343.7692307692308" y="280.6923076923077" type="curve" smooth="yes"/>
      <point x="363.53846153846155" y="272.53846153846155"/>
      <point x="370.46153846153845" y="264.0769230769231"/>
      <point x="370.46153846153845" y="248.92307692307693" type="curve" smooth="yes"/>
      <point x="370.46153846153845" y="211.23076923076923"/>
      <point x="331.0" y="194.76923076923077"/>
      <point x="301.53846153846155" y="194.76923076923077" type="curve" smooth="yes"/>
      <point x="288.0" y="194.76923076923077"/>
      <point x="264.0769230769231" y="196.76923076923077"/>
      <point x="252.6153846153846" y="198.76923076923077" type="curve"/>
      <point x="242.15384615384616" y="233.53846153846155"/>
      <point x="221.15384615384616" y="263.38461538461536"/>
      <point x="175.46153846153845" y="263.38461538461536" type="curve" smooth="yes"/>
      <point x="136.23076923076923" y="263.38461538461536"/>
      <point x="91.61538461538461" y="232.6153846153846"/>
      <point x="91.61538461538461" y="177.84615384615384" type="curve" smooth="yes"/>
      <point x="91.61538461538461" y="162.6153846153846"/>
      <point x="98.61538461538461" y="143.23076923076923"/>
      <point x="113.38461538461539" y="130.0" type="curve"/>
      <point x="70.15384615384616" y="101.53846153846155"/>
      <point x="35.84615384615385" y="50.84615384615385"/>
      <point x="35.84615384615385" y="-1.46153846153846" type="curve" smooth="yes"/>
      <point x="35.84615384615385" y="-103.53846153846155"/>
      <point x="122.38461538461539" y="-157.3846153846154"/>
    </contour>
  </outline>
</glyph>
<glyph name="uni0797" format="2">
  <advance width="640.5384615384615"/>
  <unicode hex="0797"/>
  <outline>
    <contour>
      <point x="24.230769230769226" y="-157.53846153846155" type="curve" smooth="yes"/>
      <point x="55.46153846153847" y="-157.53846153846155"/>
      <point x="80.38461538461539" y="-147.0"/>
      <point x="121.07692307692308" y="-122.38461538461539" type="curve" smooth="yes"/>
      <point x="213.23076923076923" y="-65.61538461538461"/>
      <point x="238.23076923076923" y="-22.230769230769234"/>
      <point x="238.23076923076923" y="25.615384615384613" type="curve" smooth="yes"/>
      <point x="238.23076923076923" y="43.69230769230769"/>
      <point x="226.69230769230768" y="65.6923076923077"/>
      <point x="208.0769230769231" y="84.61538461538461" type="curve" smooth="yes"/>
      <point x="196.3846153846154" y="96.15384615384616"/>
      <point x="190.84615384615384" y="103.23076923076923"/>
      <point x="189.9230769230769" y="105.76923076923077" type="curve" smooth="yes"/>
      <point x="191.76923076923077" y="108.6923076923077"/>
      <point x="202.23076923076923" y="119.23076923076923"/>
      <point x="211.6153846153846" y="126.07692307692308" type="curve"/>
      <point x="241.69230769230768" y="81.6923076923077"/>
      <point x="291.3076923076923" y="60.53846153846154"/>
      <point x="357.84615384615387" y="60.53846153846154" type="curve" smooth="yes"/>
      <point x="445.15384615384613" y="60.53846153846154"/>
      <point x="540.3076923076923" y="135.6153846153846"/>
      <point x="540.3076923076923" y="218.84615384615384" type="curve" smooth="yes"/>
      <point x="540.3076923076923" y="267.9230769230769"/>
      <point x="518.9230769230769" y="305.15384615384613"/>
      <point x="480.0769230769231" y="327.9230769230769" type="curve"/>
      <point x="516.9230769230769" y="349.53846153846155"/>
      <point x="604.5384615384615" y="403.15384615384613"/>
      <point x="644.3076923076923" y="433.53846153846155" type="curve" smooth="yes"/>
      <point x="675.0769230769231" y="456.7692307692308"/>
      <point x="685.0" y="473.0769230769231"/>
      <point x="685.0" y="488.3076923076923" type="curve" smooth="yes"/>
      <point x="685.0" y="515.2307692307693"/>
      <point x="671.1538461538462" y="533.4615384615385"/>
      <point x="641.2307692307693" y="533.4615384615385" type="curve" smooth="yes"/>
      <point x="622.0769230769231" y="533.4615384615385"/>
      <point x="608.0" y="530.0769230769231"/>
      <point x="592.9230769230769" y="524.0769230769231" type="curve" smooth="yes"/>
      <point x="538.9230769230769" y="503.2307692307692"/>
      <point x="476.38461538461536" y="461.53846153846155"/>
      <point x="325.46153846153845" y="354.38461538461536" type="curve" smooth="yes"/>
      <point x="110.53846153846155" y="202.3846153846154"/>
      <point x="56.0" y="131.46153846153845"/>
      <point x="56.0" y="93.84615384615384" type="curve" smooth="yes"/>
      <point x="56.0" y="81.38461538461539"/>
      <point x="70.0" y="66.38461538461539"/>
      <point x="85.61538461538461" y="48.38461538461539" type="curve" smooth="yes"/>
      <point x="95.76923076923077" y="37.30769230769231"/>
      <point x="101.38461538461539" y="29.230769230769234"/>
      <point x="101.38461538461539" y="23.769230769230774" type="curve" smooth="yes"/>
      <point x="101.38461538461539" y="5.846153846153854"/>
      <point x="63.38461538461539" y="-3.0"/>
      <point x="16.769230769230766" y="-15.15384615384616" type="curve" smooth="yes"/>
      <point x="-28.923076923076923" y="-27.076923076923066"/>
      <point x="-51.76923076923077" y="-52.84615384615384"/>
      <point x="-51.76923076923077" y="-90.07692307692308" type="curve" smooth="yes"/>
      <point x="-51.76923076923077" y="-132.76923076923077"/>
      <point x="-22.53846153846154" y="-157.53846153846155"/>
    </contour>
    <contour>
      <point x="346.46153846153845" y="170.69230769230768" type="curve" smooth="yes"/>
      <point x="316.0" y="170.69230769230768"/>
      <point x="301.1538461538462" y="185.0"/>
      <point x="294.46153846153845" y="213.84615384615384" type="curve"/>
      <point x="326.9230769230769" y="241.3846153846154"/>
      <point x="350.7692307692308" y="253.0"/>
      <point x="369.61538461538464" y="253.0" type="curve" smooth="yes"/>
      <point x="391.3076923076923" y="253.0"/>
      <point x="402.9230769230769" y="239.76923076923077"/>
      <point x="402.9230769230769" y="221.0" type="curve" smooth="yes"/>
      <point x="402.9230769230769" y="192.76923076923077"/>
      <point x="377.6923076923077" y="170.69230769230768"/>
    </contour>
  </outline>
</glyph>
<glyph name="uni0798" format="2">
  <advance width="662.0769230769231"/>
  <unicode hex="0798"/>
  <outline>
    <contour>
      <point x="109.3076923076923" y="-43.53846153846154" type="curve" smooth="yes"/>
      <point x="214.0769230769231" y="-43.53846153846154"/>
      <point x="310.7692307692308" y="8.846153846153847"/>
      <point x="310.7692307692308" y="83.23076923076923" type="curve" smooth="yes"/>
      <point x="310.7692307692308" y="106.6923076923077"/>
      <point x="296.1538461538462" y="122.84615384615384"/>
      <point x="276.9230769230769" y="142.3846153846154" type="curve" smooth="yes"/>
      <point x="260.8461538461538" y="158.84615384615384"/>
      <point x="249.3846153846154" y="171.23076923076923"/>
      <point x="249.3846153846154" y="173.76923076923077" type="curve" smooth="yes"/>
      <point x="249.3846153846154" y="180.23076923076923"/>
      <point x="259.3076923076923" y="191.23076923076923"/>
      <point x="267.61538461538464" y="198.0" type="curve"/>
      <point x="294.53846153846155" y="170.69230769230768"/>
      <point x="354.46153846153845" y="141.76923076923077"/>
      <point x="408.0" y="141.76923076923077" type="curve" smooth="yes"/>
      <point x="500.15384615384613" y="141.76923076923077"/>
      <point x="600.2307692307693" y="206.6153846153846"/>
      <point x="600.2307692307693" y="306.38461538461536" type="curve" smooth="yes"/>
      <point x="600.2307692307693" y="373.1538461538462"/>
      <point x="549.4615384615385" y="411.0"/>
      <point x="477.0769230769231" y="411.0" type="curve" smooth="yes"/>
      <point x="366.0769230769231" y="411.0"/>
      <point x="129.30769230769232" y="282.46153846153845"/>
      <point x="129.30769230769232" y="165.30769230769232" type="curve" smooth="yes"/>
      <point x="129.30769230769232" y="151.46153846153845"/>
      <point x="136.76923076923077" y="138.30769230769232"/>
      <point x="158.46153846153845" y="121.84615384615384" type="curve" smooth="yes"/>
      <point x="170.15384615384616" y="112.76923076923077"/>
      <point x="177.84615384615384" y="104.23076923076923"/>
      <point x="177.84615384615384" y="97.6923076923077" type="curve" smooth="yes"/>
      <point x="177.84615384615384" y="81.23076923076923"/>
      <point x="159.3846153846154" y="72.53846153846155"/>
      <point x="116.46153846153847" y="72.53846153846155" type="curve" smooth="yes"/>
      <point x="101.38461538461539" y="72.53846153846155"/>
      <point x="84.15384615384616" y="77.53846153846155"/>
      <point x="70.46153846153847" y="80.61538461538461" type="curve" smooth="yes"/>
      <point x="58.61538461538461" y="83.61538461538461"/>
      <point x="44.84615384615384" y="86.07692307692308"/>
      <point x="30.15384615384616" y="86.07692307692308" type="curve" smooth="yes"/>
      <point x="-13.53846153846154" y="86.07692307692308"/>
      <point x="-29.53846153846154" y="62.769230769230774"/>
      <point x="-29.53846153846154" y="25.53846153846154" type="curve" smooth="yes"/>
      <point x="-29.53846153846154" y="-5.2307692307692335"/>
      <point x="-3.384615384615387" y="-27.076923076923077"/>
      <point x="39.92307692307692" y="-36.07692307692308" type="curve" smooth="yes"/>
      <point x="62.61538461538461" y="-40.53846153846154"/>
      <point x="85.15384615384616" y="-43.53846153846154"/>
    </contour>
    <contour>
      <point x="384.2307692307692" y="246.46153846153845" type="curve" smooth="yes"/>
      <point x="367.84615384615387" y="246.46153846153845"/>
      <point x="347.0" y="251.6153846153846"/>
      <point x="328.2307692307692" y="263.0" type="curve"/>
      <point x="356.7692307692308" y="280.3076923076923"/>
      <point x="411.9230769230769" y="312.2307692307692"/>
      <point x="450.61538461538464" y="312.2307692307692" type="curve" smooth="yes"/>
      <point x="459.46153846153845" y="312.2307692307692"/>
      <point x="467.61538461538464" y="308.2307692307692"/>
      <point x="467.61538461538464" y="300.7692307692308" type="curve" smooth="yes"/>
      <point x="467.61538461538464" y="268.61538461538464"/>
      <point x="433.61538461538464" y="246.46153846153845"/>
    </contour>
    <contour>
      <point x="453.38461538461536" y="583.7692307692307" type="curve" smooth="yes"/>
      <point x="489.0" y="582.3846153846154"/>
      <point x="525.5384615384615" y="610.1538461538462"/>
      <point x="526.4615384615385" y="650.7692307692307" type="curve" smooth="yes"/>
      <point x="527.3846153846154" y="688.2307692307693"/>
      <point x="503.0" y="714.0769230769231"/>
      <point x="467.7692307692308" y="715.4615384615385" type="curve" smooth="yes"/>
      <point x="431.15384615384613" y="716.8461538461538"/>
      <point x="398.0" y="688.0769230769231"/>
      <point x="396.15384615384613" y="647.4615384615385" type="curve" smooth="yes"/>
      <point x="394.3076923076923" y="611.8461538461538"/>
      <point x="419.15384615384613" y="585.1538461538462"/>
    </contour>
    <contour>
      <point x="340.0" y="435.53846153846155" type="curve" smooth="yes"/>
      <point x="374.6923076923077" y="434.15384615384613"/>
      <point x="411.2307692307692" y="461.9230769230769"/>
      <point x="412.15384615384613" y="502.53846153846155" type="curve" smooth="yes"/>
      <point x="413.0769230769231" y="540.0"/>
      <point x="389.61538461538464" y="566.3076923076924"/>
      <point x="353.46153846153845" y="567.2307692307693" type="curve" smooth="yes"/>
      <point x="318.7692307692308" y="568.1538461538462"/>
      <point x="283.6923076923077" y="539.8461538461538"/>
      <point x="281.8461538461538" y="499.2307692307692" type="curve" smooth="yes"/>
      <point x="280.46153846153845" y="464.0769230769231"/>
      <point x="304.8461538461538" y="436.9230769230769"/>
    </contour>
    <contour>
      <point x="542.6923076923077" y="435.53846153846155" type="curve" smooth="yes"/>
      <point x="578.8461538461538" y="434.15384615384613"/>
      <point x="615.3846153846154" y="461.9230769230769"/>
      <point x="616.3076923076923" y="502.53846153846155" type="curve" smooth="yes"/>
      <point x="617.2307692307693" y="540.0"/>
      <point x="592.3076923076923" y="565.8461538461538"/>
      <point x="557.6153846153846" y="567.2307692307693" type="curve" smooth="yes"/>
      <point x="520.4615384615385" y="568.6153846153846"/>
      <point x="487.84615384615387" y="539.8461538461538"/>
      <point x="486.0" y="499.2307692307692" type="curve" smooth="yes"/>
      <point x="484.15384615384613" y="463.61538461538464"/>
      <point x="507.53846153846155" y="436.9230769230769"/>
    </contour>
  </outline>
</glyph>
<glyph name="uni0799" format="2">
  <advance width="544.8461538461538"/>
  <unicode hex="0799"/>
  <outline>
    <contour>
      <point x="91.38461538461539" y="-10.461538461538462" type="curve" smooth="yes"/>
      <point x="180.3846153846154" y="-10.461538461538462"/>
      <point x="267.3076923076923" y="61.07692307692308"/>
      <point x="385.46153846153845" y="164.53846153846155" type="curve" smooth="yes"/>
      <point x="457.0" y="227.46153846153845"/>
      <point x="484.7692307692308" y="258.2307692307692"/>
      <point x="501.46153846153845" y="283.84615384615387" type="curve" smooth="yes"/>
      <point x="517.2307692307693" y="307.61538461538464"/>
      <point x="519.0769230769231" y="323.0"/>
      <point x="519.0769230769231" y="334.38461538461536" type="curve" smooth="yes"/>
      <point x="519.0769230769231" y="363.1538461538462"/>
      <point x="502.2307692307692" y="382.46153846153845"/>
      <point x="467.53846153846155" y="382.46153846153845" type="curve" smooth="yes"/>
      <point x="443.6923076923077" y="382.46153846153845"/>
      <point x="418.38461538461536" y="370.46153846153845"/>
      <point x="388.7692307692308" y="340.46153846153845" type="curve" smooth="yes"/>
      <point x="361.0" y="312.7692307692308"/>
      <point x="305.9230769230769" y="265.7692307692308"/>
      <point x="267.84615384615387" y="237.69230769230768" type="curve" smooth="yes"/>
      <point x="207.30769230769232" y="194.0769230769231"/>
      <point x="144.53846153846155" y="149.3846153846154"/>
      <point x="81.61538461538461" y="132.9230769230769" type="curve" smooth="yes"/>
      <point x="36.46153846153846" y="121.0"/>
      <point x="13.615384615384617" y="95.23076923076923"/>
      <point x="13.615384615384617" y="55.53846153846153" type="curve" smooth="yes"/>
      <point x="13.615384615384617" y="13.846153846153847"/>
      <point x="42.92307692307692" y="-10.461538461538462"/>
    </contour>
    <contour>
      <point x="415.15384615384613" y="-30.692307692307693" type="curve" smooth="yes"/>
      <point x="453.38461538461536" y="-30.692307692307693"/>
      <point x="491.15384615384613" y="-0.384615384615385"/>
      <point x="491.15384615384613" y="44.769230769230774" type="curve" smooth="yes"/>
      <point x="491.15384615384613" y="83.0"/>
      <point x="461.84615384615387" y="112.76923076923077"/>
      <point x="423.15384615384613" y="112.76923076923077" type="curve" smooth="yes"/>
      <point x="383.84615384615387" y="112.76923076923077"/>
      <point x="348.61538461538464" y="80.0"/>
      <point x="348.61538461538464" y="36.30769230769231" type="curve" smooth="yes"/>
      <point x="348.61538461538464" y="-2.384615384615385"/>
      <point x="376.38461538461536" y="-30.692307692307693"/>
    </contour>
  </outline>
</glyph>
<glyph name="uni079D" format="2">
  <advance width="1019.0"/>
  <unicode hex="079D"/>
  <outline>
    <contour>
      <point x="102.38461538461539" y="35.15384615384615" type="curve" smooth="yes"/>
      <point x="134.15384615384616" y="35.15384615384615"/>
      <point x="162.53846153846155" y="48.53846153846154"/>
      <point x="205.30769230769232" y="87.23076923076923" type="curve" smooth="yes"/>
      <point x="241.6153846153846" y="123.15384615384616"/>
      <point x="254.53846153846155" y="143.92307692307693"/>
      <point x="268.6923076923077" y="173.30769230769232" type="curve"/>
      <point x="415.0769230769231" y="158.30769230769232"/>
      <point x="465.0769230769231" y="154.76923076923077"/>
      <point x="566.9230769230769" y="154.76923076923077" type="curve" smooth="yes"/>
      <point x="685.7692307692307" y="154.76923076923077"/>
      <point x="813.0" y="159.0769230769231"/>
      <point x="908.5384615384615" y="227.15384615384616" type="curve" smooth="yes"/>
      <point x="939.0769230769231" y="249.15384615384616"/>
      <point x="963.5384615384615" y="277.0"/>
      <point x="979.5384615384615" y="305.0" type="curve" smooth="yes"/>
      <point x="991.5384615384615" y="326.53846153846155"/>
      <point x="998.0769230769231" y="348.53846153846155"/>
      <point x="998.0769230769231" y="369.46153846153845" type="curve" smooth="yes"/>
      <point x="998.0769230769231" y="402.6923076923077"/>
      <point x="983.6923076923077" y="425.53846153846155"/>
      <point x="943.0" y="425.53846153846155" type="curve" smooth="yes"/>
      <point x="911.2307692307693" y="425.53846153846155"/>
      <point x="891.8461538461538" y="407.15384615384613"/>
      <point x="875.0" y="377.3076923076923" type="curve" smooth="yes"/>
      <point x="864.9230769230769" y="358.61538461538464"/>
      <point x="847.3846153846154" y="327.53846153846155"/>
      <point x="818.6923076923077" y="309.46153846153845" type="curve" smooth="yes"/>
      <point x="786.6923076923077" y="289.0"/>
      <point x="723.6923076923077" y="274.3076923076923"/>
      <point x="544.6153846153846" y="274.3076923076923" type="curve" smooth="yes"/>
      <point x="445.38461538461536" y="274.3076923076923"/>
      <point x="362.15384615384613" y="276.38461538461536"/>
      <point x="290.0769230769231" y="285.9230769230769" type="curve"/>
      <point x="291.0" y="336.1538461538462"/>
      <point x="258.1538461538462" y="391.2307692307692"/>
      <point x="194.6153846153846" y="391.2307692307692" type="curve" smooth="yes"/>
      <point x="136.53846153846155" y="391.2307692307692"/>
      <point x="92.38461538461539" y="338.1538461538462"/>
      <point x="92.38461538461539" y="294.0" type="curve" smooth="yes"/>
      <point x="92.38461538461539" y="260.6923076923077"/>
      <point x="99.92307692307693" y="236.30769230769232"/>
      <point x="155.0769230769231" y="205.53846153846155" type="curve"/>
      <point x="143.3846153846154" y="180.6153846153846"/>
      <point x="106.84615384615384" y="157.53846153846155"/>
      <point x="80.15384615384616" y="148.30769230769232" type="curve" smooth="yes"/>
      <point x="46.84615384615385" y="136.3846153846154"/>
      <point x="29.46153846153846" y="118.0"/>
      <point x="29.46153846153846" y="93.6923076923077" type="curve" smooth="yes"/>
      <point x="29.46153846153846" y="58.46153846153846"/>
      <point x="57.69230769230769" y="35.15384615384615"/>
    </contour>
    <contour>
      <point x="571.3846153846154" y="482.46153846153845" type="curve" smooth="yes"/>
      <point x="607.0" y="481.0769230769231"/>
      <point x="643.5384615384615" y="508.84615384615387"/>
      <point x="644.4615384615385" y="549.4615384615385" type="curve" smooth="yes"/>
      <point x="645.3846153846154" y="586.9230769230769"/>
      <point x="621.0" y="612.7692307692307"/>
      <point x="585.7692307692307" y="614.1538461538462" type="curve" smooth="yes"/>
      <point x="549.1538461538462" y="615.5384615384615"/>
      <point x="516.0" y="586.7692307692307"/>
      <point x="514.1538461538462" y="546.1538461538462" type="curve" smooth="yes"/>
      <point x="512.3076923076923" y="510.53846153846155"/>
      <point x="537.1538461538462" y="483.84615384615387"/>
    </contour>
    <contour>
      <point x="458.0" y="334.2307692307692" type="curve" smooth="yes"/>
      <point x="492.6923076923077" y="332.84615384615387"/>
      <point x="529.2307692307693" y="360.61538461538464"/>
      <point x="530.1538461538462" y="401.2307692307692" type="curve" smooth="yes"/>
      <point x="531.0769230769231" y="438.6923076923077"/>
      <point x="507.61538461538464" y="465.0"/>
      <point x="471.46153846153845" y="465.9230769230769" type="curve" smooth="yes"/>
      <point x="436.7692307692308" y="466.8461538461538"/>
      <point x="401.6923076923077" y="438.53846153846155"/>
      <point x="399.8461538461538" y="397.9230769230769" type="curve" smooth="yes"/>
      <point x="398.46153846153845" y="362.7692307692308"/>
      <point x="422.8461538461538" y="335.61538461538464"/>
    </contour>
    <contour>
      <point x="660.6923076923077" y="334.2307692307692" type="curve" smooth="yes"/>
      <point x="696.8461538461538" y="332.84615384615387"/>
      <point x="733.3846153846154" y="360.61538461538464"/>
      <point x="734.3076923076923" y="401.2307692307692" type="curve" smooth="yes"/>
      <point x="735.2307692307693" y="438.6923076923077"/>
      <point x="710.3076923076923" y="464.53846153846155"/>
      <point x="675.6153846153846" y="465.9230769230769" type="curve" smooth="yes"/>
      <point x="638.4615384615385" y="467.3076923076923"/>
      <point x="605.8461538461538" y="438.53846153846155"/>
      <point x="604.0" y="397.9230769230769" type="curve" smooth="yes"/>
      <point x="602.1538461538462" y="362.3076923076923"/>
      <point x="625.5384615384615" y="335.61538461538464"/>
    </contour>
  </outline>
</glyph>
<glyph name="uni079F" format="2">
  <advance width="1019.0"/>
  <unicode hex="079F"/>
  <outline>
    <contour>
      <point x="102.38461538461539" y="35.15384615384615" type="curve" smooth="yes"/>
      <point x="134.15384615384616" y="35.15384615384615"/>
      <point x="162.53846153846155" y="48.53846153846154"/>
      <point x="205.30769230769232" y="87.23076923076923" type="curve" smooth="yes"/>
      <point x="241.6153846153846" y="123.15384615384616"/>
      <point x="254.53846153846155" y="143.92307692307693"/>
      <point x="268.6923076923077" y="173.30769230769232" type="curve"/>
      <point x="415.0769230769231" y="158.30769230769232"/>
      <point x="465.0769230769231" y="154.76923076923077"/>
      <point x="566.9230769230769" y="154.76923076923077" type="curve" smooth="yes"/>
      <point x="685.7692307692307" y="154.76923076923077"/>
      <point x="813.0" y="159.0769230769231"/>
      <point x="908.5384615384615" y="227.15384615384616" type="curve" smooth="yes"/>
      <point x="939.0769230769231" y="249.15384615384616"/>
      <point x="963.5384615384615" y="277.0"/>
      <point x="979.5384615384615" y="305.0" type="curve" smooth="yes"/>
      <point x="991.5384615384615" y="326.53846153846155"/>
      <point x="998.0769230769231" y="348.53846153846155"/>
      <point x="998.0769230769231" y="369.46153846153845" type="curve" smooth="yes"/>
      <point x="998.0769230769231" y="402.6923076923077"/>
      <point x="983.6923076923077" y="425.53846153846155"/>
      <point x="943.0" y="425.53846153846155" type="curve" smooth="yes"/>
      <point x="911.2307692307693" y="425.53846153846155"/>
      <point x="891.8461538461538" y="407.15384615384613"/>
      <point x="875.0" y="377.3076923076923" type="curve" smooth="yes"/>
      <point x="864.9230769230769" y="358.61538461538464"/>
      <point x="847.3846153846154" y="327.53846153846155"/>
      <point x="818.6923076923077" y="309.46153846153845" type="curve" smooth="yes"/>
      <point x="786.6923076923077" y="289.0"/>
      <point x="723.6923076923077" y="274.3076923076923"/>
      <point x="544.6153846153846" y="274.3076923076923" type="curve" smooth="yes"/>
      <point x="445.38461538461536" y="274.3076923076923"/>
      <point x="362.15384615384613" y="276.38461538461536"/>
      <point x="290.0769230769231" y="285.9230769230769" type="curve"/>
      <point x="291.0" y="336.1538461538462"/>
      <point x="258.1538461538462" y="391.2307692307692"/>
      <point x="194.6153846153846" y="391.2307692307692" type="curve" smooth="yes"/>
      <point x="136.53846153846155" y="391.2307692307692"/>
      <point x="92.38461538461539" y="338.1538461538462"/>
      <point x="92.38461538461539" y="294.0" type="curve" smooth="yes"/>
      <point x="92.38461538461539" y="260.6923076923077"/>
      <point x="99.92307692307693" y="236.30769230769232"/>
      <point x="155.0769230769231" y="205.53846153846155" type="curve"/>
      <point x="143.3846153846154" y="180.6153846153846"/>
      <point x="106.84615384615384" y="157.53846153846155"/>
      <point x="80.15384615384616" y="148.30769230769232" type="curve" smooth="yes"/>
      <point x="46.84615384615385" y="136.3846153846154"/>
      <point x="29.46153846153846" y="118.0"/>
      <point x="29.46153846153846" y="93.6923076923077" type="curve" smooth="yes"/>
      <point x="29.46153846153846" y="58.46153846153846"/>
      <point x="57.69230769230769" y="35.15384615384615"/>
    </contour>
    <contour>
      <point x="559.8461538461538" y="335.0769230769231" type="curve" smooth="yes"/>
      <point x="598.0769230769231" y="335.0769230769231"/>
      <point x="635.8461538461538" y="365.84615384615387"/>
      <point x="635.8461538461538" y="408.53846153846155" type="curve" smooth="yes"/>
      <point x="635.8461538461538" y="447.7692307692308"/>
      <point x="606.5384615384615" y="479.0"/>
      <point x="568.3076923076923" y="479.0" type="curve" smooth="yes"/>
      <point x="528.5384615384615" y="479.0"/>
      <point x="493.7692307692308" y="446.2307692307692"/>
      <point x="493.7692307692308" y="402.0769230769231" type="curve" smooth="yes"/>
      <point x="493.7692307692308" y="363.38461538461536"/>
      <point x="521.0769230769231" y="335.0769230769231"/>
    </contour>
  </outline>
</glyph>
<glyph name="uni07A1" format="2">
  <advance width="657.9230769230769"/>
  <unicode hex="07A1"/>
  <outline>
    <contour>
      <point x="109.3076923076923" y="-43.53846153846154" type="curve" smooth="yes"/>
      <point x="214.0769230769231" y="-43.53846153846154"/>
      <point x="310.7692307692308" y="8.846153846153847"/>
      <point x="310.7692307692308" y="83.23076923076923" type="curve" smooth="yes"/>
      <point x="310.7692307692308" y="106.6923076923077"/>
      <point x="296.15384615384613" y="122.84615384615384"/>
      <point x="276.9230769230769" y="142.3846153846154" type="curve" smooth="yes"/>
      <point x="260.84615384615387" y="158.84615384615384"/>
      <point x="249.3846153846154" y="171.23076923076923"/>
      <point x="249.3846153846154" y="173.76923076923077" type="curve" smooth="yes"/>
      <point x="249.3846153846154" y="180.23076923076923"/>
      <point x="259.3076923076923" y="191.23076923076923"/>
      <point x="267.61538461538464" y="198.0" type="curve"/>
      <point x="294.53846153846155" y="170.69230769230768"/>
      <point x="354.46153846153845" y="141.76923076923077"/>
      <point x="408.0" y="141.76923076923077" type="curve" smooth="yes"/>
      <point x="500.1538461538462" y="141.76923076923077"/>
      <point x="600.2307692307693" y="206.6153846153846"/>
      <point x="600.2307692307693" y="306.38461538461536" type="curve" smooth="yes"/>
      <point x="600.2307692307693" y="373.1538461538462"/>
      <point x="549.4615384615385" y="411.0"/>
      <point x="477.0769230769231" y="411.0" type="curve" smooth="yes"/>
      <point x="366.0769230769231" y="411.0"/>
      <point x="129.30769230769232" y="282.46153846153845"/>
      <point x="129.30769230769232" y="165.30769230769232" type="curve" smooth="yes"/>
      <point x="129.30769230769232" y="151.46153846153845"/>
      <point x="136.76923076923077" y="138.30769230769232"/>
      <point x="158.46153846153845" y="121.84615384615384" type="curve" smooth="yes"/>
      <point x="170.15384615384616" y="112.76923076923077"/>
      <point x="177.84615384615384" y="104.23076923076923"/>
      <point x="177.84615384615384" y="97.6923076923077" type="curve" smooth="yes"/>
      <point x="177.84615384615384" y="81.23076923076923"/>
      <point x="159.3846153846154" y="72.53846153846155"/>
      <point x="116.46153846153845" y="72.53846153846155" type="curve" smooth="yes"/>
      <point x="101.38461538461539" y="72.53846153846155"/>
      <point x="84.15384615384616" y="77.53846153846155"/>
      <point x="70.46153846153845" y="80.61538461538461" type="curve" smooth="yes"/>
      <point x="58.61538461538461" y="83.61538461538461"/>
      <point x="44.84615384615385" y="86.07692307692308"/>
      <point x="30.153846153846153" y="86.07692307692308" type="curve" smooth="yes"/>
      <point x="-13.538461538461538" y="86.07692307692308"/>
      <point x="-29.53846153846154" y="62.769230769230774"/>
      <point x="-29.53846153846154" y="25.53846153846154" type="curve" smooth="yes"/>
      <point x="-29.53846153846154" y="-5.2307692307692335"/>
      <point x="-3.384615384615385" y="-27.076923076923077"/>
      <point x="39.92307692307692" y="-36.07692307692308" type="curve" smooth="yes"/>
      <point x="62.61538461538461" y="-40.53846153846154"/>
      <point x="85.15384615384616" y="-43.53846153846154"/>
    </contour>
    <contour>
      <point x="384.2307692307692" y="246.46153846153845" type="curve" smooth="yes"/>
      <point x="367.8461538461538" y="246.46153846153845"/>
      <point x="347.0" y="251.6153846153846"/>
      <point x="328.2307692307692" y="263.0" type="curve"/>
      <point x="356.7692307692308" y="280.3076923076923"/>
      <point x="411.9230769230769" y="312.2307692307692"/>
      <point x="450.61538461538464" y="312.2307692307692" type="curve" smooth="yes"/>
      <point x="459.46153846153845" y="312.2307692307692"/>
      <point x="467.61538461538464" y="308.2307692307692"/>
      <point x="467.61538461538464" y="300.7692307692308" type="curve" smooth="yes"/>
      <point x="467.61538461538464" y="268.61538461538464"/>
      <point x="433.61538461538464" y="246.46153846153845"/>
    </contour>
    <contour>
      <point x="473.61538461538464" y="434.84615384615387" type="curve" smooth="yes"/>
      <point x="511.84615384615387" y="434.84615384615387"/>
      <point x="549.6153846153846" y="465.61538461538464"/>
      <point x="549.6153846153846" y="508.3076923076923" type="curve" smooth="yes"/>
      <point x="549.6153846153846" y="547.5384615384615"/>
      <point x="520.3076923076923" y="578.7692307692307"/>
      <point x="482.0769230769231" y="578.7692307692307" type="curve" smooth="yes"/>
      <point x="442.3076923076923" y="578.7692307692307"/>
      <point x="407.53846153846155" y="546.0"/>
      <point x="407.53846153846155" y="501.84615384615387" type="curve" smooth="yes"/>
      <point x="407.53846153846155" y="463.15384615384613"/>
      <point x="434.84615384615387" y="434.84615384615387"/>
    </contour>
  </outline>
</glyph>
<glyph name="uni07A2" format="2">
  <advance width="544.9230769230769"/>
  <unicode hex="07A2"/>
  <outline>
    <contour>
      <point x="9.615384615384613" y="-10.461538461538462" type="curve" smooth="yes"/>
      <point x="55.92307692307692" y="-10.461538461538462"/>
      <point x="102.23076923076923" y="20.46153846153846"/>
      <point x="174.9230769230769" y="70.3076923076923" type="curve" smooth="yes"/>
      <point x="225.84615384615384" y="105.6923076923077"/>
      <point x="328.1538461538462" y="198.3846153846154"/>
      <point x="360.61538461538464" y="235.6153846153846" type="curve"/>
      <point x="355.0769230769231" y="199.46153846153845"/>
      <point x="336.1538461538462" y="164.84615384615384"/>
      <point x="314.9230769230769" y="130.9230769230769" type="curve" smooth="yes"/>
      <point x="297.2307692307692" y="102.61538461538461"/>
      <point x="281.46153846153845" y="79.0"/>
      <point x="281.46153846153845" y="51.230769230769226" type="curve" smooth="yes"/>
      <point x="281.46153846153845" y="19.923076923076923"/>
      <point x="308.2307692307692" y="-0.46153846153846156"/>
      <point x="346.61538461538464" y="-0.46153846153846156" type="curve" smooth="yes"/>
      <point x="377.0" y="-0.46153846153846156"/>
      <point x="402.61538461538464" y="20.46153846153846"/>
      <point x="436.0" y="76.23076923076923" type="curve" smooth="yes"/>
      <point x="472.0" y="135.69230769230768"/>
      <point x="491.0769230769231" y="202.76923076923077"/>
      <point x="491.0769230769231" y="270.9230769230769" type="curve" smooth="yes"/>
      <point x="491.0769230769231" y="345.38461538461536"/>
      <point x="459.38461538461536" y="381.0769230769231"/>
      <point x="402.2307692307692" y="381.0769230769231" type="curve" smooth="yes"/>
      <point x="359.38461538461536" y="381.0769230769231"/>
      <point x="318.0769230769231" y="356.2307692307692"/>
      <point x="276.0" y="312.0" type="curve" smooth="yes"/>
      <point x="234.6153846153846" y="268.0"/>
      <point x="185.15384615384616" y="226.23076923076923"/>
      <point x="133.07692307692307" y="192.46153846153845" type="curve" smooth="yes"/>
      <point x="91.76923076923077" y="165.84615384615387"/>
      <point x="42.84615384615385" y="142.46153846153845"/>
      <point x="0.2307692307692335" y="129.46153846153845" type="curve" smooth="yes"/>
      <point x="-39.0" y="117.07692307692308"/>
      <point x="-60.84615384615385" y="91.76923076923077"/>
      <point x="-60.84615384615385" y="55.53846153846153" type="curve" smooth="yes"/>
      <point x="-60.84615384615385" y="12.846153846153847"/>
      <point x="-35.0" y="-10.461538461538462"/>
    </contour>
    <contour>
      <point x="189.53846153846155" y="-132.69230769230768" type="curve" smooth="yes"/>
      <point x="227.30769230769232" y="-132.69230769230768"/>
      <point x="265.53846153846155" y="-102.38461538461539"/>
      <point x="265.53846153846155" y="-57.230769230769226" type="curve" smooth="yes"/>
      <point x="265.53846153846155" y="-19.0"/>
      <point x="236.23076923076923" y="10.769230769230774"/>
      <point x="197.53846153846155" y="10.769230769230774" type="curve" smooth="yes"/>
      <point x="158.23076923076923" y="10.769230769230774"/>
      <point x="123.0" y="-22.0"/>
      <point x="123.0" y="-65.6923076923077" type="curve" smooth="yes"/>
      <point x="123.0" y="-104.38461538461539"/>
      <point x="150.76923076923077" y="-132.69230769230768"/>
    </contour>
  </outline>
</glyph>
<glyph name="uni07A4" format="2">
  <advance width="502.46153846153845"/>
  <unicode hex="07A4"/>
  <outline>
    <contour>
      <point x="63.15384615384615" y="-44.92307692307692" type="curve" smooth="yes"/>
      <point x="203.69230769230768" y="-44.92307692307692"/>
      <point x="367.7692307692308" y="10.461538461538462"/>
      <point x="367.7692307692308" y="116.61538461538461" type="curve" smooth="yes"/>
      <point x="367.7692307692308" y="140.69230769230768"/>
      <point x="347.2307692307692" y="163.23076923076923"/>
      <point x="328.0769230769231" y="182.76923076923077" type="curve" smooth="yes"/>
      <point x="310.0" y="201.23076923076923"/>
      <point x="300.38461538461536" y="216.53846153846155"/>
      <point x="300.38461538461536" y="221.92307692307693" type="curve" smooth="yes"/>
      <point x="300.38461538461536" y="231.3846153846154"/>
      <point x="308.6923076923077" y="239.46153846153845"/>
      <point x="331.7692307692308" y="252.30769230769232" type="curve" smooth="yes"/>
      <point x="344.6923076923077" y="259.53846153846155"/>
      <point x="376.53846153846155" y="275.0"/>
      <point x="404.6923076923077" y="289.0" type="curve" smooth="yes"/>
      <point x="448.3076923076923" y="311.2307692307692"/>
      <point x="476.2307692307692" y="327.2307692307692"/>
      <point x="476.2307692307692" y="357.0" type="curve" smooth="yes"/>
      <point x="476.2307692307692" y="385.7692307692308"/>
      <point x="457.38461538461536" y="417.0"/>
      <point x="424.61538461538464" y="417.0" type="curve" smooth="yes"/>
      <point x="401.7692307692308" y="417.0"/>
      <point x="359.3076923076923" y="397.6923076923077"/>
      <point x="328.53846153846155" y="382.3076923076923" type="curve" smooth="yes"/>
      <point x="275.7692307692308" y="356.38461538461536"/>
      <point x="252.07692307692307" y="340.7692307692308"/>
      <point x="225.69230769230768" y="321.15384615384613" type="curve" smooth="yes"/>
      <point x="181.0" y="289.3076923076923"/>
      <point x="168.0769230769231" y="254.15384615384616"/>
      <point x="168.0769230769231" y="226.6153846153846" type="curve" smooth="yes"/>
      <point x="168.0769230769231" y="195.30769230769232"/>
      <point x="182.46153846153845" y="176.46153846153845"/>
      <point x="199.15384615384616" y="152.46153846153845" type="curve" smooth="yes"/>
      <point x="209.30769230769232" y="137.92307692307693"/>
      <point x="225.46153846153845" y="115.38461538461539"/>
      <point x="225.46153846153845" y="106.6923076923077" type="curve" smooth="yes"/>
      <point x="225.46153846153845" y="86.84615384615384"/>
      <point x="165.9230769230769" y="74.61538461538461"/>
      <point x="95.07692307692308" y="74.61538461538461" type="curve" smooth="yes"/>
      <point x="66.76923076923077" y="74.61538461538461"/>
      <point x="48.53846153846154" y="79.69230769230768"/>
      <point x="31.615384615384613" y="84.69230769230768" type="curve" smooth="yes"/>
      <point x="14.230769230769234" y="89.6923076923077"/>
      <point x="1.46153846153846" y="92.6923076923077"/>
      <point x="-10.923076923076923" y="92.6923076923077" type="curve" smooth="yes"/>
      <point x="-38.23076923076923" y="92.6923076923077"/>
      <point x="-61.53846153846154" y="61.46153846153847"/>
      <point x="-61.53846153846154" y="22.769230769230766" type="curve" smooth="yes"/>
      <point x="-61.53846153846154" y="-9.0"/>
      <point x="-40.15384615384615" y="-26.384615384615383"/>
      <point x="-11.307692307692307" y="-35.38461538461539" type="curve" smooth="yes"/>
      <point x="13.46153846153846" y="-42.84615384615385"/>
      <point x="38.53846153846154" y="-44.92307692307692"/>
    </contour>
    <contour>
      <point x="417.53846153846155" y="446.53846153846155" type="curve" smooth="yes"/>
      <point x="454.3076923076923" y="446.53846153846155"/>
      <point x="491.0769230769231" y="477.3076923076923"/>
      <point x="491.0769230769231" y="520.0" type="curve" smooth="yes"/>
      <point x="491.0769230769231" y="556.2307692307693"/>
      <point x="461.3076923076923" y="586.0"/>
      <point x="425.53846153846155" y="586.0" type="curve" smooth="yes"/>
      <point x="388.2307692307692" y="586.0"/>
      <point x="353.0" y="554.2307692307693"/>
      <point x="353.0" y="511.53846153846155" type="curve" smooth="yes"/>
      <point x="353.0" y="473.84615384615387"/>
      <point x="379.7692307692308" y="446.53846153846155"/>
    </contour>
    <contour>
      <point x="235.6153846153846" y="446.53846153846155" type="curve" smooth="yes"/>
      <point x="272.38461538461536" y="446.53846153846155"/>
      <point x="309.15384615384613" y="477.3076923076923"/>
      <point x="309.15384615384613" y="520.0" type="curve" smooth="yes"/>
      <point x="309.15384615384613" y="556.2307692307693"/>
      <point x="279.84615384615387" y="586.0"/>
      <point x="243.6153846153846" y="586.0" type="curve" smooth="yes"/>
      <point x="206.30769230769232" y="586.0"/>
      <point x="171.53846153846155" y="554.2307692307693"/>
      <point x="171.53846153846155" y="511.53846153846155" type="curve" smooth="yes"/>
      <point x="171.53846153846155" y="473.84615384615387"/>
      <point x="197.84615384615384" y="446.53846153846155"/>
    </contour>
  </outline>
</glyph>
<glyph name="uni07A6" format="2">
  <unicode hex="07A6"/>
  <outline>
    <contour>
      <point x="59.15384615384615" y="432.84615384615387" type="curve" smooth="yes"/>
      <point x="78.53846153846155" y="432.84615384615387"/>
      <point x="100.92307692307692" y="436.84615384615387"/>
      <point x="134.76923076923077" y="451.2307692307692" type="curve" smooth="yes"/>
      <point x="177.6153846153846" y="469.3076923076923"/>
      <point x="298.84615384615387" y="532.9230769230769"/>
      <point x="326.0769230769231" y="558.0769230769231" type="curve" smooth="yes"/>
      <point x="351.46153846153845" y="581.3846153846154"/>
      <point x="359.84615384615387" y="604.2307692307693"/>
      <point x="359.84615384615387" y="625.6153846153846" type="curve" smooth="yes"/>
      <point x="359.84615384615387" y="652.3846153846154"/>
      <point x="342.0" y="669.7692307692307"/>
      <point x="315.6923076923077" y="669.7692307692307" type="curve" smooth="yes"/>
      <point x="293.38461538461536" y="669.7692307692307"/>
      <point x="270.15384615384613" y="660.9230769230769"/>
      <point x="252.0769230769231" y="647.8461538461538" type="curve" smooth="yes"/>
      <point x="198.15384615384616" y="608.0"/>
      <point x="138.69230769230768" y="564.4615384615385"/>
      <point x="62.69230769230769" y="545.4615384615385" type="curve" smooth="yes"/>
      <point x="20.0" y="534.5384615384615"/>
      <point x="-1.8461538461538467" y="513.6923076923077"/>
      <point x="-1.8461538461538467" y="482.46153846153845" type="curve" smooth="yes"/>
      <point x="-1.8461538461538467" y="450.6923076923077"/>
      <point x="23.46153846153846" y="432.84615384615387"/>
    </contour>
  </outline>
</glyph>
<glyph name="uni07A7" format="2">
  <unicode hex="07A7"/>
  <outline>
    <contour>
      <point x="44.92307692307692" y="577.9230769230769" type="curve" smooth="yes"/>
      <point x="64.3076923076923" y="577.9230769230769"/>
      <point x="86.23076923076923" y="582.3846153846154"/>
      <point x="121.0" y="596.3076923076923" type="curve" smooth="yes"/>
      <point x="158.84615384615384" y="611.4615384615385"/>
      <point x="264.15384615384613" y="666.6153846153846"/>
      <point x="292.3076923076923" y="691.3076923076923" type="curve" smooth="yes"/>
      <point x="318.61538461538464" y="713.6923076923077"/>
      <point x="325.61538461538464" y="737.4615384615385"/>
      <point x="325.61538461538464" y="759.3076923076923" type="curve" smooth="yes"/>
      <point x="325.61538461538464" y="786.0769230769231"/>
      <point x="307.7692307692308" y="803.4615384615385"/>
      <point x="281.9230769230769" y="803.4615384615385" type="curve" smooth="yes"/>
      <point x="258.15384615384613" y="803.4615384615385"/>
      <point x="239.23076923076923" y="794.0769230769231"/>
      <point x="217.84615384615384" y="781.0769230769231" type="curve" smooth="yes"/>
      <point x="165.53846153846155" y="749.6923076923077"/>
      <point x="116.46153846153845" y="707.0769230769231"/>
      <point x="48.92307692307692" y="690.5384615384615" type="curve" smooth="yes"/>
      <point x="5.76923076923077" y="680.0769230769231"/>
      <point x="-16.07692307692308" y="658.3076923076923"/>
      <point x="-16.07692307692308" y="627.5384615384615" type="curve" smooth="yes"/>
      <point x="-16.07692307692308" y="595.3076923076923"/>
      <point x="9.692307692307692" y="577.9230769230769"/>
    </contour>
    <contour>
      <point x="111.3076923076923" y="433.7692307692308" type="curve" smooth="yes"/>
      <point x="130.23076923076923" y="433.7692307692308"/>
      <point x="152.6153846153846" y="437.7692307692308"/>
      <point x="186.9230769230769" y="452.15384615384613" type="curve" smooth="yes"/>
      <point x="224.76923076923077" y="467.7692307692308"/>
      <point x="330.53846153846155" y="522.0"/>
      <point x="358.2307692307692" y="547.1538461538462" type="curve" smooth="yes"/>
      <point x="384.0769230769231" y="570.0"/>
      <point x="392.0" y="593.7692307692307"/>
      <point x="392.0" y="615.1538461538462" type="curve" smooth="yes"/>
      <point x="392.0" y="641.9230769230769"/>
      <point x="374.15384615384613" y="659.3076923076923"/>
      <point x="347.84615384615387" y="659.3076923076923" type="curve" smooth="yes"/>
      <point x="325.0" y="659.3076923076923"/>
      <point x="304.6923076923077" y="650.3846153846154"/>
      <point x="283.7692307692308" y="637.3846153846154" type="curve" smooth="yes"/>
      <point x="233.0" y="605.0769230769231"/>
      <point x="182.3846153846154" y="563.9230769230769"/>
      <point x="114.84615384615384" y="546.3846153846154" type="curve" smooth="yes"/>
      <point x="72.15384615384616" y="535.4615384615385"/>
      <point x="50.30769230769231" y="514.1538461538462"/>
      <point x="50.30769230769231" y="483.38461538461536" type="curve" smooth="yes"/>
      <point x="50.30769230769231" y="451.61538461538464"/>
      <point x="75.61538461538461" y="433.7692307692308"/>
    </contour>
  </outline>
</glyph>
<glyph name="uni07A8" format="2">
  <unicode hex="07A8"/>
  <outline>
    <contour>
      <point x="-13.230769230769234" y="-292.53846153846155" type="curve" smooth="yes"/>
      <point x="6.153846153846153" y="-292.53846153846155"/>
      <point x="28.07692307692308" y="-288.53846153846155"/>
      <point x="62.84615384615384" y="-274.61538461538464" type="curve" smooth="yes"/>
      <point x="105.23076923076923" y="-257.0"/>
      <point x="226.0" y="-193.3846153846154"/>
      <point x="254.15384615384616" y="-167.76923076923077" type="curve" smooth="yes"/>
      <point x="280.0" y="-144.92307692307693"/>
      <point x="287.46153846153845" y="-121.61538461538461"/>
      <point x="287.46153846153845" y="-99.76923076923077" type="curve" smooth="yes"/>
      <point x="287.46153846153845" y="-73.0"/>
      <point x="269.61538461538464" y="-56.07692307692308"/>
      <point x="243.76923076923077" y="-56.07692307692308" type="curve" smooth="yes"/>
      <point x="220.46153846153845" y="-56.07692307692308"/>
      <point x="200.6153846153846" y="-64.53846153846153"/>
      <point x="179.69230769230768" y="-78.0" type="curve" smooth="yes"/>
      <point x="121.38461538461539" y="-114.76923076923077"/>
      <point x="66.76923076923077" y="-161.84615384615384"/>
      <point x="-9.230769230769234" y="-180.3846153846154" type="curve" smooth="yes"/>
      <point x="-52.38461538461539" y="-190.84615384615384"/>
      <point x="-74.23076923076923" y="-212.15384615384616"/>
      <point x="-74.23076923076923" y="-242.9230769230769" type="curve" smooth="yes"/>
      <point x="-74.23076923076923" y="-275.15384615384613"/>
      <point x="-48.46153846153846" y="-292.53846153846155"/>
    </contour>
  </outline>
</glyph>
<glyph name="uni07A9" format="2">
  <unicode hex="07A9"/>
  <outline>
    <contour>
      <point x="44.92307692307692" y="-267.9230769230769" type="curve" smooth="yes"/>
      <point x="64.3076923076923" y="-267.9230769230769"/>
      <point x="86.23076923076923" y="-264.38461538461536"/>
      <point x="121.0" y="-250.0" type="curve" smooth="yes"/>
      <point x="159.30769230769232" y="-234.3846153846154"/>
      <point x="264.15384615384613" y="-179.69230769230768"/>
      <point x="292.3076923076923" y="-154.53846153846155" type="curve" smooth="yes"/>
      <point x="318.15384615384613" y="-131.69230769230768"/>
      <point x="325.61538461538464" y="-108.38461538461539"/>
      <point x="325.61538461538464" y="-86.53846153846153" type="curve" smooth="yes"/>
      <point x="325.61538461538464" y="-59.76923076923077"/>
      <point x="307.7692307692308" y="-42.84615384615385"/>
      <point x="281.9230769230769" y="-42.84615384615385" type="curve" smooth="yes"/>
      <point x="258.15384615384613" y="-42.84615384615385"/>
      <point x="238.76923076923077" y="-52.230769230769226"/>
      <point x="217.84615384615384" y="-64.76923076923077" type="curve" smooth="yes"/>
      <point x="166.0" y="-96.61538461538461"/>
      <point x="116.92307692307692" y="-139.23076923076923"/>
      <point x="49.38461538461539" y="-155.76923076923077" type="curve" smooth="yes"/>
      <point x="6.23076923076923" y="-166.23076923076923"/>
      <point x="-16.07692307692308" y="-187.53846153846155"/>
      <point x="-16.07692307692308" y="-218.30769230769232" type="curve" smooth="yes"/>
      <point x="-16.07692307692308" y="-250.53846153846155"/>
      <point x="9.692307692307692" y="-267.9230769230769"/>
    </contour>
    <contour>
      <point x="111.3076923076923" y="-416.6923076923077" type="curve" smooth="yes"/>
      <point x="130.23076923076923" y="-416.6923076923077"/>
      <point x="153.0769230769231" y="-412.6923076923077"/>
      <point x="186.9230769230769" y="-398.7692307692308" type="curve" smooth="yes"/>
      <point x="224.76923076923077" y="-383.15384615384613"/>
      <point x="330.53846153846155" y="-328.46153846153845"/>
      <point x="358.2307692307692" y="-303.3076923076923" type="curve" smooth="yes"/>
      <point x="384.0769230769231" y="-280.46153846153845"/>
      <point x="392.0" y="-257.15384615384613"/>
      <point x="392.0" y="-235.30769230769232" type="curve" smooth="yes"/>
      <point x="392.0" y="-208.53846153846155"/>
      <point x="374.15384615384613" y="-191.6153846153846"/>
      <point x="347.84615384615387" y="-191.6153846153846" type="curve" smooth="yes"/>
      <point x="325.0" y="-191.6153846153846"/>
      <point x="305.1538461538462" y="-200.0769230769231"/>
      <point x="284.2307692307692" y="-213.0769230769231" type="curve" smooth="yes"/>
      <point x="232.3846153846154" y="-245.3846153846154"/>
      <point x="182.3846153846154" y="-287.53846153846155"/>
      <point x="114.84615384615384" y="-304.0769230769231" type="curve" smooth="yes"/>
      <point x="72.15384615384616" y="-314.53846153846155"/>
      <point x="50.30769230769231" y="-336.3076923076923"/>
      <point x="50.30769230769231" y="-367.0769230769231" type="curve" smooth="yes"/>
      <point x="50.30769230769231" y="-399.3076923076923"/>
      <point x="75.61538461538461" y="-416.6923076923077"/>
    </contour>
  </outline>
</glyph>
<glyph name="uni07AA" format="2">
  <unicode hex="07AA"/>
  <outline>
    <contour>
      <point x="68.61538461538461" y="437.61538461538464" type="curve" smooth="yes"/>
      <point x="101.07692307692308" y="437.61538461538464"/>
      <point x="146.84615384615384" y="445.8461538461538"/>
      <point x="215.3846153846154" y="488.8461538461538" type="curve" smooth="yes"/>
      <point x="284.9230769230769" y="532.8461538461538"/>
      <point x="320.7692307692308" y="576.6153846153846"/>
      <point x="320.7692307692308" y="626.8461538461538" type="curve" smooth="yes"/>
      <point x="320.7692307692308" y="675.1538461538462"/>
      <point x="237.30769230769232" y="708.0769230769231"/>
      <point x="147.76923076923077" y="708.0769230769231" type="curve" smooth="yes"/>
      <point x="77.92307692307692" y="708.0769230769231"/>
      <point x="35.23076923076923" y="688.6923076923077"/>
      <point x="35.23076923076923" y="648.0" type="curve" smooth="yes"/>
      <point x="35.23076923076923" y="609.3076923076923"/>
      <point x="58.07692307692308" y="596.3846153846154"/>
      <point x="105.23076923076923" y="596.3846153846154" type="curve" smooth="yes"/>
      <point x="116.53846153846155" y="596.3846153846154"/>
      <point x="131.23076923076923" y="597.8461538461538"/>
      <point x="144.69230769230768" y="597.8461538461538" type="curve" smooth="yes"/>
      <point x="156.84615384615384" y="597.8461538461538"/>
      <point x="168.76923076923077" y="596.2307692307693"/>
      <point x="192.30769230769232" y="593.1538461538462" type="curve"/>
      <point x="155.46153846153845" y="571.1538461538462"/>
      <point x="67.84615384615384" y="546.6923076923077"/>
      <point x="42.07692307692308" y="538.4615384615385" type="curve" smooth="yes"/>
      <point x="14.076923076923077" y="529.4615384615385"/>
      <point x="-2.3076923076923066" y="521.0"/>
      <point x="-2.3076923076923066" y="491.2307692307692" type="curve" smooth="yes"/>
      <point x="-2.3076923076923066" y="456.0"/>
      <point x="22.0" y="437.61538461538464"/>
    </contour>
  </outline>
</glyph>
<glyph name="uni07AB" format="2">
  <unicode hex="07AB"/>
  <outline>
    <contour>
      <point x="366.6923076923077" y="437.61538461538464" type="curve" smooth="yes"/>
      <point x="399.15384615384613" y="437.61538461538464"/>
      <point x="445.0" y="446.84615384615387"/>
      <point x="513.0" y="488.8461538461538" type="curve" smooth="yes"/>
      <point x="583.0" y="531.8461538461538"/>
      <point x="618.8461538461538" y="576.6153846153846"/>
      <point x="618.8461538461538" y="626.8461538461538" type="curve" smooth="yes"/>
      <point x="618.8461538461538" y="675.1538461538462"/>
      <point x="535.3846153846154" y="708.0769230769231"/>
      <point x="445.84615384615387" y="708.0769230769231" type="curve" smooth="yes"/>
      <point x="376.0" y="708.0769230769231"/>
      <point x="333.3076923076923" y="688.6923076923077"/>
      <point x="333.3076923076923" y="648.0" type="curve" smooth="yes"/>
      <point x="333.3076923076923" y="609.3076923076923"/>
      <point x="356.15384615384613" y="596.3846153846154"/>
      <point x="395.9230769230769" y="596.3846153846154" type="curve" smooth="yes"/>
      <point x="411.0" y="596.3846153846154"/>
      <point x="427.0" y="598.3076923076923"/>
      <point x="443.2307692307692" y="598.3076923076923" type="curve" smooth="yes"/>
      <point x="454.46153846153845" y="598.3076923076923"/>
      <point x="467.46153846153845" y="597.3076923076923"/>
      <point x="490.38461538461536" y="593.1538461538462" type="curve"/>
      <point x="452.0769230769231" y="571.1538461538462"/>
      <point x="365.53846153846155" y="547.2307692307693"/>
      <point x="340.15384615384613" y="538.4615384615385" type="curve" smooth="yes"/>
      <point x="311.6923076923077" y="528.5384615384615"/>
      <point x="295.7692307692308" y="521.0"/>
      <point x="295.7692307692308" y="491.2307692307692" type="curve" smooth="yes"/>
      <point x="295.7692307692308" y="456.0"/>
      <point x="320.0769230769231" y="437.61538461538464"/>
    </contour>
    <contour>
      <point x="68.61538461538461" y="437.61538461538464" type="curve" smooth="yes"/>
      <point x="101.07692307692308" y="437.61538461538464"/>
      <point x="147.3846153846154" y="446.3076923076923"/>
      <point x="215.3846153846154" y="488.8461538461538" type="curve" smooth="yes"/>
      <point x="284.84615384615387" y="532.3846153846154"/>
      <point x="320.7692307692308" y="576.6153846153846"/>
      <point x="320.7692307692308" y="626.8461538461538" type="curve" smooth="yes"/>
      <point x="320.7692307692308" y="675.1538461538462"/>
      <point x="237.30769230769232" y="708.0769230769231"/>
      <point x="147.76923076923077" y="708.0769230769231" type="curve" smooth="yes"/>
      <point x="77.92307692307692" y="708.0769230769231"/>
      <point x="35.23076923076923" y="688.6923076923077"/>
      <point x="35.23076923076923" y="648.0" type="curve" smooth="yes"/>
      <point x="35.23076923076923" y="609.3076923076923"/>
      <point x="58.07692307692308" y="596.3846153846154"/>
      <point x="96.46153846153845" y="596.3846153846154" type="curve" smooth="yes"/>
      <point x="112.92307692307692" y="596.3846153846154"/>
      <point x="132.15384615384616" y="597.8461538461538"/>
      <point x="146.53846153846155" y="597.8461538461538" type="curve" smooth="yes"/>
      <point x="155.46153846153845" y="597.8461538461538"/>
      <point x="170.30769230769232" y="596.8461538461538"/>
      <point x="192.30769230769232" y="593.1538461538462" type="curve"/>
      <point x="155.46153846153845" y="571.1538461538462"/>
      <point x="67.92307692307692" y="546.6923076923077"/>
      <point x="42.07692307692308" y="538.4615384615385" type="curve" smooth="yes"/>
      <point x="13.615384615384617" y="529.0"/>
      <point x="-2.3076923076923066" y="521.0"/>
      <point x="-2.3076923076923066" y="491.2307692307692" type="curve" smooth="yes"/>
      <point x="-2.3076923076923066" y="456.0"/>
      <point x="22.0" y="437.61538461538464"/>
    </contour>
  </outline>
</glyph>
<glyph name="uni07AC" format="2">
  <unicode hex="07AC"/>
  <outline>
    <contour>
      <point x="157.6153846153846" y="433.46153846153845" type="curve" smooth="yes"/>
      <point x="229.6153846153846" y="433.46153846153845"/>
      <point x="275.3076923076923" y="444.9230769230769"/>
      <point x="275.3076923076923" y="486.61538461538464" type="curve" smooth="yes"/>
      <point x="275.3076923076923" y="537.1538461538462"/>
      <point x="256.9230769230769" y="545.1538461538462"/>
      <point x="223.6153846153846" y="545.1538461538462" type="curve" smooth="yes"/>
      <point x="205.6153846153846" y="545.1538461538462"/>
      <point x="180.15384615384616" y="541.1538461538462"/>
      <point x="171.46153846153845" y="541.1538461538462" type="curve" smooth="yes"/>
      <point x="154.15384615384616" y="541.1538461538462"/>
      <point x="146.3846153846154" y="543.6153846153846"/>
      <point x="135.0769230769231" y="550.8461538461538" type="curve"/>
      <point x="150.46153846153845" y="562.9230769230769"/>
      <point x="213.3846153846154" y="597.5384615384615"/>
      <point x="225.92307692307693" y="607.4615384615385" type="curve" smooth="yes"/>
      <point x="251.53846153846155" y="628.3846153846154"/>
      <point x="256.46153846153845" y="641.6923076923077"/>
      <point x="256.46153846153845" y="654.1538461538462" type="curve" smooth="yes"/>
      <point x="256.46153846153845" y="689.3846153846154"/>
      <point x="233.15384615384616" y="705.7692307692307"/>
      <point x="202.3846153846154" y="705.7692307692307" type="curve" smooth="yes"/>
      <point x="170.46153846153845" y="705.7692307692307"/>
      <point x="139.15384615384616" y="690.6923076923077"/>
      <point x="102.46153846153847" y="663.5384615384615" type="curve" smooth="yes"/>
      <point x="22.153846153846153" y="604.6923076923077"/>
      <point x="-2.3076923076923066" y="594.6153846153846"/>
      <point x="-2.3076923076923066" y="544.9230769230769" type="curve" smooth="yes"/>
      <point x="-2.3076923076923066" y="486.15384615384613"/>
      <point x="67.76923076923077" y="433.46153846153845"/>
    </contour>
  </outline>
</glyph>
<glyph name="uni07AE" format="2">
  <unicode hex="07AE"/>
  <outline>
    <contour>
      <point x="68.61538461538461" y="437.61538461538464" type="curve" smooth="yes"/>
      <point x="113.0" y="437.61538461538464"/>
      <point x="159.84615384615384" y="455.3076923076923"/>
      <point x="224.84615384615384" y="494.84615384615387" type="curve"/>
      <point x="252.69230769230768" y="459.38461538461536"/>
      <point x="304.38461538461536" y="433.46153846153845"/>
      <point x="366.46153846153845" y="433.46153846153845" type="curve" smooth="yes"/>
      <point x="438.46153846153845" y="433.46153846153845"/>
      <point x="483.1538461538462" y="444.9230769230769"/>
      <point x="483.1538461538462" y="486.61538461538464" type="curve" smooth="yes"/>
      <point x="483.1538461538462" y="537.1538461538462"/>
      <point x="466.2307692307692" y="545.1538461538462"/>
      <point x="431.46153846153845" y="545.1538461538462" type="curve" smooth="yes"/>
      <point x="414.46153846153845" y="545.1538461538462"/>
      <point x="388.0" y="541.1538461538462"/>
      <point x="380.3076923076923" y="541.1538461538462" type="curve" smooth="yes"/>
      <point x="362.0" y="541.1538461538462"/>
      <point x="357.46153846153845" y="542.2307692307693"/>
      <point x="342.9230769230769" y="550.8461538461538" type="curve"/>
      <point x="354.1538461538462" y="559.6923076923077"/>
      <point x="423.53846153846155" y="599.8461538461538"/>
      <point x="433.7692307692308" y="607.4615384615385" type="curve" smooth="yes"/>
      <point x="459.38461538461536" y="627.9230769230769"/>
      <point x="465.3076923076923" y="641.6923076923077"/>
      <point x="465.3076923076923" y="654.1538461538462" type="curve" smooth="yes"/>
      <point x="465.3076923076923" y="689.3846153846154"/>
      <point x="442.0" y="705.7692307692307"/>
      <point x="411.6923076923077" y="705.7692307692307" type="curve" smooth="yes"/>
      <point x="378.3076923076923" y="705.7692307692307"/>
      <point x="348.0769230769231" y="692.1538461538462"/>
      <point x="306.38461538461536" y="659.6153846153846" type="curve"/>
      <point x="277.53846153846155" y="689.5384615384615"/>
      <point x="214.46153846153845" y="708.0769230769231"/>
      <point x="147.76923076923077" y="708.0769230769231" type="curve" smooth="yes"/>
      <point x="77.92307692307692" y="708.0769230769231"/>
      <point x="35.23076923076923" y="688.6923076923077"/>
      <point x="35.23076923076923" y="648.0" type="curve" smooth="yes"/>
      <point x="35.23076923076923" y="609.3076923076923"/>
      <point x="58.07692307692308" y="595.4615384615385"/>
      <point x="101.53846153846155" y="595.4615384615385" type="curve" smooth="yes"/>
      <point x="118.0" y="595.4615384615385"/>
      <point x="136.76923076923077" y="597.8461538461538"/>
      <point x="149.76923076923077" y="597.8461538461538" type="curve" smooth="yes"/>
      <point x="157.30769230769232" y="597.8461538461538"/>
      <point x="169.3846153846154" y="596.8461538461538"/>
      <point x="192.30769230769232" y="593.1538461538462" type="curve"/>
      <point x="156.3846153846154" y="573.0"/>
      <point x="72.92307692307692" y="548.0769230769231"/>
      <point x="42.07692307692308" y="538.4615384615385" type="curve" smooth="yes"/>
      <point x="13.615384615384617" y="529.4615384615385"/>
      <point x="-2.3076923076923066" y="521.0"/>
      <point x="-2.3076923076923066" y="491.2307692307692" type="curve" smooth="yes"/>
      <point x="-2.3076923076923066" y="456.0"/>
      <point x="22.0" y="437.61538461538464"/>
    </contour>
  </outline>
</glyph>
<glyph name="uni07AF" format="2">
  <unicode hex="07AF"/>
  <outline>
    <contour>
      <point x="149.92307692307693" y="436.6923076923077" type="curve" smooth="yes"/>
      <point x="236.0" y="436.6923076923077"/>
      <point x="313.84615384615387" y="475.2307692307692"/>
      <point x="313.84615384615387" y="527.3846153846154" type="curve" smooth="yes"/>
      <point x="313.84615384615387" y="554.6923076923077"/>
      <point x="296.46153846153845" y="570.0769230769231"/>
      <point x="270.15384615384613" y="570.0769230769231" type="curve" smooth="yes"/>
      <point x="238.84615384615384" y="570.0769230769231"/>
      <point x="185.0" y="544.8461538461538"/>
      <point x="153.92307692307693" y="544.8461538461538" type="curve" smooth="yes"/>
      <point x="129.6153846153846" y="544.8461538461538"/>
      <point x="120.15384615384616" y="558.3846153846154"/>
      <point x="120.15384615384616" y="585.2307692307693" type="curve" smooth="yes"/>
      <point x="120.15384615384616" y="638.8461538461538"/>
      <point x="268.0769230769231" y="742.1538461538462"/>
      <point x="313.7692307692308" y="742.1538461538462" type="curve" smooth="yes"/>
      <point x="320.61538461538464" y="742.1538461538462"/>
      <point x="323.7692307692308" y="738.4615384615385"/>
      <point x="323.7692307692308" y="734.7692307692307" type="curve" smooth="yes"/>
      <point x="323.7692307692308" y="722.9230769230769"/>
      <point x="312.61538461538464" y="714.2307692307693"/>
      <point x="299.46153846153845" y="705.1538461538462" type="curve" smooth="yes"/>
      <point x="284.0" y="694.2307692307693"/>
      <point x="270.46153846153845" y="680.6923076923077"/>
      <point x="270.46153846153845" y="658.3076923076923" type="curve" smooth="yes"/>
      <point x="270.46153846153845" y="627.5384615384615"/>
      <point x="295.7692307692308" y="601.7692307692307"/>
      <point x="326.0769230769231" y="601.7692307692307" type="curve" smooth="yes"/>
      <point x="345.0" y="601.7692307692307"/>
      <point x="361.46153846153845" y="612.3076923076923"/>
      <point x="398.3076923076923" y="649.0769230769231" type="curve" smooth="yes"/>
      <point x="435.15384615384613" y="685.8461538461538"/>
      <point x="449.7692307692308" y="718.4615384615385"/>
      <point x="449.7692307692308" y="758.5384615384615" type="curve" smooth="yes"/>
      <point x="449.7692307692308" y="817.3846153846154"/>
      <point x="396.53846153846155" y="853.7692307692307"/>
      <point x="333.61538461538464" y="853.7692307692307" type="curve" smooth="yes"/>
      <point x="179.84615384615384" y="853.7692307692307"/>
      <point x="-1.384615384615385" y="698.9230769230769"/>
      <point x="-1.384615384615385" y="567.3846153846154" type="curve" smooth="yes"/>
      <point x="-1.384615384615385" y="485.46153846153845"/>
      <point x="59.69230769230769" y="436.6923076923077"/>
    </contour>
  </outline>
</glyph>
<glyph name="uni07B0" format="2">
  <unicode hex="07B0"/>
  <outline>
    <contour>
      <point x="135.3846153846154" y="437.15384615384613" type="curve" smooth="yes"/>
      <point x="235.30769230769232" y="437.15384615384613"/>
      <point x="328.84615384615387" y="520.6153846153846"/>
      <point x="328.84615384615387" y="625.0769230769231" type="curve" smooth="yes"/>
      <point x="328.84615384615387" y="698.3076923076923"/>
      <point x="289.38461538461536" y="733.7692307692307"/>
      <point x="208.53846153846155" y="733.7692307692307" type="curve" smooth="yes"/>
      <point x="103.0" y="733.7692307692307"/>
      <point x="-1.8461538461538467" y="660.6923076923077"/>
      <point x="-1.8461538461538467" y="562.3846153846154" type="curve" smooth="yes"/>
      <point x="-1.8461538461538467" y="488.0769230769231"/>
      <point x="37.69230769230769" y="437.15384615384613"/>
    </contour>
    <contour>
      <point x="148.53846153846155" y="539.3846153846154" type="curve" smooth="yes"/>
      <point x="127.46153846153847" y="539.3846153846154"/>
      <point x="111.76923076923077" y="547.4615384615385"/>
      <point x="111.76923076923077" y="570.1538461538462" type="curve" smooth="yes"/>
      <point x="111.76923076923077" y="608.2307692307693"/>
      <point x="145.23076923076923" y="637.0"/>
      <point x="193.0" y="637.0" type="curve" smooth="yes"/>
      <point x="211.69230769230768" y="637.0"/>
      <point x="220.69230769230768" y="624.2307692307693"/>
      <point x="220.69230769230768" y="608.6923076923077" type="curve" smooth="yes"/>
      <point x="220.69230769230768" y="567.7692307692307"/>
      <point x="184.69230769230768" y="539.3846153846154"/>
    </contour>
  </outline>
</glyph>
